<svg width="1063" height="676" viewBox="0 0 1063 676" fill="none" xmlns="http://www.w3.org/2000/svg">
<path d="M312.204 144.637L366.962 144.697C376.673 144.69 396.636 143.096 404.212 148.573C405.805 151.165 406.925 157.132 406.925 160.201C406.924 196.804 407.548 233.544 406.612 270.119C406.484 275.11 401.763 279.095 396.828 279.483C384.379 280.462 371.719 280.079 359.197 280.07L285.043 280.017L225.069 280.093C216.082 280.103 205.511 280.498 196.601 279.452C191.915 278.903 189.8 275.625 187.413 271.958C186.873 264.03 187.13 252.935 187.119 244.821L187.083 197.206C187.078 183.685 186.612 167.18 187.596 153.593C187.866 149.869 192.252 147.062 195.23 145.096C205.578 144.179 225.008 144.7 235.949 144.701L312.204 144.637Z" fill="#292929"/>
<path d="M197.78 151.156C207.082 150.203 228.001 150.698 238.164 150.705L314.289 150.854L368.813 150.764C374.453 150.76 390.87 150.476 396.057 151.171C402.184 154.152 400.914 158.746 400.705 164.827C400.88 167.852 401.092 170.059 400.724 173.106C400.789 183.961 401.57 264.742 400.296 267.684L400.04 267.294L399.649 267.726C394.577 277.624 381.284 274.104 371.666 273.852C369.892 268.391 363.677 243.533 359.409 241.468C355.292 239.475 239.976 239.626 234.142 241.531C229.104 246.859 224.949 265.806 222.318 273.926C216.822 274.065 203.257 274.671 198.553 273.807C195.576 272.93 194.718 271.567 193.293 269.033C192.567 264.198 192.803 249.161 192.841 243.564C192.939 228.983 192.561 213.591 193.057 199.077C192.985 186.031 192.325 168.696 193.803 155.814C194.087 153.335 195.737 152.349 197.78 151.156Z" fill="#6B8F8B"/>
<path d="M197.78 151.156C200.021 151.239 207.604 151.367 209.297 151.889C205.029 152.681 198.838 153.313 195.925 156.407C192.262 165.542 197.363 238.083 193.919 244.615C192.403 229.917 194.451 213.039 193.057 199.077C192.985 186.031 192.324 168.696 193.803 155.814C194.087 153.335 195.737 152.349 197.78 151.156Z" fill="#C3BFB9"/>
<path d="M399.649 267.726L399.093 266.68C399.575 254.694 398.023 178.315 400.724 173.106C400.789 183.961 401.57 264.742 400.296 267.684L400.04 267.294L399.649 267.726Z" fill="#C3BFB9"/>
<path d="M396.057 151.171C402.184 154.152 400.914 158.746 400.705 164.827C399.1 162.485 400.044 158.017 397.187 154.701C395.103 152.282 388.916 152.162 385.567 151.795L396.057 151.171Z" fill="#FAEFDD"/>
<path d="M193.293 269.033L193.991 264.942C196.381 271.93 202.283 272.457 208.503 273.266L198.553 273.807C195.576 272.93 194.718 271.567 193.293 269.033Z" fill="#FAEFDD"/>
<path d="M209.739 161.966L383.841 161.985C383.511 167.483 383.625 172.77 383.688 178.265C366.546 179.085 343.423 178.349 325.901 178.353L210.011 178.338C210.026 172.88 209.935 167.422 209.739 161.966Z" fill="#FAEFDD"/>
<path d="M247.048 186.008C252.267 185.753 262.046 189.062 265.04 193.403C264.095 202.885 272.641 200.941 265.144 209.697C265.132 210.273 265.113 210.849 265.086 211.424C264.715 218.652 258.978 215.237 253.235 220.305C245.399 223.626 232.866 211.951 232.356 204.087C232.057 199.485 233.576 199.634 235.974 196.236L235.349 193.814C239.407 187.241 242.664 191.331 247.048 186.008Z" fill="#292929"/>
<path d="M340.11 186.034C344.755 185.614 355.362 189.467 357.566 193.736C356.009 201.746 362.516 197.825 360.335 206.424C357.478 209.268 356.675 209.4 357.544 213.176C353.478 219.728 350.26 215.363 346.232 219.866C343.896 223.363 338.293 218.842 336.174 217.456C332.334 217.354 331.318 217.491 329.022 214.237C328.506 207.315 325.101 207.145 324.987 203.216C326.537 199.427 328.936 192.528 331.972 189.933C336.235 189.724 336.731 189.632 339.641 186.542L340.11 186.034Z" fill="#292929"/>
<path d="M244.874 151.429L330.133 151.4C334.474 151.413 360.044 151.395 362.678 152.097C336.021 153.579 308.554 152.693 281.848 152.869C272.821 152.929 258.656 152.23 250.265 152.778L244.874 151.429Z" fill="#FAEFDD"/>
<path d="M202.345 258.451C203.875 257.734 205.673 257.901 207.045 258.887C208.417 259.874 209.147 261.526 208.953 263.205C208.759 264.883 207.673 266.325 206.112 266.974C203.773 267.947 201.085 266.872 200.061 264.555C199.037 262.238 200.052 259.527 202.345 258.451Z" fill="#292929"/>
<path d="M386.573 258.487C388.005 257.625 389.79 257.599 391.246 258.419C392.703 259.237 393.607 260.776 393.615 262.447C393.623 264.119 392.733 265.665 391.283 266.497C389.074 267.766 386.255 267.02 384.963 264.824C383.672 262.627 384.39 259.801 386.573 258.487Z" fill="#292929"/>
<path d="M202.538 158.085C204.063 157.397 205.842 157.592 207.183 158.596C208.523 159.599 209.211 161.251 208.98 162.909C208.749 164.567 207.635 165.968 206.071 166.566C203.749 167.455 201.142 166.336 200.186 164.042C199.229 161.747 200.272 159.108 202.538 158.085Z" fill="#292929"/>
<path d="M387.015 158.092C389.255 156.965 391.984 157.843 393.147 160.063C394.311 162.284 393.478 165.028 391.277 166.227C389.82 167.021 388.048 166.968 386.643 166.088C385.236 165.208 384.414 163.638 384.491 161.981C384.568 160.324 385.533 158.837 387.015 158.092Z" fill="#292929"/>
<path d="M250.265 152.778C243.684 153.234 237.073 152.982 230.547 152.024C233.112 151.095 241.88 151.221 244.874 151.429L250.265 152.778Z" fill="#8DA4A3"/>
<path d="M236.538 244.718C242.92 244.243 253.373 244.545 260.038 244.54L302.657 244.504C311.275 244.495 350.263 243.939 356.657 245.162C360.598 249.082 365.147 267.818 366.973 274.144L357.622 274.252C314.668 273.454 269.944 275.275 227.053 273.994C228.771 268.314 233.911 248.329 236.538 244.718Z" fill="#6B8F8B"/>
<path d="M342.617 260.519C344.178 259.705 346.065 259.848 347.486 260.887C348.906 261.926 349.614 263.681 349.312 265.415C349.01 267.148 347.751 268.561 346.063 269.059C343.778 269.732 341.356 268.56 340.465 266.352C339.574 264.143 340.506 261.619 342.617 260.519Z" fill="#292929"/>
<path d="M267.149 257.736C268.557 256.865 270.325 256.817 271.779 257.611C273.232 258.405 274.147 259.919 274.175 261.575C274.202 263.231 273.338 264.774 271.911 265.616C269.737 266.899 266.937 266.192 265.631 264.032C264.326 261.872 265.002 259.064 267.149 257.736Z" fill="#292929"/>
<path d="M247.366 260.589C249.553 259.399 252.291 260.168 253.536 262.324C254.783 264.481 254.083 267.237 251.96 268.538C250.537 269.409 248.753 269.441 247.3 268.62C245.848 267.798 244.955 266.254 244.969 264.585C244.983 262.917 245.9 261.387 247.366 260.589Z" fill="#292929"/>
<path d="M322.724 257.746C324.17 256.854 325.992 256.844 327.448 257.719C328.903 258.595 329.748 260.21 329.637 261.905C329.526 263.6 328.478 265.091 326.921 265.77C324.737 266.721 322.19 265.823 321.086 263.712C319.983 261.602 320.697 258.997 322.724 257.746Z" fill="#292929"/>
<path d="M661.438 145.149C671.959 144.343 684.728 144.729 695.503 144.747L750.461 144.814C785.897 144.83 829.535 143.487 864.498 145.115C866.767 146.502 869.475 148.364 870.797 150.729C872.176 153.178 872.211 156.747 872.374 159.508C873.13 172.616 873.767 266.752 871.32 273.159C870.083 276.408 866.873 278.082 863.953 279.538C855.059 280.595 835.644 280.068 826.063 280.057L755.099 280.013L693.629 280.078C683.788 280.086 673.642 280.402 663.856 279.709C655.888 279.144 653.428 272.045 653.336 265.287C652.883 231.575 653.71 197.852 652.996 164.135C652.813 155.358 653.675 149.898 661.438 145.149ZM672.694 266.05C674.624 265.128 675.43 262.811 674.49 260.893C673.55 258.974 671.224 258.192 669.315 259.153C667.427 260.099 666.663 262.386 667.589 264.277C668.516 266.169 670.799 266.96 672.694 266.05ZM674.653 273.666C668.7 271.448 661.82 272.519 661.382 263.849C660.752 251.555 660.71 239.069 660.922 226.759C661.318 204.42 661.24 182.227 661.028 159.891L660.441 160.626L659.543 160.791C659.593 164.47 659.558 168.566 659.741 172.203C659.36 183.042 658.158 268.412 661.035 271.7C662.711 273.615 665.242 273.85 667.632 273.875C669.965 273.9 672.32 273.768 674.653 273.666Z" fill="#292929"/>
<path d="M684.452 150.771C692.442 150.206 705.578 150.857 714.084 150.83L781.909 150.722L822.316 150.721C825.484 150.72 837.758 150.475 839.914 150.791C844.206 150.717 857.731 150.294 861.422 151.068C863.126 152.232 865.636 153.678 865.671 156.038C866.279 192.396 865.947 228.849 865.841 265.225C865.827 271.11 864.717 273.637 858.297 273.808C852.719 274.204 848.823 274.351 843.202 274.286C839.9 274.426 836.591 274.496 833.282 274.494C825.144 272.736 791.751 274.492 781.881 274.134C762.424 273.428 740.668 274.119 721.105 274.086C710.697 274.069 701.442 273.226 690.702 273.415L689.925 273.761C687.952 275.156 677.085 274.512 674.653 273.666C668.7 271.448 661.82 272.519 661.382 263.849C660.752 251.555 660.71 239.069 660.922 226.759C661.318 204.42 661.24 182.227 661.028 159.891L660.441 160.626L659.543 160.791C659.459 160.046 659.423 159.296 659.43 158.547C659.444 148.212 677.693 150.596 684.452 150.771ZM672.694 266.05C674.624 265.128 675.43 262.811 674.49 260.892C673.55 258.974 671.224 258.192 669.315 259.152C667.427 260.099 666.663 262.386 667.589 264.277C668.516 266.169 670.799 266.96 672.694 266.05Z" fill="#363636"/>
<path d="M690.702 273.415C692.251 268.088 697.773 246.645 700.749 243.712C711.998 241.868 820.294 241.967 823.327 244.033C827.35 246.772 830.129 268.692 833.282 274.494C825.144 272.736 791.751 274.492 781.881 274.134C762.424 273.428 740.668 274.119 721.105 274.086C710.697 274.069 701.442 273.226 690.702 273.415Z" fill="#363636"/>
<path d="M712.931 259.814C714.996 259.37 717.075 260.541 717.76 262.541C718.446 264.54 717.534 266.738 715.632 267.662C714.183 268.366 712.451 268.171 711.192 267.162C709.934 266.153 709.368 264.51 709.743 262.939C710.11 261.369 711.355 260.152 712.931 259.814Z" fill="#F5F1ED"/>
<path d="M808.077 259.814C810.332 259.324 812.559 260.757 813.047 263.013C813.535 265.269 812.1 267.492 809.844 267.976C807.589 268.458 805.369 267.026 804.888 264.774C804.4 262.523 805.828 260.304 808.077 259.814Z" fill="#F5F1ED"/>
<path d="M786.76 257.772C788.584 256.466 791.115 256.889 792.416 258.716C793.71 260.543 793.271 263.077 791.44 264.364C789.623 265.642 787.113 265.209 785.826 263.395C784.533 261.583 784.957 259.07 786.76 257.772Z" fill="#F5F1ED"/>
<path d="M733.987 257.067C736.03 257.029 737.776 258.553 738.01 260.588C738.243 262.623 736.886 264.502 734.885 264.926C733.407 265.239 731.88 264.688 730.947 263.504C730.006 262.32 729.822 260.707 730.466 259.343C731.116 257.977 732.474 257.096 733.987 257.067Z" fill="#F5F1ED"/>
<path d="M689.925 273.761L687.613 273.229C688.235 268.335 695.093 245.197 698.133 241.383C700.325 240.596 704.963 239.883 707.013 239.976C723.19 240.708 816.455 238.154 825.42 241.266C828.269 244.386 835.58 269.513 835.375 273.143C834.223 274.109 834.626 273.92 833.282 274.494C830.129 268.692 827.35 246.772 823.327 244.033C820.294 241.967 711.998 241.868 700.749 243.712C697.773 246.645 692.251 268.088 690.702 273.415L689.925 273.761Z" fill="#F5F1ED"/>
<path d="M861.422 151.068C863.126 152.232 865.636 153.678 865.671 156.038C866.279 192.396 865.947 228.849 865.841 265.225C865.827 271.11 864.717 273.637 858.297 273.808C855.66 273.705 853.659 273.373 851.085 272.978C854.832 272.19 862.214 272.457 862.787 267.198C863.557 260.183 863.331 252.858 863.324 245.787L863.289 210.377C863.289 193.056 863.882 175.693 863.19 158.392C862.977 153.052 857.378 152.896 853.51 152.606L853.977 151.75C856.678 151.206 858.693 151.191 861.422 151.068Z" fill="#F5F1ED"/>
<path d="M659.543 160.791C659.459 160.046 659.423 159.296 659.43 158.547C659.444 148.212 677.693 150.596 684.452 150.771C675.36 155.594 666.543 147.677 661.028 159.891L660.441 160.626L659.543 160.791Z" fill="#7C7B78"/>
<path d="M839.914 150.791C844.206 150.717 857.731 150.294 861.422 151.068C858.693 151.191 856.678 151.206 853.977 151.749L853.511 152.606C849.891 152.408 842.693 152.543 839.914 150.791Z" fill="#7C7B78"/>
<path d="M843.202 274.286C845.655 272.467 848.229 272.807 851.085 272.978C853.659 273.373 855.66 273.705 858.297 273.808C852.719 274.204 848.823 274.351 843.202 274.286Z" fill="#7C7B78"/>
<path d="M686.015 162.31C738.682 162.507 791.468 161.832 844.121 162.395C844.227 166.732 845.217 180.41 843.075 183.438L840.77 183.678L680.054 183.761C680.139 176.943 678.669 169.403 680.832 163.533C682.805 161.948 683.102 162.438 686.015 162.31Z" fill="#FAEFDD"/>
<path d="M711.454 187.72C714.501 186.891 717.725 186.943 720.744 187.871C727.892 190.066 732.707 196.741 732.545 204.216C732.375 211.69 727.263 218.144 720.03 220.019C711.136 222.323 702.043 217.012 699.689 208.131C697.327 199.251 702.588 190.133 711.454 187.72Z" fill="#292929"/>
<path d="M713.447 191.741C717.69 191.535 725.955 195.882 727.319 200.142C725.679 204.589 725.248 204.817 726.931 208.627C726.216 210.757 726.308 210.678 724.647 212.16C723.855 212.315 723.07 212.492 722.292 212.691C719.79 213.341 719.422 214.171 718.248 216.275L715.081 216.161C712.924 214.834 710.436 213.675 708.208 212.451C702.552 209.343 705.182 207.452 705.698 202.276C705.062 201.206 704.864 200.823 704.39 199.677C707.204 192.777 710.139 198.469 713.447 191.741Z" fill="#FAEFDD"/>
<path d="M805.22 187.626C811.23 186.694 817.268 189.116 820.973 193.943C824.671 198.77 825.448 205.231 822.988 210.796C820.732 215.9 816.073 219.534 810.572 220.475C801.466 222.033 792.826 215.871 791.341 206.749C789.856 197.627 796.085 189.041 805.22 187.626Z" fill="#292929"/>
<path d="M805.786 192.515C809.618 191.088 810.65 193.148 813.245 195.633C814.935 195.863 815.119 195.845 816.78 196.471C819.467 199.777 819.438 209.739 816.427 212.292C811.788 212.541 812.312 212.316 810.014 216.17C805.955 216.375 797.867 212.319 796.467 208.402C798.786 201.22 795.3 200.83 798.857 196.053C802.258 195.32 803.311 195.259 805.786 192.515Z" fill="#FAEFDD"/>
<path d="M851.722 259.091C852.98 258.433 854.5 258.514 855.688 259.302C856.869 260.09 857.533 261.461 857.413 262.879C857.293 264.296 856.416 265.537 855.115 266.115C853.185 266.974 850.93 266.146 850.011 264.248C849.091 262.35 849.855 260.066 851.722 259.091Z" fill="#F5F1ED"/>
<path d="M669.315 259.153C671.224 258.192 673.55 258.974 674.49 260.893C675.43 262.811 674.625 265.128 672.694 266.05C670.799 266.96 668.516 266.169 667.59 264.277C666.663 262.386 667.427 260.099 669.315 259.153Z" fill="#FAEFDD" fill-opacity="0.972549"/>
<path d="M669.286 158.76C670.58 158.149 672.107 158.312 673.246 159.185C674.377 160.058 674.928 161.492 674.674 162.9C674.412 164.308 673.387 165.453 672.015 165.865C670.106 166.438 668.07 165.441 667.356 163.578C666.642 161.714 667.483 159.615 669.286 158.76Z" fill="#F5F1ED"/>
<path d="M851.99 158.788C853.892 157.977 856.091 158.841 856.932 160.729C857.774 162.617 856.947 164.83 855.073 165.703C853.836 166.28 852.379 166.144 851.269 165.347C850.159 164.55 849.565 163.215 849.714 161.857C849.862 160.497 850.732 159.324 851.99 158.788Z" fill="#F5F1ED"/>
<path d="M660.441 160.626L661.028 159.891C661.24 182.227 661.318 204.42 660.922 226.759C660.71 239.069 660.752 251.555 661.382 263.849C661.82 272.519 668.699 271.448 674.653 273.666C672.319 273.768 669.965 273.9 667.632 273.875C665.242 273.85 662.711 273.615 661.035 271.7C658.158 268.412 659.36 183.042 659.741 172.202C660.307 169.523 660.342 163.625 660.441 160.626Z" fill="#0F0E0F" fill-opacity="0.0392157"/>
<path d="M659.543 160.791L660.441 160.626C660.342 163.625 660.307 169.523 659.741 172.203C659.558 168.566 659.593 164.47 659.543 160.791Z" fill="#9C9388" fill-opacity="0.505882"/>
<path d="M502.045 144.648L584.004 144.652C598.958 144.669 617.136 144.253 631.856 145.109C636.077 147.702 636.94 148.985 639.669 152.884L639.725 153.967C641.521 191.765 639.202 231.665 639.584 269.62C639.725 283.437 613.579 280.163 604.367 280.152L557.646 280.112L476.054 280.131C461.883 280.144 447.617 280.419 433.477 279.739C425.605 279.396 421.456 274.427 421.383 266.721C421.101 235.952 421.288 205.398 421.252 174.604C421.311 168.833 420.614 152.868 424.594 148.422C429.291 143.175 453.211 144.641 459.063 144.659L502.045 144.648Z" fill="#292929"/>
<path d="M596.066 151.373C603.405 150.987 627.006 149.5 632.5 153.32C634.656 160.02 634.797 264.793 632.535 271.682C627.161 275.794 612.872 274.05 605.731 273.888C603.858 268.154 597.954 243.625 593.57 241.404C589.731 239.454 474.111 239.46 466.162 241.455C461.152 246.619 457.281 266.298 454.256 274.027C449.179 274.021 441.726 274.214 436.84 273.934C424.767 274.014 427.443 264.003 427.773 254.974C427.518 251.092 427.32 235.873 427.62 232.687C428.917 218.857 424.798 160.59 430.064 152.445C435.1 150.227 467.338 150.841 474.059 151.342C499.422 151.104 524.79 151.041 550.159 151.153C564.738 151.177 581.622 150.842 596.066 151.373Z" fill="#FEB93C"/>
<path d="M474.06 151.342C499.422 151.104 524.79 151.041 550.159 151.153C564.738 151.177 581.622 150.842 596.066 151.373C582.781 153.385 557.314 152.878 543.088 152.859C521.001 152.828 495.788 153.745 474.06 151.342Z" fill="#FAEFDD"/>
<path d="M427.773 254.974C432.54 267.911 422.639 270.122 442.209 273.437L436.84 273.934C424.767 274.014 427.443 264.003 427.773 254.974Z" fill="#FAEFDD"/>
<path d="M478.809 186.049C489.314 184.501 501.932 195.807 499.316 206.755C495.943 209.164 496.092 209.17 496.523 213.06C492.628 220.079 490.664 214.26 484.664 220.858C480.085 221.096 469.416 217.243 467.246 213.255C468.241 207.152 465.311 208.941 463.764 204.999C462.427 201.59 466.211 198.886 467.775 195.91L466.725 193.804C470.53 187.16 473.791 191.261 478.809 186.049Z" fill="#292929"/>
<path d="M575.251 186.015C583.778 185.056 593.443 191.625 594.836 200.25C595.755 205.902 593.542 216.321 586.627 217.258C583.022 217.747 582.831 218.449 580.978 221.087C570.359 221.292 559.237 211.984 560.177 200.552C562.998 197.625 563.79 197.575 562.899 193.789C566.937 187.227 570.74 191.089 575.251 186.015Z" fill="#292929"/>
<path d="M620.155 158.067C622.41 156.951 625.146 157.819 626.348 160.032C627.55 162.245 626.794 165.011 624.623 166.297C623.145 167.174 621.314 167.173 619.836 166.295C618.359 165.417 617.482 163.802 617.546 162.086C617.616 160.37 618.613 158.828 620.155 158.067Z" fill="#292929"/>
<path d="M436.842 158.06C439.181 157.1 441.858 158.175 442.884 160.486C443.91 162.796 442.912 165.503 440.631 166.594C439.097 167.328 437.286 167.171 435.902 166.183C434.517 165.195 433.78 163.533 433.975 161.844C434.171 160.155 435.269 158.705 436.842 158.06Z" fill="#292929"/>
<path d="M436.466 258.414C438.726 257.301 441.462 258.19 442.636 260.419C443.81 262.648 442.995 265.406 440.799 266.641C439.324 267.469 437.516 267.431 436.077 266.542C434.638 265.653 433.796 264.053 433.876 262.363C433.957 260.673 434.949 259.162 436.466 258.414Z" fill="#292929"/>
<path d="M620.183 258.402C621.71 257.667 623.52 257.823 624.899 258.81C626.278 259.797 627.013 261.457 626.815 263.142C626.61 264.827 625.507 266.269 623.937 266.904C621.611 267.843 618.953 266.765 617.942 264.47C616.931 262.174 617.921 259.488 620.183 258.402Z" fill="#292929"/>
<path d="M468.396 244.726C473.84 244.523 480.192 244.445 485.655 244.574C520.838 245.401 556.904 243.438 591.994 244.764C595.175 253.743 598.11 264.788 600.634 274.016L589.774 274.034C546.404 273.666 502.731 274.685 459.375 273.835C460.967 267.852 465.65 249.518 468.396 244.726Z" fill="#FEB93C"/>
<path d="M576.262 260.53C578.433 259.224 581.247 259.898 582.583 262.044C583.927 264.19 583.297 267.015 581.169 268.388C579.769 269.296 577.98 269.377 576.503 268.599C575.018 267.821 574.071 266.306 574.021 264.634C573.972 262.963 574.834 261.394 576.262 260.53Z" fill="#292929"/>
<path d="M478.779 260.545C480.937 259.304 483.689 259.995 485.006 262.108C486.322 264.22 485.728 266.996 483.663 268.386C482.261 269.33 480.456 269.433 478.956 268.654C477.455 267.877 476.499 266.342 476.462 264.652C476.425 262.963 477.314 261.387 478.779 260.545Z" fill="#292929"/>
<path d="M498.658 257.768C500.051 256.862 501.833 256.791 503.297 257.583C504.76 258.374 505.672 259.901 505.672 261.564C505.679 263.227 504.774 264.759 503.318 265.559C501.175 266.734 498.489 266.004 497.237 263.908C495.979 261.811 496.608 259.098 498.658 257.768Z" fill="#292929"/>
<path d="M556.501 257.731C558.657 256.498 561.408 257.242 562.645 259.395C563.889 261.547 563.154 264.298 561.012 265.55C558.848 266.809 556.076 266.072 554.825 263.905C553.574 261.74 554.33 258.97 556.501 257.731Z" fill="#292929"/>
<path d="M199.41 0.317537C212.098 -0.191526 228.406 0.295614 241.452 0.287836L328.958 0.309046L371.685 0.226331C380.133 0.202999 389.55 -0.151931 397.91 0.934776C402.075 1.47636 404.092 4.55973 406.324 7.76753C407.946 18.9803 406.822 45.5633 407.034 58.1591C406.904 78.8892 407.258 99.6618 406.807 120.385C406.629 128.583 402.511 131.227 395.373 132.846C353.294 133.442 309.984 132.94 267.803 132.947L223.726 133.03C187.124 133.128 187.001 136.975 186.988 100.035L187.192 52.5297C187.19 39.8052 186.542 26.9776 186.948 14.2892C187.223 5.7235 191.507 1.68069 199.41 0.317537Z" fill="#292929"/>
<path d="M197.941 6.56415C238.864 5.90732 281.052 6.42204 322.104 6.42133L368.162 6.42487C376.313 6.42558 384.398 6.40153 392.55 6.58748C402.388 6.81161 400.839 14.3033 400.848 21.9081L400.829 88.5586C400.816 99.8619 401.255 112.55 399.888 123.685C399.314 128.369 375.336 126.78 371.78 126.728L369.226 117.957C366.913 110.892 365.381 103.753 362.794 96.7573C360.969 91.8208 355.908 91.381 351.139 91.3464C315.027 91.123 278.885 91.4588 242.774 91.2601C240.501 91.2474 235.576 91.9841 234.24 93.6054C230.005 98.7469 228.737 107.303 226.704 113.512C225.233 118.004 223.966 122.446 222.593 126.765C214.701 126.654 200.374 128.593 194.62 124.137C192.342 117.884 192.149 19.2236 193.626 10.4069C195.074 8.12952 195.552 8.02841 197.941 6.56415Z" fill="#F66630"/>
<path d="M247.491 36.3068C252.762 36.012 261.956 39.2043 265.016 43.5723C264.211 49.5693 266.505 47.4023 268.255 53.2311C267.57 58.0551 267.744 55.7502 264.536 60.1833C265.516 68.0914 257.852 65.0936 253.469 70.0188C244.604 71.7171 234.825 62.7046 233.916 54.0272C233.23 47.4808 237.472 50.4164 236.773 43.8396C239.959 37.431 242.695 42.0366 247.491 36.3068Z" fill="#292929"/>
<path d="M340.142 36.2559C350.3 35.9752 361.576 45.3851 359.378 56.4629C356.521 58.8399 355.847 58.9969 356.568 62.4755C354.125 68.5991 350.71 64.3456 345.691 70.2344C337.137 71.2116 327.292 63.6089 326.013 54.9633C325.268 49.9271 326.737 50.1046 329.41 46.3432L328.774 43.9279C332.304 37.3879 335.457 41.6364 340.142 36.2559Z" fill="#292929"/>
<path d="M386.687 110.701C388.987 109.414 391.896 110.241 393.175 112.546C394.455 114.852 393.618 117.758 391.308 119.029C389.009 120.294 386.12 119.462 384.847 117.168C383.574 114.874 384.397 111.982 386.687 110.701Z" fill="#292929"/>
<path d="M202.122 110.697C203.657 109.851 205.535 109.919 207.005 110.876C208.474 111.833 209.297 113.521 209.146 115.268C208.994 117.015 207.893 118.536 206.28 119.225C203.952 120.219 201.254 119.214 200.145 116.939C199.036 114.664 199.905 111.919 202.122 110.697Z" fill="#292929"/>
<path d="M387.78 13.1615C389.427 12.7344 391.178 13.2322 392.353 14.4638C393.529 15.6948 393.945 17.4659 393.442 19.0921C392.939 20.7182 391.595 21.9449 389.929 22.297C387.434 22.8245 384.974 21.2626 384.39 18.7802C383.806 16.2972 385.311 13.802 387.78 13.1615Z" fill="#292929"/>
<path d="M201.943 13.8353C203.375 12.9261 205.189 12.8645 206.68 13.6748C208.171 14.4858 209.105 16.0405 209.121 17.7381C209.137 19.435 208.231 21.0074 206.755 21.8452C204.55 23.0974 201.748 22.3621 200.442 20.188C199.136 18.0138 199.802 15.1949 201.943 13.8353Z" fill="#292929"/>
<path d="M237.266 96.1973C261.068 95.2895 287.427 96.5735 311.483 96.0156C318.853 95.8445 351.034 95.595 356.966 96.7644C360.978 101.228 365.166 120.309 366.846 126.747L358.044 126.785C314.887 126.694 270.815 127.331 227.776 126.658C229.531 120.106 234.347 100.874 237.266 96.1973Z" fill="#F66630"/>
<path d="M343.981 112.072C346.512 111.603 348.957 113.233 349.498 115.749C350.039 118.266 348.48 120.757 345.979 121.369C344.297 121.781 342.525 121.247 341.35 119.974C340.177 118.701 339.787 116.89 340.334 115.247C340.881 113.604 342.277 112.388 343.981 112.072Z" fill="#292929"/>
<path d="M248.739 112.101C250.409 111.727 252.151 112.287 253.29 113.565C254.43 114.842 254.789 116.636 254.227 118.253C253.667 119.871 252.274 121.057 250.587 121.354C248.062 121.8 245.642 120.146 245.14 117.631C244.638 115.116 246.236 112.66 248.739 112.101Z" fill="#292929"/>
<path d="M324.703 109.244C327.08 109.058 329.206 110.713 329.609 113.063C330.012 115.412 328.557 117.682 326.254 118.297C324.565 118.748 322.765 118.205 321.608 116.895C320.45 115.585 320.132 113.733 320.789 112.112C321.444 110.491 322.96 109.381 324.703 109.244Z" fill="#292929"/>
<path d="M267.28 109.943C269.435 108.659 272.223 109.357 273.52 111.503C274.817 113.65 274.138 116.442 271.999 117.753C269.841 119.075 267.019 118.388 265.711 116.222C264.402 114.056 265.106 111.239 267.28 109.943Z" fill="#292929"/>
<path d="M667.936 0.387539C691.24 0.445515 858.771 -1.12621 865.212 1.67575C867.616 2.72145 870.302 5.15718 871.264 7.62754C874.431 15.781 872.515 81.5286 872.487 95.3107C872.473 102.915 873.194 110.739 872.742 118.315C872.586 121.006 872.028 123.758 870.797 126.171C868.825 130.048 865.693 131.454 861.818 132.777C851.538 133.256 838.578 132.926 828.114 132.929L766.107 132.94L703.245 132.986C691.904 132.991 680.556 133.076 669.216 132.843C656.623 132.585 653.307 128.094 653.322 115.777C653.364 81.8234 652.784 47.8095 653.555 13.8742C653.781 3.69079 658.688 1.13416 667.936 0.387539Z" fill="#292929"/>
<path d="M664.663 6.66031C725.474 5.14019 787.438 7.79438 848.342 6.61435C852.521 6.53304 859.329 6.43264 863.183 7.66924C865.551 10.0625 866.301 13.9951 866.279 17.2969C866.018 50.2537 866.272 83.2226 866.11 116.178C866.096 118.747 865.58 122.078 864.632 124.447C859.789 128.391 843.167 126.805 836.146 126.598L833.381 118.169C831.607 111.695 828.46 96.7736 823.858 92.7244C816.455 90.447 705.748 90.3092 701.131 92.7421C696.995 94.9183 690.625 121.113 688.786 126.652C681.455 126.614 665.765 128.924 660.859 123.8C658.978 115.916 658.441 19.739 659.94 10.7915C661.474 8.33668 662.075 8.20941 664.663 6.66031Z" fill="#FAEFDD"/>
<path d="M712.896 36.2771C718.043 36.0572 727.228 39.4567 730.254 43.5214C729.257 51.6423 739.855 51.0357 729.667 60.5347C729.398 60.7835 730.777 62.3927 729.879 63.6293C726.146 68.7921 723.367 64.8985 719.005 70.0379C715.229 70.438 714.642 70.1305 711.065 68.5856L710.124 68.177C703.181 65.1891 698.261 58.0381 699.484 50.3513C704.857 45.2204 701.23 46.7765 702.573 43.158C704.037 39.229 708.965 41.8068 712.896 36.2771Z" fill="#292929"/>
<path d="M803.785 36.2383C813.662 35.8225 825.823 45.7245 823.2 56.5909C817.395 61.27 821.708 60.7051 819.969 63.775C817.544 68.0377 813.811 64.7337 809.342 70.3928C805.164 70.349 794.855 66.7057 792.699 63.0192C793.561 56.6107 790.542 59.127 789.241 53.6581C789.991 49.044 790.005 50.562 793.137 46.3403L792.508 43.9916C795.435 37.7117 797.627 42.8037 803.785 36.2383Z" fill="#292929"/>
<path d="M668.912 110.682C671.181 109.484 673.995 110.332 675.225 112.586C676.456 114.84 675.65 117.665 673.408 118.928C671.938 119.762 670.128 119.736 668.671 118.861C667.222 117.986 666.359 116.397 666.402 114.704C666.451 113.01 667.413 111.473 668.912 110.682Z" fill="#292929"/>
<path d="M668.707 13.8918C670.142 12.9883 671.952 12.9381 673.429 13.7603C674.907 14.5826 675.826 16.1473 675.812 17.8399C675.805 19.5332 674.872 21.0859 673.38 21.8898C671.181 23.0762 668.438 22.3062 667.179 20.1491C665.921 17.9919 666.593 15.2246 668.707 13.8918Z" fill="#292929"/>
<path d="M853.574 13.1C856.126 13.0144 858.262 15.016 858.347 17.5698C858.424 20.1229 856.423 22.2581 853.864 22.3359C851.319 22.413 849.191 20.4128 849.106 17.8654C849.028 15.3186 851.022 13.1862 853.574 13.1Z" fill="#292929"/>
<path d="M851.333 110.692C852.782 109.875 854.557 109.898 855.978 110.754C857.406 111.609 858.262 113.163 858.219 114.824C858.184 116.485 857.258 117.997 855.794 118.784C853.56 119.983 850.781 119.162 849.558 116.943C848.335 114.724 849.127 111.936 851.333 110.692Z" fill="#292929"/>
<path d="M703.167 96.1337C707.933 95.8799 713.631 95.9294 718.46 96.0192C752.667 96.6505 787.799 94.9275 821.934 96.2327C825.201 104.608 828.602 117.712 831.204 126.637L821.835 126.813L693.665 126.783C695.411 120.731 700.834 100.609 703.167 96.1337Z" fill="#FAEFDD"/>
<path d="M808.395 112.062C810.721 111.816 812.87 113.333 813.415 115.607C813.959 117.882 812.736 120.21 810.551 121.047C808.861 121.696 806.952 121.307 805.644 120.049C804.343 118.791 803.891 116.893 804.478 115.18C805.065 113.468 806.592 112.252 808.395 112.062Z" fill="#292929"/>
<path d="M713.03 112.761C715.215 111.432 718.057 112.113 719.408 114.287C720.751 116.461 720.094 119.314 717.93 120.675C715.738 122.053 712.854 121.385 711.489 119.187C710.132 116.99 710.817 114.104 713.03 112.761Z" fill="#292929"/>
<path d="M732.742 109.93C734.164 109.1 735.931 109.115 737.345 109.967C738.759 110.819 739.594 112.374 739.523 114.022C739.452 115.669 738.491 117.149 737.013 117.88C734.828 118.959 732.184 118.114 731.031 115.969C729.879 113.825 730.635 111.154 732.742 109.93Z" fill="#292929"/>
<path d="M788.598 109.289C790.945 108.857 793.229 110.33 793.795 112.649C794.367 114.968 793.038 117.331 790.754 118.041C789.156 118.54 787.41 118.108 786.222 116.922C785.034 115.736 784.603 113.99 785.105 112.388C785.6 110.786 786.95 109.593 788.598 109.289Z" fill="#363636"/>
<path d="M435.316 0.350761L569.652 0.3246L607.987 0.231269C615.538 0.207937 623.775 -0.0904256 631.241 0.899418C635.314 1.43888 637.498 4.8899 639.669 8.05033C639.916 11.5565 639.909 15.0966 639.895 18.6169C639.718 52.7764 640.439 86.9946 639.69 121.138C639.52 128.742 634.776 131.689 627.953 132.917L499.083 132.947L457.627 133.023C446.296 133.046 422.204 136.77 421.545 121.108C420.884 105.355 421.347 89.4402 421.357 73.6473L421.226 35.153C421.205 28.089 420.973 21.0088 421.433 13.9604C422.081 4.01248 426.092 1.38727 435.316 0.350761Z" fill="#292929"/>
<path d="M451.162 6.44252C457.936 6.38383 481.844 5.73761 487.54 6.53443L588.614 6.54291C601.249 6.62351 613.954 6.2 626.567 6.52029C630.477 6.61927 632.563 8.11253 633.815 11.8605C634.458 30.8061 633.815 50.4878 633.878 69.5804L634.027 105.761C634.02 109.562 634.196 118.949 633.723 122.358C629.671 128.021 626.101 126.883 619.61 126.68C617.517 127.071 608.277 126.815 605.625 126.788C603.052 119.614 598.06 95.8693 593.521 92.7619C585.404 90.8274 472.757 90.1444 465.838 93.0327C461.829 97.5025 456.516 119.415 454.232 126.701C449.329 126.822 443.533 127.124 438.721 126.709C433.555 126.873 427.868 126.628 427.825 119.868C427.605 85.3366 427.456 50.7706 427.781 16.2406C428.074 14.42 427.667 9.99889 429.167 8.88461C434.14 5.19249 445.107 6.41706 451.162 6.44252Z" fill="#6B8F8B"/>
<path d="M487.54 6.53451L588.614 6.54299C601.249 6.62359 613.954 6.20008 626.568 6.52036C630.477 6.61935 632.563 8.1126 633.815 11.8605L633.122 15.5413C631.128 10.5843 629.261 8.64004 623.761 8.42793C611.048 7.93796 598.102 8.26673 585.404 8.45055C562.256 8.72842 539.101 8.79489 515.945 8.64995C504.484 8.55874 486.388 8.67681 475.267 7.33416C475.805 6.92054 485.211 6.80529 487.055 6.5946L487.54 6.53451Z" fill="#C3BFB9"/>
<path d="M438.721 126.709C433.555 126.873 427.868 126.628 427.825 119.868C427.605 85.3366 427.456 50.7706 427.781 16.2406C428.074 14.42 427.667 9.99889 429.167 8.88461C434.14 5.19249 445.107 6.41706 451.162 6.44252C444.627 9.60507 436.44 6.06213 430.562 11.4101C429.743 14.6088 429.176 18.7279 429.166 22.0397C429.072 49.9009 429.564 77.7615 428.26 105.609C428.045 110.199 428.1 115.945 428.889 120.441C432.41 125.928 433.434 124.472 438.721 126.709Z" fill="#C3BFB9"/>
<path d="M633.369 69.4299L633.878 69.5805L634.027 105.761C634.02 109.562 634.196 118.949 633.723 122.358C633.489 120.106 633.27 117.85 633.072 115.593L632.309 115.839C631.849 114.604 631.736 78.1674 632.047 74.9058C632.316 76.0943 632.592 77.2737 632.768 78.4792L633.291 78.6071L633.369 69.4299Z" fill="#8DA4A3"/>
<path d="M632.047 74.9058C632.061 58.0169 631.199 43.4295 633.086 26.5753C633.383 40.858 633.482 55.1443 633.369 69.4298L633.291 78.6071L632.768 78.4791C632.592 77.2736 632.316 76.0943 632.047 74.9058Z" fill="#FAEFDD"/>
<path d="M632.309 115.839L633.072 115.593C633.27 117.85 633.489 120.106 633.723 122.358C629.671 128.021 626.101 126.883 619.61 126.68C627.883 123.536 631.135 126.573 632.309 115.839Z" fill="#FAEFDD"/>
<path d="M504.718 38.0822C521.135 38.0066 537.552 38.0299 553.962 38.1536C554.479 47.0926 554.274 58.8435 554.168 67.8928C537.998 67.5442 520.965 67.8716 504.732 67.9494L504.718 38.0822Z" fill="#292929"/>
<path d="M508.939 41.7673L549.925 41.7432C550.024 49.0737 550.053 56.4049 550.017 63.7361C536.35 64.0727 522.676 64.1031 509.009 63.8266C508.875 56.4742 508.854 49.1204 508.939 41.7673Z" fill="#6B8F8B"/>
<path d="M476.575 36.2765C481.238 36.0127 491.496 39.5083 493.708 43.8403C492.34 49.7772 495.639 48.4537 496.757 52.7835C498.171 55.3126 492.893 60.078 493.004 60.5898C494.657 68.2088 486.988 64.7585 482.42 70.004C473.434 70.9853 464.003 63.2709 462.691 53.994C462.002 49.1204 465.304 48.9705 465.39 47.5416C465.98 37.7336 471.378 42.673 476.575 36.2765Z" fill="#292929"/>
<path d="M576.347 36.8088C581.346 36.0113 587.999 39.2127 591.251 42.9586C594.461 46.5835 596.01 51.3829 595.529 56.1999C592.595 58.9248 592.1 58.9545 592.75 62.7272C588.798 68.9802 585.659 64.7401 581.318 69.9241C572.897 70.9302 563.96 63.0051 562.405 54.9399C560.962 47.4765 566.618 50.0431 565.013 43.9004C568.74 36.8937 570.196 42.6178 576.347 36.8088Z" fill="#292929"/>
<path d="M621.272 13.1332C622.941 12.8249 624.644 13.4386 625.726 14.7389C626.815 16.0384 627.119 17.8243 626.525 19.4109C625.931 20.9982 624.524 22.1415 622.849 22.4024C620.31 22.7983 617.921 21.0809 617.489 18.5462C617.058 16.0115 618.741 13.5998 621.272 13.1332Z" fill="#292929"/>
<path d="M620.282 110.621C621.83 109.923 623.633 110.119 624.998 111.134C626.362 112.149 627.069 113.823 626.85 115.508C626.624 117.194 625.507 118.626 623.923 119.251C621.555 120.185 618.875 119.059 617.885 116.715C616.895 114.372 617.956 111.666 620.282 110.621Z" fill="#292929"/>
<path d="M436.37 110.728C438.608 109.594 441.341 110.445 442.538 112.65C443.735 114.854 442.961 117.61 440.792 118.869C439.332 119.716 437.529 119.703 436.082 118.835C434.635 117.968 433.774 116.382 433.834 114.696C433.894 113.011 434.866 111.49 436.37 110.728Z" fill="#292929"/>
<path d="M437.843 13.1565C440.222 12.7564 442.509 14.2546 443.093 16.5955C443.676 18.9365 442.361 21.3319 440.072 22.0962C438.425 22.6463 436.609 22.2256 435.37 21.0081C434.131 19.7906 433.68 17.9813 434.202 16.3248C434.724 14.6682 436.131 13.4443 437.843 13.1565Z" fill="#292929"/>
<path d="M481.723 95.8382C518.024 96.6654 555.299 95.1163 591.527 96.0128C594.009 101.517 598.958 120.627 600.422 126.741C593.245 126.964 586.366 126.903 579.182 126.829C540.791 127.28 497.4 127.551 459.191 126.716C461.999 116.346 464.663 106.569 467.953 96.3239C472.361 96.0361 477.268 95.9838 481.723 95.8382Z" fill="#6B8F8B"/>
<path d="M478.843 112.775C481.005 111.544 483.754 112.263 485.035 114.394C486.317 116.526 485.665 119.291 483.564 120.624C482.16 121.515 480.384 121.575 478.922 120.781C477.462 119.987 476.545 118.464 476.529 116.801C476.513 115.139 477.398 113.597 478.843 112.775Z" fill="#292929"/>
<path d="M576.503 112.754C577.952 111.962 579.72 112.015 581.12 112.893C582.519 113.771 583.34 115.337 583.262 116.988C583.184 118.641 582.222 120.122 580.745 120.863C578.511 121.982 575.796 121.106 574.636 118.894C573.477 116.681 574.304 113.949 576.503 112.754Z" fill="#292929"/>
<path d="M498.864 109.934C500.299 109.16 502.038 109.223 503.417 110.098C504.796 110.973 505.587 112.524 505.495 114.152C505.411 115.781 504.442 117.233 502.978 117.948C500.772 119.025 498.114 118.139 496.99 115.957C495.873 113.774 496.707 111.097 498.864 109.934Z" fill="#292929"/>
<path d="M556.762 109.893C558.968 108.808 561.634 109.719 562.715 111.927C563.797 114.135 562.885 116.802 560.672 117.88C558.466 118.957 555.808 118.045 554.726 115.84C553.651 113.636 554.556 110.974 556.762 109.893Z" fill="#292929"/>
<path d="M198.012 290.131C240.834 289.039 287.133 290.062 330.256 290.006L370.874 289.918C379.774 289.897 390.293 289.472 399.086 290.919C402.079 291.412 404.779 295.635 406.375 298.058C406.845 301.555 406.901 305.463 406.896 309.006C406.847 341.848 407.209 374.714 406.747 407.549C406.635 415.527 403.95 418.262 396.816 420.733C386.331 421.295 372.836 420.969 362.219 420.969L301.118 420.94C267.572 420.899 234.033 421.205 200.484 420.892C191.586 421.15 187.031 415.109 187.069 406.516C187.223 372.28 187.086 337.939 187.224 303.698C187.256 295.734 190.761 292.291 198.012 290.131Z" fill="#292929"/>
<path d="M197.619 296.388C259.828 294.451 323.712 297.518 386.129 296.237C389.523 296.167 394.696 296.33 397.873 297.326C402.695 302.409 400.789 328.642 400.776 336.752L400.928 399.129C400.921 402.276 400.868 411.351 398.428 412.948C393.213 416.36 377.929 414.909 371.89 414.732L369.437 407.247C367.769 401.569 364.482 384.034 359.531 381.365C355.634 379.264 255.312 379.775 243.418 380.433C240.316 380.605 237.123 380.821 234.222 381.996C230.149 386.981 224.861 407.668 222.728 414.835C187.865 415.179 192.974 416.543 192.998 381.74L193.189 335.865C193.246 325.249 192.437 314.138 193.162 303.64C193.43 299.769 194.689 298.639 197.619 296.388Z" fill="#FAEFDD"/>
<path d="M248.06 324.754C256.567 324.342 266.735 331.581 267.825 340.086C268.456 345.013 266.805 344.86 264.391 348.299C265.914 355.837 258.24 352.88 253.393 358.679C252.387 358.7 250.798 358.703 249.849 358.461C244.228 357.007 239.397 353.414 236.388 348.448C234.358 345.035 233.388 342.624 234.362 338.747C236.141 337.057 236.329 336.89 237.589 334.816L236.993 332.378C240.072 326.322 242.592 331.249 248.06 324.754Z" fill="#292929"/>
<path d="M340.66 324.74C348.032 324.472 357.082 331.289 358.828 338.491C360.511 345.426 358.468 343.744 355.712 348.607L356.351 350.637C355.005 354.296 349.109 354.612 345.322 357.933L344.545 358.624C341.42 358.628 334.414 355.571 331.87 353.44C322.041 345.209 328.365 339.669 329.04 332.204C329.387 328.363 335.734 328.662 338.031 326.744C338.901 326.016 339.734 325.396 340.66 324.74Z" fill="#292929"/>
<path d="M388.286 398.424C390.804 398.066 393.15 399.776 393.579 402.283C394.008 404.789 392.366 407.182 389.872 407.683C388.195 408.019 386.468 407.417 385.362 406.112C384.257 404.807 383.948 403.004 384.556 401.406C385.164 399.807 386.593 398.665 388.286 398.424Z" fill="#292929"/>
<path d="M203.867 398.456C206.367 398.15 208.662 399.875 209.062 402.362C209.461 404.849 207.823 407.206 205.353 407.699C203.671 408.034 201.94 407.423 200.841 406.107C199.742 404.79 199.451 402.978 200.082 401.382C200.713 399.787 202.165 398.665 203.867 398.456Z" fill="#292929"/>
<path d="M386.04 303.739C388.172 302.266 391.096 302.81 392.556 304.951C394.016 307.093 393.453 310.014 391.302 311.459C389.17 312.892 386.282 312.335 384.836 310.214C383.39 308.092 383.927 305.2 386.04 303.739Z" fill="#292929"/>
<path d="M201.98 303.747C204.131 302.31 207.041 302.902 208.46 305.066C209.879 307.229 209.261 310.134 207.086 311.533C204.936 312.916 202.075 312.308 200.674 310.171C199.272 308.034 199.856 305.167 201.98 303.747Z" fill="#292929"/>
<path d="M237.608 384.817L311.064 384.701C318.719 384.697 351.327 384.024 356.984 385.834C360.665 389.676 365.257 408.537 366.964 414.77L356.105 414.824L227.641 414.827C229.495 408.892 234.338 388.339 237.608 384.817Z" fill="#FAEFDD"/>
<path d="M344.553 400.579C347.056 400.384 349.265 402.198 349.563 404.691C349.86 407.182 348.138 409.465 345.661 409.865C343.964 410.138 342.255 409.46 341.207 408.099C340.159 406.737 339.941 404.911 340.64 403.342C341.338 401.773 342.84 400.711 344.553 400.579Z" fill="#292929"/>
<path d="M249.147 400.583C251.509 400.256 253.734 401.773 254.292 404.091C254.851 406.409 253.561 408.773 251.309 409.558C249.641 410.14 247.787 409.723 246.528 408.483C245.268 407.243 244.824 405.396 245.379 403.718C245.935 402.041 247.396 400.825 249.147 400.583Z" fill="#292929"/>
<path d="M267.208 398.464C268.603 397.581 270.367 397.519 271.821 398.301C273.275 399.083 274.195 400.589 274.226 402.241C274.257 403.892 273.396 405.432 271.972 406.269C269.822 407.534 267.053 406.84 265.753 404.71C264.452 402.579 265.1 399.8 267.208 398.464Z" fill="#292929"/>
<path d="M322.708 398.42C324.15 397.521 325.973 397.504 327.431 398.375C328.89 399.247 329.739 400.861 329.631 402.555C329.522 404.251 328.475 405.743 326.918 406.423C324.741 407.372 322.2 406.479 321.095 404.378C319.989 402.276 320.693 399.676 322.708 398.42Z" fill="#292929"/>
<path d="M662.937 290.153C669.251 289.684 679.998 289.979 686.538 289.977L731.873 289.987C748.424 289.994 857.187 288.495 864.208 290.942C866.958 291.898 869.694 293.824 870.833 296.595C871.985 299.401 872.324 302.737 872.501 305.742C873.724 325.832 872.65 346.647 872.537 366.806C872.459 379.742 873.435 393.109 872.777 405.971C872.636 408.652 872.134 411.399 871.059 413.87C869.341 417.812 866.329 419.306 862.56 420.749C845.323 421.724 665.85 421.668 661.247 420.098C658.964 419.317 656.086 416.924 655.033 414.728C653.696 411.943 653.435 408.185 653.279 405.131C652.339 386.825 653.201 368.057 653.251 349.703C653.293 335.08 652.48 320.086 653.06 305.507C653.159 302.968 653.597 300.355 654.495 297.971C656.129 293.622 658.907 291.885 662.937 290.153ZM674.122 296.313C670.163 296.08 665.341 295.242 662.4 297.976C659.678 300.504 658.851 303.91 658.935 307.481C659.14 315.921 659.614 324.177 659.692 332.636C659.664 336.751 659.296 348.161 659.678 351.699C659.317 363.848 659.169 379.952 659.657 392.08C661.163 379.861 661.099 370.225 661.021 357.826C661.155 351.818 660.986 345.148 660.958 339.086C661.106 331.329 661.014 320.76 660.873 313.117C660.491 293.082 668.883 300.867 674.122 296.313Z" fill="#292929"/>
<path d="M674.123 296.313L800.646 296.207C811.477 296.203 856.713 295.454 863.642 297.476C867.46 302.624 866.562 326.871 866.06 334.035C867.227 358.401 865.763 384.115 866.06 408.613C866.117 412.823 863.147 414.092 859.64 415.119C856.452 414.632 840.883 414.718 836.768 414.662C834.937 408.612 828.566 384.332 824.805 381.76C813.676 378.866 777.851 380.557 764.559 380.328C754.074 380.149 707.827 379.24 700.346 381.915C696.684 385.957 690.695 407.987 688.405 414.848C685.159 414.904 681.907 414.991 678.662 415.109C656.864 415.758 659.105 411.477 659.657 392.08C661.163 379.861 661.099 370.225 661.021 357.826C661.156 351.818 660.986 345.148 660.958 339.086C661.106 331.329 661.014 320.76 660.873 313.117C660.491 293.082 668.883 300.867 674.123 296.313Z" fill="#F66630"/>
<path d="M859.64 415.119L858.41 414.136C859.937 412.88 863.494 410.427 864.052 408.645C867.269 398.388 861.535 339.35 866.06 334.035C867.227 358.401 865.763 384.115 866.06 408.613C866.117 412.823 863.147 414.092 859.64 415.119Z" fill="#F78D6A"/>
<path d="M713.462 324.707C721.953 324.122 731.689 330.657 733.407 339.162C735.139 347.733 729.434 344.125 730.911 350.731C728.606 356.025 724.004 352.794 719.585 358.331C709.622 359.049 698.501 349.165 700 338.597C704.037 335.259 702.835 331.107 706.971 328.228C711.383 328.179 711.093 328.208 713.462 324.707Z" fill="#292929"/>
<path d="M803.842 324.844C808.126 324.31 814.016 326.524 817.24 329.184C820.535 331.952 822.599 335.908 822.981 340.192C823.32 344.088 821.326 351.96 817.756 353.777C813.57 355.907 813.167 353.528 809.597 358.235C799.472 358.992 788.909 349.408 790.139 338.862C792.932 336.061 793.781 335.985 792.96 332.28C796.75 325.387 798.595 331.335 803.842 324.844Z" fill="#292929"/>
<path d="M852.775 398.478C855.264 397.886 857.781 399.363 858.481 401.828C859.181 404.293 857.809 406.869 855.377 407.671C853.708 408.22 851.87 407.811 850.597 406.605C849.318 405.398 848.809 403.588 849.261 401.892C849.714 400.195 851.064 398.885 852.775 398.478Z" fill="#292929"/>
<path d="M852.096 303.016C854.458 302.126 857.102 303.255 858.092 305.577C859.082 307.899 858.064 310.588 855.787 311.675C854.224 312.42 852.379 312.25 850.979 311.23C849.579 310.21 848.858 308.506 849.091 306.791C849.318 305.076 850.477 303.627 852.096 303.016Z" fill="#292929"/>
<path d="M668.367 399.171C670.552 397.798 673.43 398.438 674.823 400.607C676.215 402.775 675.607 405.662 673.451 407.075C671.266 408.507 668.332 407.883 666.918 405.686C665.511 403.489 666.161 400.562 668.367 399.171Z" fill="#292929"/>
<path d="M670.481 303.015C672.97 302.686 675.268 304.395 675.671 306.871C676.067 309.347 674.426 311.694 671.966 312.167C670.304 312.485 668.608 311.877 667.526 310.578C666.444 309.28 666.154 307.496 666.769 305.923C667.384 304.349 668.806 303.235 670.481 303.015Z" fill="#292929"/>
<path d="M703.471 384.845C716.212 384.745 816.511 383.353 821.991 386.068C825.83 390.684 830.002 408.041 832.066 414.901L820.619 414.88C778.565 414.172 735.889 415.292 693.672 414.658C695.326 408.505 700.254 388.687 703.471 384.845Z" fill="#F66630"/>
<path d="M714.741 400.571C717.258 400.17 719.641 401.859 720.094 404.372C720.546 406.886 718.906 409.3 716.403 409.805C714.741 410.14 713.023 409.549 711.913 408.259C710.81 406.969 710.485 405.183 711.072 403.588C711.659 401.993 713.059 400.839 714.741 400.571Z" fill="#292929"/>
<path d="M808.692 400.511C811.251 400.211 813.57 402.031 813.888 404.585C814.206 407.139 812.404 409.47 809.851 409.805C807.271 410.142 804.916 408.317 804.591 405.739C804.273 403.161 806.111 400.815 808.692 400.511Z" fill="#292929"/>
<path d="M734.51 397.764C736.15 397.527 737.784 398.196 738.787 399.511C739.791 400.827 740.004 402.582 739.339 404.098C738.681 405.615 737.246 406.653 735.599 406.811C733.138 407.047 730.939 405.275 730.642 402.818C730.346 400.362 732.064 398.118 734.51 397.764Z" fill="#292929"/>
<path d="M789.319 397.738C791.695 397.53 793.83 399.193 794.212 401.551C794.593 403.908 793.087 406.159 790.761 406.709C789.1 407.102 787.361 406.534 786.251 405.237C785.14 403.941 784.851 402.133 785.494 400.553C786.144 398.974 787.615 397.888 789.319 397.738Z" fill="#292929"/>
<path d="M659.692 332.636C659.614 324.177 659.141 315.921 658.936 307.481C658.851 303.91 659.678 300.504 662.4 297.976C665.341 295.242 670.163 296.08 674.123 296.313C668.884 300.867 660.491 293.082 660.873 313.117C661.014 320.76 661.106 331.329 660.958 339.086C660.689 336.83 660.194 334.844 659.692 332.636Z" fill="#F78D6A" fill-opacity="0.941176"/>
<path d="M659.678 351.699C660.279 353.913 660.781 355.505 661.021 357.826C661.099 370.225 661.163 379.861 659.657 392.08C659.169 379.952 659.317 363.848 659.678 351.699Z" fill="#F5CABA" fill-opacity="0.980392"/>
<path d="M659.692 332.636C660.194 334.844 660.689 336.83 660.957 339.086C660.986 345.148 661.155 351.818 661.021 357.826C660.781 355.505 660.279 353.913 659.678 351.699C659.296 348.161 659.664 336.751 659.692 332.636Z" fill="#F4BDAD" fill-opacity="0.854902"/>
<path d="M431.94 290.077C445.351 289.483 462.84 289.988 476.48 289.986L562.8 289.971L606.361 289.975C614.145 289.977 623.52 289.642 631.213 290.683C634.967 291.192 637.725 295.471 639.711 298.458C640.249 309.697 641.359 408.002 638.63 414.363C637.081 417.969 633.61 419.395 630.216 420.745C565.982 422.339 500.801 420.065 436.476 421.017C431.779 421.087 422.706 418.775 422.271 413.128C419.511 377.298 422.417 340.622 421.123 304.587C420.853 296.945 425.183 292.478 431.94 290.077Z" fill="#292929"/>
<path d="M599.46 296.313C604.748 295.635 611.232 295.814 616.542 296.34C624.199 296.086 630.866 293.984 633.871 302.153C634.14 307.407 634.338 319.646 634.097 324.972V381.506C634.076 387.518 634.288 404.747 633.631 410.196C630.081 416.372 625.139 415.05 618.656 414.902C615.729 415.197 608.927 414.915 605.71 414.873C602.33 405.804 600.556 396.11 597.056 387.078C596.299 385.107 595.303 382.389 593.181 381.617C586.33 379.114 486.814 379.764 474.61 380.463C471.564 380.637 468.337 380.891 465.506 382.099C461.767 386.362 456.616 407.594 454.089 414.769C431.359 415.985 424.935 415.544 427.769 389.645L427.634 360.288L427.588 321.986C427.583 315.419 427.425 308.672 427.897 302.138C428.45 294.501 439.518 296.168 444.895 296.347C449.629 295.821 477.329 295.723 481.463 296.318C520.018 296.176 560.997 295.606 599.46 296.313Z" fill="#6B8F8B"/>
<path d="M481.463 296.318C520.018 296.176 560.997 295.606 599.46 296.313C594.299 299.693 491.555 298.085 481.392 297.303L481.463 296.318Z" fill="#C3BFB9"/>
<path d="M427.769 389.645L427.634 360.288L427.588 321.986C427.583 315.419 427.425 308.672 427.897 302.138C428.45 294.501 439.518 296.168 444.895 296.347C440.852 298.811 430.998 297.281 430.247 301.96C427.91 316.515 429.235 338.508 429.223 352.872C429.297 365.146 428.812 377.416 427.769 389.645Z" fill="#FAEFDD"/>
<path d="M632.196 401.513C632.641 387.791 630.718 333.644 634.097 324.972V381.506C634.076 387.518 634.288 404.746 633.631 410.196C633.341 407.175 633.348 404.203 633.009 400.931L632.196 401.513Z" fill="#8DA4A3"/>
<path d="M632.195 401.513L633.009 400.931C633.348 404.204 633.341 407.175 633.631 410.196C630.081 416.372 625.139 415.05 618.656 414.902C626.73 410.279 631.792 416.896 632.195 401.513Z" fill="#FAEFDD"/>
<path d="M616.542 296.34C624.199 296.086 630.866 293.984 633.871 302.153L633.171 303.049L632.605 302.466C624.397 294.08 623.852 300.476 616.542 296.34Z" fill="#FAEFDD"/>
<path d="M477.698 324.645C482.67 324.383 491.627 327.725 494.572 331.764C494.204 342.651 502.71 336.41 494.282 348.314L494.777 350.736C492.113 356.535 488.878 351.982 483.785 358.316C482.178 358.4 480.348 358.6 478.862 357.981C477.133 357.264 475.422 356.504 473.731 355.7C464.662 351.279 460.129 340.97 467.11 334.478C467.345 334.258 465.969 332.421 466.783 331.426C471.11 326.14 472.895 330.151 477.698 324.645Z" fill="#292929"/>
<path d="M574.113 324.643C579.189 324.378 587.667 327.743 590.728 331.81C590.65 333.937 590.665 334.074 591.046 336.171C594.122 339.893 594.412 339.674 593.627 344.221C590.481 346.612 590.177 346.755 590.721 350.461C588.289 356.654 585.037 351.662 579.826 358.143C570.189 358.567 557.986 349.385 559.661 338.848C562.546 336.097 563.274 336.126 562.786 332.333C566.102 325.806 568.831 330.776 574.113 324.643Z" fill="#292929"/>
<path d="M436.314 399.155C438.552 397.975 441.324 398.809 442.539 401.029C443.753 403.249 442.961 406.033 440.759 407.281C439.305 408.106 437.519 408.082 436.088 407.22C434.655 406.359 433.798 404.792 433.845 403.122C433.892 401.451 434.836 399.935 436.314 399.155Z" fill="#292929"/>
<path d="M620.947 303.012C623.322 302.349 625.804 303.667 626.582 306.01C627.359 308.353 626.164 310.894 623.867 311.787C622.276 312.405 620.466 312.096 619.172 310.983C617.878 309.87 617.298 308.134 617.673 306.466C618.041 304.799 619.299 303.471 620.947 303.012Z" fill="#292929"/>
<path d="M619.943 399.173C622.142 397.911 624.948 398.666 626.214 400.861C627.48 403.056 626.737 405.863 624.545 407.136C622.34 408.413 619.525 407.662 618.253 405.459C616.98 403.256 617.737 400.439 619.943 399.173Z" fill="#292929"/>
<path d="M437.641 303.048C440.018 302.539 442.379 303.974 443.022 306.319C443.664 308.663 442.364 311.102 440.06 311.875C438.448 312.416 436.67 312.021 435.439 310.849C434.209 309.678 433.728 307.921 434.189 306.285C434.651 304.649 435.979 303.403 437.641 303.048Z" fill="#292929"/>
<path d="M468.84 384.767C485.178 384.762 582.484 383.087 590.954 385.913C594.405 389.999 599.036 408.709 600.803 414.901L589.632 415.044L458.804 414.943C460.502 408.923 465.856 388.255 468.84 384.767Z" fill="#6B8F8B"/>
<path d="M478.694 401.263C480.841 399.915 483.672 400.533 485.062 402.654C486.452 404.773 485.891 407.616 483.799 409.048C482.408 410 480.612 410.126 479.101 409.378C477.591 408.629 476.603 407.123 476.519 405.439C476.434 403.757 477.267 402.159 478.694 401.263Z" fill="#292929"/>
<path d="M576.008 401.271C578.164 399.933 580.992 400.574 582.364 402.71C583.729 404.847 583.128 407.686 581.014 409.084C579.614 410.007 577.832 410.106 576.34 409.344C574.855 408.582 573.887 407.078 573.816 405.405C573.752 403.734 574.587 402.154 576.008 401.271Z" fill="#292929"/>
<path d="M498.793 398.474C500.242 397.6 502.066 397.606 503.509 398.49C504.958 399.374 505.792 400.989 505.679 402.681C505.566 404.374 504.527 405.863 502.971 406.546C500.772 407.513 498.199 406.605 497.096 404.471C495.986 402.337 496.728 399.712 498.793 398.474Z" fill="#292929"/>
<path d="M556.586 398.443C558.728 397.287 561.407 398.058 562.609 400.178C563.818 402.299 563.104 404.993 561.019 406.245C559.619 407.082 557.879 407.096 556.465 406.283C555.058 405.47 554.196 403.957 554.224 402.329C554.245 400.702 555.15 399.214 556.586 398.443Z" fill="#292929"/>
<path d="M0.615787 442.712C7.99224 442.762 25.1844 441.253 31.3738 443.577C35.8641 445.263 61.9995 500.622 66.195 509.231C73.5439 494.775 80.815 480.279 88.0084 465.744C91.236 459.281 96.1838 448.596 99.8646 442.704C105.621 442.766 125.272 442.317 129.674 443.409C131.265 445.162 131.38 446.349 129.619 448.312C123.725 454.88 124.351 465.663 124.344 474.596L124.407 510.329C124.428 516.36 124.278 522.816 124.683 528.814C124.914 532.221 130.028 541.986 129.913 544.915C127.663 546.297 98.1613 547.57 95.686 543.714C96.2255 540.876 98.3126 538.656 100.111 536.255C100.905 526.652 100.761 517.027 100.65 507.405C100.758 497.484 100.965 487.631 100.458 477.719C90.215 495.109 76.2504 525.473 66.9565 544.374C63.34 544.452 59.5468 544.397 55.9134 544.401C49.5367 529.672 41.0693 515.047 34.3815 500.375C31.1673 493.323 27.2143 485.288 23.3603 478.616C24.319 496.086 22.9537 513.883 23.8828 531.399C24.2066 537.504 29.7158 541.28 27.6081 545.216C24.0199 546.104 3.15544 546.759 0.439029 545.358C-1.77681 540.048 5.10048 538.799 5.40238 534.339C7.13178 508.762 6.59373 482.047 5.99063 456.397C5.86124 450.902 -1.95003 450.198 0.615787 442.712Z" fill="#292929"/>
<path d="M609.507 442.772C618.649 442.51 629.438 442.724 638.559 442.866C641.825 448.236 647.206 460.043 650.147 466.008C657.352 480.359 664.358 494.805 671.174 509.344C679.595 489.569 693.834 463.359 703.422 442.864C708.173 442.803 712.967 442.53 717.697 442.501C722.483 442.472 731.13 440.849 733.032 446.196C732.53 448.995 730.734 450.356 728.698 452.491C724.852 474.579 728.924 507.157 727.574 530.034C727.319 534.346 732.403 539.999 732.339 544.824L731.215 545.804C728.373 546.271 702.269 546.382 700.601 545.656C697.836 541.303 702.234 540.268 703.068 536.985C704.808 530.155 704.129 518.105 704.044 510.885C703.959 499.95 704.009 489.013 704.185 478.078C692.929 499.617 682.734 522.605 671.598 544.399C668.304 544.47 664.804 544.41 661.488 544.411C650.995 523.361 640.517 500.973 630.456 479.659C631.05 497.133 630.032 515.394 630.774 532.898C630.887 535.665 634.861 540.2 635.229 544.44C632.931 546.809 612.264 546.754 609.21 545.243C607.294 540.38 612.971 538.838 613.318 535.115C615.672 509.877 614.138 483.176 614.103 457.738C614.095 452.129 607.152 449.631 609.507 442.772Z" fill="#3E666A"/>
<path d="M456.826 476.823C509.066 473.042 492.916 571.976 438.11 541.033C438.036 549.375 437.892 556.384 438.702 564.702C440.593 567.093 441.939 568.431 442.895 571.336C442.354 573.627 442.932 572.695 441.033 574.186C436.309 574.133 413.118 575.042 410.947 572.789C411.052 568.416 415.065 564.195 415.244 560.471C416.081 543.096 415.538 525.604 415.668 508.208C415.712 502.262 415.801 495.679 414.841 489.819L414.667 488.802C412.836 486.897 411.605 486.017 411.009 483.474C412.976 477.342 431.264 477.077 436.759 477.785C438.084 480.035 437.839 482.914 437.932 485.653C445.167 479.719 447.679 477.964 456.826 476.823ZM438.451 525.947C440.862 529.748 443.232 532.893 447.944 534.087C450.381 534.681 452.933 534.601 455.329 533.857C469.729 524.291 469.755 488.142 447.389 490.052C434.572 497.32 438.012 512.936 438.451 525.947Z" fill="#292929"/>
<path d="M771.827 476.276C791.398 473.269 809.724 486.643 812.821 506.201C815.925 525.758 802.64 544.145 783.097 547.341C763.421 550.558 744.882 537.161 741.757 517.47C738.639 497.779 752.122 479.304 771.827 476.276ZM779.916 535.549C782.666 533.937 783.797 533.316 785.565 530.456C791.327 521.096 791.716 490.355 777.816 487.471C776.847 487.264 775.864 487.154 774.874 487.143C770.045 489.916 768.073 492.684 766.871 498.132C764.46 509.012 763.329 536.006 779.916 535.549Z" fill="#3E666A"/>
<path d="M913.778 476.857C949.363 474.96 950.579 491.622 949.313 522.167C948.91 531.845 948.401 531.768 956.49 535.829C958.003 540.009 953.958 544.929 950.049 545.888C940.2 548.305 931.56 547.767 927.918 536.92C916.366 548.091 900.394 552.164 887.872 539.917C887.625 539.543 887.391 539.164 887.165 538.778C884.683 534.518 883.305 527.437 884.775 522.776C890.262 505.45 918.982 506.47 926.243 502.471C929.311 496.147 923.903 485.896 915.383 486.293C907.931 489.298 912.123 502.686 901.709 504.345C890.863 506.073 882.817 494.791 890.7 486.427C896.993 479.747 904.933 477.574 913.778 476.857ZM913.29 533.433C917.461 533.254 920.367 533.096 923.542 529.73C926.823 526.244 929.573 517.62 926.42 513.583C925.649 513.551 924.242 513.445 923.542 513.479C917.341 514.712 912.095 516.137 908.376 521.718C905.131 526.598 908.843 531.298 913.29 533.433Z" fill="#3E666A"/>
<path d="M361.328 476.885C397.038 473.233 397.538 496.445 395.945 523.528C395.098 537.938 400.705 531.69 404.152 536.123C405.673 546.805 387.336 549.351 380.358 544.967C376.171 542.337 376.183 540.929 374.888 536.568C363.33 547.287 347.897 552.184 335.023 540.482C322.082 521.759 339.316 508.762 356.765 506.153C362.226 505.337 368.083 504.2 373.529 503.218C373.56 497.724 374.092 491.628 368.882 488.265C366.06 486.445 365.112 485.576 361.699 486.078C355.935 489.119 356.724 496.102 353.113 500.762C344.746 511.561 327.129 497.286 336.54 486.901C343.128 479.63 351.946 477.731 361.328 476.885ZM358.886 533.274C363.024 533.36 366.377 533.583 369.606 530.395C372.754 527.279 374.458 522.99 374.304 518.563C374.246 516.296 374.152 515.7 373.235 513.716C371.679 513.17 371.697 513.285 370.027 513.474C364.02 514.6 351.911 517.958 353.399 527.124C353.795 529.562 356.716 532.079 358.886 533.274Z" fill="#292929"/>
<path d="M529.131 476.777C545.634 475.788 566.54 484.291 564.723 506.602C563.734 518.733 529.245 509.864 521.722 514.418C520.789 514.985 520.994 515.758 520.838 516.878C528.382 538.341 542.798 534.162 557.83 525.49C559.145 524.732 561.726 526.66 562.864 527.402C565.126 546.472 524.26 552.943 510.339 540.448C485.887 518.505 495.767 481.575 529.131 476.777ZM520.251 503.406L533.211 503.448C535.565 503.451 540.034 503.777 541.886 502.773C546.065 496.407 538.669 487.951 531.931 486.548C522.832 489.247 522.082 495.145 520.251 503.406Z" fill="#292929"/>
<path d="M189.329 477.554C195.786 477.755 216.373 477.279 220.932 478.754C222.03 482.543 218.133 484.958 222.846 490.21C224.03 491.53 227.261 496.502 228.509 498.253C230.22 496.154 231.908 494.037 233.573 491.903C240.378 483.082 232.89 482.979 236.705 478.214C239.251 477.616 258.825 477.429 261.67 478.417L262.291 479.702C261.686 486.086 257.142 484.446 253.68 488.172C247.624 494.689 241.807 501.608 235.987 508.354C246.038 521.597 253.277 530.486 263.733 542.963L263.226 544.911C260.709 546.424 260.128 545.935 256.925 545.998C251.567 545.801 232.45 546.926 229.501 544.892C228.892 542.393 229.904 540.32 230.704 537.761C227.486 532.95 223.973 528.164 220.599 523.449C216.937 528.184 209.316 536.123 211.068 542.69C211.394 543.911 211.59 544.304 211.082 545.467C206.851 546.501 194.012 545.733 188.954 545.902C187.039 545.965 186.213 544.988 185.284 543.736C187.037 541.052 194.101 534.21 196.724 531.407C202.204 525.462 207.548 519.394 212.754 513.208C206.476 504.61 199.957 495.276 193.114 487.098C190.346 483.79 186.865 485.346 186.316 480.035C187.527 478.018 186.955 478.689 189.329 477.554Z" fill="#292929"/>
<path d="M844.934 476.817C854.684 476.232 866.845 477.1 872.714 486.223C875.952 491.541 875.471 497.386 869.482 500.01C860.743 503.836 857.392 498.929 854.182 491.766C852.768 488.601 852.019 486.943 848.484 485.896C844.27 486.549 841.505 488.834 841.265 493.178C843.859 503.285 875.485 506.913 876.107 522.951C876.729 539.303 866.824 545.735 851.842 546.753C851.1 546.81 850.35 546.849 849.608 546.87C841.258 547.145 829.464 546.495 823.073 540.285C816.405 533.399 819.234 521.057 830.376 521.424C840.169 521.747 840.204 547.022 852.846 534.256C856.035 530.189 852.422 526.099 848.922 523.816C839.808 517.879 823.221 513.891 821.355 501.251C820.054 492.475 824.656 484.222 832.335 480.161C837.058 477.664 839.667 477.465 844.934 476.817Z" fill="#3E666A"/>
<path d="M1034.02 476.834C1044.54 476.348 1055.03 477.359 1060.96 487.59C1064.57 494.007 1063.1 500.616 1056.46 503.285C1041.23 509.416 1042.37 499.709 1039.4 489.062C1038.55 485.999 1033.07 487.091 1030.92 489.039C1021.88 497.142 1022.59 517.731 1030.08 526.722C1038.07 536.295 1047.8 533.059 1055.6 525.891C1057.11 524.153 1058.76 524.305 1060.67 524.911C1061.49 525.899 1062.23 526.427 1062.32 527.684C1062.23 539.58 1052.99 544.359 1042.8 546.379C1001 554.67 987.132 500.473 1019.95 480.665C1024.38 477.993 1028.56 477.399 1034.02 476.834Z" fill="#3E666A"/>
<path d="M292.117 456.128C295.447 455.925 299.452 456.075 302.841 456.12C303.36 461.934 303.176 471.432 303.23 477.537C309.563 477.714 315.897 477.851 322.232 477.948C322.298 481.181 322.941 484.147 321.344 486.759C317.588 490.056 309.246 488.604 303.227 488.564C303.13 498.109 303.007 507.663 302.992 517.212C302.985 521.826 302.519 529.371 306.792 532.335C312.235 536.111 318.416 527.975 323.161 531.421C325.092 536.522 322.772 538.713 319.368 542.239C310.674 548.015 293.079 549.646 286.266 541.664C277.586 531.493 280.655 501.991 280.761 488.559C276.239 488.696 272.747 489.047 268.818 486.537C266.854 479.539 281.867 476.07 285.243 471.928C288.105 468.417 290.288 460.654 292.117 456.128Z" fill="#292929"/>
<path d="M166.446 478.776C169.212 478.845 168.674 478.405 170.451 479.792C172.361 485.065 171.487 528.099 171.78 537.304C173.908 540.132 175.024 540.928 174.342 544.372C170.51 547.811 156.384 545.979 148.468 546.688C145.44 546.222 144.222 546.281 143.628 543.113C144.412 540.294 145.523 539.386 147.438 537.177C148.392 526.038 149.367 502.985 147.337 492.319C144.778 489.74 143.102 488.998 144.306 485.257C147.868 481.844 160.243 480.32 166.446 478.776Z" fill="#F66630"/>
<path d="M986.828 478.154C988.617 477.958 988.568 477.827 990.13 478.635C992.011 483.413 990.816 527.248 991.375 537.012C993.687 539.9 995.786 541.245 993.948 544.806C990.038 547.029 974.879 546.07 968.212 546.506C965.617 546.07 965.214 546.027 964.224 543.812C964.613 541.004 966.353 539.159 968.064 536.79C969.244 526.065 968.375 508.269 968.58 497.1C968.665 492.616 963.51 488.627 963.984 484.741C966.416 482.239 981.921 479.375 986.828 478.154Z" fill="#3E666A"/>
<path d="M157.415 450.506C174.444 449.999 178.756 467.849 161.979 473.973C155.22 474.157 148.471 472.619 146.42 465.092C145.575 462.049 146.109 458.788 147.881 456.173C150.342 452.534 153.431 451.411 157.415 450.506Z" fill="#F66630"/>
<path d="M974.809 447.024C981.129 446.464 987.224 446.693 990.894 452.917C992.477 455.565 992.803 458.778 991.777 461.689C990.144 466.449 987.472 467.848 983.413 470.011C977.446 470.767 971.733 470.464 968.021 464.87C966.331 462.329 965.815 459.182 966.607 456.233C967.88 451.343 970.828 449.328 974.809 447.024Z" fill="#3E666A"/>
<path d="M976.831 610.504C983.732 610.327 1022.58 609.635 1026.62 611.317L1026.92 612.618L1025.79 613.488C1018.94 613.566 977.913 614.181 975.672 612.993V611.593L976.831 610.504Z" fill="#0F0E0F"/>
<path d="M43.6052 609.25C50.7038 609.215 91.11 608.204 94.006 610.516L93.7712 612.156C82.0861 612.573 54.7629 612.92 43.5663 612.099L43 611.025L43.6052 609.25Z" fill="#0F0E0F"/>
<path d="M112.244 609.542C112.244 603.286 117.718 598.56 123.838 598.56C126.762 598.56 130.638 600.124 130.638 603.558C130.638 604.51 130.366 605.156 129.312 605.156C126.694 605.156 125.504 601.926 122.444 601.926C118.296 601.926 115.406 605.292 115.406 609.338C115.406 613.792 118.704 617.396 123.26 617.396C127.51 617.396 128.258 613.282 131.284 613.282C131.862 613.282 132.44 613.316 132.44 614.098C132.44 617.94 125.878 620.116 122.818 620.116C116.97 620.116 112.244 615.39 112.244 609.542ZM144.593 618.858C144.593 618.79 144.627 618.552 144.627 618.518C146.599 614.268 149.047 598.968 153.909 598.968C154.657 598.968 155.269 599.036 155.711 599.682C157.173 601.858 157.513 604.986 158.669 607.4C159.383 608.862 162.715 615.696 163.429 617.158C163.701 617.6 163.667 618.008 163.667 618.518C163.667 619.436 163.293 619.674 162.375 619.674C159.553 619.674 160.029 614.846 153.569 614.846C148.129 614.846 148.333 619.674 145.783 619.674C145.205 619.674 144.593 619.504 144.593 618.858ZM151.189 609.542C151.189 611.242 151.903 612.636 153.739 612.636C154.827 612.636 156.119 612.296 156.391 611.038C156.425 610.834 156.425 609.95 156.425 609.78C156.425 607.876 155.575 604.884 153.603 604.884C151.903 604.884 151.189 608.012 151.189 609.542ZM176.693 616.07C176.693 615.424 176.897 615.084 177.577 615.084C179.719 615.084 181.113 617.396 183.527 617.396C185.465 617.396 187.403 616.478 187.403 614.302C187.403 608.794 176.489 611.514 176.489 604.782C176.489 600.566 180.331 598.322 184.207 598.322C186.485 598.322 189.885 598.968 189.885 601.858C189.885 602.504 189.647 603.354 188.865 603.354C186.927 603.354 185.635 601.042 183.527 601.042C181.623 601.042 180.093 602.164 180.093 604.102C180.093 610.12 191.007 607.502 191.007 614.2C191.007 618.178 187.199 620.116 183.629 620.116C181.181 620.116 176.693 619.3 176.693 616.07ZM204.46 616.07C204.46 615.424 204.664 615.084 205.344 615.084C207.486 615.084 208.88 617.396 211.294 617.396C213.232 617.396 215.17 616.478 215.17 614.302C215.17 608.794 204.256 611.514 204.256 604.782C204.256 600.566 208.098 598.322 211.974 598.322C214.252 598.322 217.652 598.968 217.652 601.858C217.652 602.504 217.414 603.354 216.632 603.354C214.694 603.354 213.402 601.042 211.294 601.042C209.39 601.042 207.86 602.164 207.86 604.102C207.86 610.12 218.774 607.502 218.774 614.2C218.774 618.178 214.966 620.116 211.396 620.116C208.948 620.116 204.46 619.3 204.46 616.07ZM233.621 619.64C233.009 619.47 232.533 618.926 232.465 618.28C232.465 617.668 232.465 614.812 232.465 614.2C232.465 613.18 232.465 610.324 232.465 610.12C232.499 608.828 232.839 602.81 232.941 601.518C233.043 600.498 233.451 599.07 234.743 599.002C238.449 599.002 242.155 599.036 245.861 599.24C246.371 599.41 246.779 599.818 246.779 600.396C246.779 600.702 245.997 601.62 245.623 601.62H239.265C237.735 602.232 236.103 602.674 236.103 604.68C236.103 609.134 243.515 608.216 246.065 608.318C246.235 608.42 246.745 608.93 246.745 609.202C246.745 609.984 245.929 610.766 245.181 610.8C244.127 610.766 242.903 610.63 241.611 610.63C239.707 610.63 237.769 610.936 236.545 612.398C236.477 612.466 236.341 612.772 236.341 612.84V615.322C236.341 616.92 239.503 617.362 240.421 617.362C240.829 617.362 244.093 617.158 244.501 617.158C244.569 617.124 245.317 617.124 245.555 617.124C246.337 617.124 247.221 617.362 247.221 618.348C247.221 619.028 246.745 619.674 246.065 619.878C245.453 619.878 242.529 619.878 241.883 619.878C238.823 619.878 236.647 619.912 233.621 619.64ZM265.751 617.6C265.751 617.226 265.717 615.492 265.717 615.118C265.717 612.466 265.989 609.814 265.989 607.162C265.989 606.822 265.989 605.258 265.955 604.918C265.445 600.226 259.835 602.3 259.835 600.328C259.835 599.682 260.379 599.172 260.991 599.002C261.195 599.002 262.249 599.002 262.453 599.002C266.295 599.002 270.035 599.342 273.911 599.24C274.013 599.342 274.489 599.818 274.591 599.92C274.591 599.92 274.591 599.988 274.591 600.022C274.591 601.79 270.375 601.858 269.355 603.558C267.961 605.904 268.437 609.338 268.437 611.956C268.437 613.996 268.709 616.036 268.709 618.11C268.709 618.79 268.335 619.436 267.587 619.436C266.465 619.436 265.989 618.586 265.751 617.6ZM291.825 617.6C291.825 617.226 291.791 615.492 291.791 615.118C291.791 612.466 292.063 609.814 292.063 607.162C292.063 606.822 292.063 605.258 292.029 604.918C291.519 600.226 285.909 602.3 285.909 600.328C285.909 599.682 286.453 599.172 287.065 599.002C287.269 599.002 288.323 599.002 288.527 599.002C292.369 599.002 296.109 599.342 299.985 599.24C300.087 599.342 300.563 599.818 300.665 599.92C300.665 599.92 300.665 599.988 300.665 600.022C300.665 601.79 296.449 601.858 295.429 603.558C294.035 605.904 294.511 609.338 294.511 611.956C294.511 613.996 294.783 616.036 294.783 618.11C294.783 618.79 294.409 619.436 293.661 619.436C292.539 619.436 292.063 618.586 291.825 617.6ZM314.498 619.64C313.886 619.47 313.41 618.926 313.342 618.28C313.342 617.668 313.342 614.812 313.342 614.2C313.342 613.18 313.342 610.324 313.342 610.12C313.376 608.828 313.716 602.81 313.818 601.518C313.92 600.498 314.328 599.07 315.62 599.002C319.326 599.002 323.032 599.036 326.738 599.24C327.248 599.41 327.656 599.818 327.656 600.396C327.656 600.702 326.874 601.62 326.5 601.62H320.142C318.612 602.232 316.98 602.674 316.98 604.68C316.98 609.134 324.392 608.216 326.942 608.318C327.112 608.42 327.622 608.93 327.622 609.202C327.622 609.984 326.806 610.766 326.058 610.8C325.004 610.766 323.78 610.63 322.488 610.63C320.584 610.63 318.646 610.936 317.422 612.398C317.354 612.466 317.218 612.772 317.218 612.84V615.322C317.218 616.92 320.38 617.362 321.298 617.362C321.706 617.362 324.97 617.158 325.378 617.158C325.446 617.124 326.194 617.124 326.432 617.124C327.214 617.124 328.098 617.362 328.098 618.348C328.098 619.028 327.622 619.674 326.942 619.878C326.33 619.878 323.406 619.878 322.76 619.878C319.7 619.878 317.524 619.912 314.498 619.64ZM341.834 616.07C341.834 615.424 342.038 615.084 342.718 615.084C344.86 615.084 346.254 617.396 348.668 617.396C350.606 617.396 352.544 616.478 352.544 614.302C352.544 608.794 341.63 611.514 341.63 604.782C341.63 600.566 345.472 598.322 349.348 598.322C351.626 598.322 355.026 598.968 355.026 601.858C355.026 602.504 354.788 603.354 354.006 603.354C352.068 603.354 350.776 601.042 348.668 601.042C346.764 601.042 345.234 602.164 345.234 604.102C345.234 610.12 356.148 607.502 356.148 614.2C356.148 618.178 352.34 620.116 348.77 620.116C346.322 620.116 341.834 619.3 341.834 616.07ZM403.87 609.542C403.87 603.286 409.344 598.56 415.464 598.56C418.388 598.56 422.264 600.124 422.264 603.558C422.264 604.51 421.992 605.156 420.938 605.156C418.32 605.156 417.13 601.926 414.07 601.926C409.922 601.926 407.032 605.292 407.032 609.338C407.032 613.792 410.33 617.396 414.886 617.396C419.136 617.396 419.884 613.282 422.91 613.282C423.488 613.282 424.066 613.316 424.066 614.098C424.066 617.94 417.504 620.116 414.444 620.116C408.596 620.116 403.87 615.39 403.87 609.542ZM436.617 609.44C436.617 603.456 441.139 598.526 447.157 598.526C453.311 598.526 458.207 602.674 458.207 608.998C458.207 614.744 454.399 620.116 448.313 620.116C441.989 620.116 436.617 615.968 436.617 609.44ZM439.813 609.542C439.813 614.03 443.519 617.158 447.871 617.158C452.359 617.158 454.807 613.826 454.807 609.542C454.807 604.816 451.271 601.484 446.511 601.484C441.955 601.484 439.813 605.394 439.813 609.542ZM472.562 619.402C472.256 619.164 471.78 618.722 471.644 618.28C471.644 617.872 471.644 615.968 471.644 615.56C471.644 610.188 471.984 604.884 471.882 599.478C472.188 598.798 472.46 598.764 472.97 598.764C475.792 598.764 475.316 603.66 475.316 605.292C475.316 607.672 475.044 610.052 475.044 612.432C475.044 615.696 477.016 617.396 480.246 617.396C481.436 617.396 482.592 617.124 483.748 617.124C484.632 617.124 484.836 617.43 484.836 618.28C484.836 619.878 483.544 620.116 482.184 620.116C478.92 620.116 475.894 619.266 472.562 619.402ZM498.636 619.402C498.33 619.164 497.854 618.722 497.718 618.28C497.718 617.872 497.718 615.968 497.718 615.56C497.718 610.188 498.058 604.884 497.956 599.478C498.262 598.798 498.534 598.764 499.044 598.764C501.866 598.764 501.39 603.66 501.39 605.292C501.39 607.672 501.118 610.052 501.118 612.432C501.118 615.696 503.09 617.396 506.32 617.396C507.51 617.396 508.666 617.124 509.822 617.124C510.706 617.124 510.91 617.43 510.91 618.28C510.91 619.878 509.618 620.116 508.258 620.116C504.994 620.116 501.968 619.266 498.636 619.402ZM522.874 618.858C522.874 618.79 522.908 618.552 522.908 618.518C524.88 614.268 527.328 598.968 532.19 598.968C532.938 598.968 533.55 599.036 533.992 599.682C535.454 601.858 535.794 604.986 536.95 607.4C537.664 608.862 540.996 615.696 541.71 617.158C541.982 617.6 541.948 618.008 541.948 618.518C541.948 619.436 541.574 619.674 540.656 619.674C537.834 619.674 538.31 614.846 531.85 614.846C526.41 614.846 526.614 619.674 524.064 619.674C523.486 619.674 522.874 619.504 522.874 618.858ZM529.47 609.542C529.47 611.242 530.184 612.636 532.02 612.636C533.108 612.636 534.4 612.296 534.672 611.038C534.706 610.834 534.706 609.95 534.706 609.78C534.706 607.876 533.856 604.884 531.884 604.884C530.184 604.884 529.47 608.012 529.47 609.542ZM569.559 619.402C567.893 619.402 566.329 620.116 564.629 620.116C559.053 620.116 554.293 615.322 554.293 609.678C554.293 603.49 559.631 598.56 565.751 598.56C567.927 598.56 572.007 599.308 572.007 602.198C572.007 603.626 571.259 604 569.967 604C567.621 602.708 566.601 601.926 564.289 601.926C560.141 601.926 557.455 605.53 557.455 609.44C557.455 614.03 560.991 617.396 565.547 617.396C565.785 617.396 566.975 617.396 567.247 617.362C568.505 617.022 569.287 616.24 569.287 614.88C569.287 612.568 566.091 612.806 566.091 611.174C566.091 610.97 566.057 610.63 566.329 610.562C568.709 610.426 571.259 609.406 573.605 609.406C574.319 609.406 574.727 609.644 574.931 610.358C574.863 613.486 575.169 615.934 575.169 618.892C575.169 619.47 574.931 620.32 574.149 620.32C572.619 620.32 571.157 619.402 569.559 619.402ZM590.011 619.64C589.399 619.47 588.923 618.926 588.855 618.28C588.855 617.668 588.855 614.812 588.855 614.2C588.855 613.18 588.855 610.324 588.855 610.12C588.889 608.828 589.229 602.81 589.331 601.518C589.433 600.498 589.841 599.07 591.133 599.002C594.839 599.002 598.545 599.036 602.251 599.24C602.761 599.41 603.169 599.818 603.169 600.396C603.169 600.702 602.387 601.62 602.013 601.62H595.655C594.125 602.232 592.493 602.674 592.493 604.68C592.493 609.134 599.905 608.216 602.455 608.318C602.625 608.42 603.135 608.93 603.135 609.202C603.135 609.984 602.319 610.766 601.571 610.8C600.517 610.766 599.293 610.63 598.001 610.63C596.097 610.63 594.159 610.936 592.935 612.398C592.867 612.466 592.731 612.772 592.731 612.84V615.322C592.731 616.92 595.893 617.362 596.811 617.362C597.219 617.362 600.483 617.158 600.891 617.158C600.959 617.124 601.707 617.124 601.945 617.124C602.727 617.124 603.611 617.362 603.611 618.348C603.611 619.028 603.135 619.674 602.455 619.878C601.843 619.878 598.919 619.878 598.273 619.878C595.213 619.878 593.037 619.912 590.011 619.64ZM617.347 616.07C617.347 615.424 617.551 615.084 618.231 615.084C620.373 615.084 621.767 617.396 624.181 617.396C626.119 617.396 628.057 616.478 628.057 614.302C628.057 608.794 617.143 611.514 617.143 604.782C617.143 600.566 620.985 598.322 624.861 598.322C627.139 598.322 630.539 598.968 630.539 601.858C630.539 602.504 630.301 603.354 629.519 603.354C627.581 603.354 626.289 601.042 624.181 601.042C622.277 601.042 620.747 602.164 620.747 604.102C620.747 610.12 631.661 607.502 631.661 614.2C631.661 618.178 627.853 620.116 624.283 620.116C621.835 620.116 617.347 619.3 617.347 616.07ZM697.539 618.518C697.573 617.736 697.573 614.064 697.539 613.282C697.471 611.378 697.403 608.726 694.921 608.726C692.779 608.726 692.847 611.514 690.943 611.514C688.937 611.514 688.393 608.964 686.251 608.964C684.449 608.964 684.211 609.984 683.599 611.48V617.6C683.599 618.586 682.783 619.436 681.865 619.436C681.219 619.436 680.947 619.334 680.539 618.518C680.505 616.784 680.335 608.692 680.301 606.958C680.301 606.754 680.301 604.306 680.301 603.422C680.301 602.912 680.301 600.43 680.301 599.92C680.709 599.138 680.981 598.968 681.627 598.968C683.361 598.968 683.871 600.702 684.857 601.722C685.367 602.3 687.917 604.816 688.461 605.36C689.073 605.768 689.889 606.04 690.637 606.04C695.193 606.04 694.649 599.002 698.899 599.002C699.681 599.002 700.225 599.138 700.497 599.92C700.327 605.734 700.973 611.276 700.973 617.022C700.973 617.294 700.939 618.484 700.939 618.722C700.599 619.674 700.021 619.708 699.273 619.708C698.423 619.708 697.777 619.368 697.539 618.518ZM716.23 619.64C715.618 619.47 715.142 618.926 715.074 618.28C715.074 617.668 715.074 614.812 715.074 614.2C715.074 613.18 715.074 610.324 715.074 610.12C715.108 608.828 715.448 602.81 715.55 601.518C715.652 600.498 716.06 599.07 717.352 599.002C721.058 599.002 724.764 599.036 728.47 599.24C728.98 599.41 729.388 599.818 729.388 600.396C729.388 600.702 728.606 601.62 728.232 601.62H721.874C720.344 602.232 718.712 602.674 718.712 604.68C718.712 609.134 726.124 608.216 728.674 608.318C728.844 608.42 729.354 608.93 729.354 609.202C729.354 609.984 728.538 610.766 727.79 610.8C726.736 610.766 725.512 610.63 724.22 610.63C722.316 610.63 720.378 610.936 719.154 612.398C719.086 612.466 718.95 612.772 718.95 612.84V615.322C718.95 616.92 722.112 617.362 723.03 617.362C723.438 617.362 726.702 617.158 727.11 617.158C727.178 617.124 727.926 617.124 728.164 617.124C728.946 617.124 729.83 617.362 729.83 618.348C729.83 619.028 729.354 619.674 728.674 619.878C728.062 619.878 725.138 619.878 724.492 619.878C721.432 619.878 719.256 619.912 716.23 619.64ZM761.042 618.518C761.076 617.736 761.076 614.064 761.042 613.282C760.974 611.378 760.906 608.726 758.424 608.726C756.282 608.726 756.35 611.514 754.446 611.514C752.44 611.514 751.896 608.964 749.754 608.964C747.952 608.964 747.714 609.984 747.102 611.48V617.6C747.102 618.586 746.286 619.436 745.368 619.436C744.722 619.436 744.45 619.334 744.042 618.518C744.008 616.784 743.838 608.692 743.804 606.958C743.804 606.754 743.804 604.306 743.804 603.422C743.804 602.912 743.804 600.43 743.804 599.92C744.212 599.138 744.484 598.968 745.13 598.968C746.864 598.968 747.374 600.702 748.36 601.722C748.87 602.3 751.42 604.816 751.964 605.36C752.576 605.768 753.392 606.04 754.14 606.04C758.696 606.04 758.152 599.002 762.402 599.002C763.184 599.002 763.728 599.138 764 599.92C763.83 605.734 764.476 611.276 764.476 617.022C764.476 617.294 764.442 618.484 764.442 618.722C764.102 619.674 763.524 619.708 762.776 619.708C761.926 619.708 761.28 619.368 761.042 618.518ZM777.659 609.44C777.659 603.456 782.181 598.526 788.199 598.526C794.353 598.526 799.249 602.674 799.249 608.998C799.249 614.744 795.441 620.116 789.355 620.116C783.031 620.116 777.659 615.968 777.659 609.44ZM780.855 609.542C780.855 614.03 784.561 617.158 788.913 617.158C793.401 617.158 795.849 613.826 795.849 609.542C795.849 604.816 792.313 601.484 787.553 601.484C782.997 601.484 780.855 605.394 780.855 609.542ZM812.923 617.362C812.685 612.058 812.685 609.644 812.685 604.782C812.685 604.102 812.685 600.838 812.685 600.158C812.855 599.512 813.603 598.798 814.283 598.798H822.681C825.265 598.798 827.679 600.702 827.679 603.32C827.679 606.38 824.891 608.216 824.891 611.174C824.891 614.166 826.591 616.614 828.801 618.518C828.801 618.994 828.801 619.198 828.325 619.402C828.189 619.436 827.475 619.436 827.305 619.436C823.021 619.436 823.769 612.806 819.383 612.806C816.051 612.806 815.711 616.07 815.643 618.722C815.473 619.232 815.065 619.64 814.521 619.64C813.365 619.64 813.025 618.246 812.923 617.362ZM815.847 605.36C815.847 607.162 816.901 608.76 818.805 608.76C821.253 608.76 823.599 607.162 823.599 604.68C823.599 602.368 821.933 601.484 819.825 601.484C817.479 601.484 815.847 602.878 815.847 605.36ZM842.672 617.362C842.638 616.954 842.638 614.948 842.638 614.54C842.638 609.644 843.624 604.816 843.352 599.92C843.556 599.172 844.032 598.968 844.746 598.968C847.024 598.968 846.548 602.164 846.548 603.558C846.548 606.516 846.276 609.44 846.276 612.398C846.276 614.37 846.514 616.342 846.514 618.314C846.514 618.994 845.868 619.674 845.222 619.674C843.726 619.674 842.91 618.79 842.672 617.362ZM861.905 619.64C861.293 619.47 860.817 618.926 860.749 618.28C860.749 617.668 860.749 614.812 860.749 614.2C860.749 613.18 860.749 610.324 860.749 610.12C860.783 608.828 861.123 602.81 861.225 601.518C861.327 600.498 861.735 599.07 863.027 599.002C866.733 599.002 870.439 599.036 874.145 599.24C874.655 599.41 875.063 599.818 875.063 600.396C875.063 600.702 874.281 601.62 873.907 601.62H867.549C866.019 602.232 864.387 602.674 864.387 604.68C864.387 609.134 871.799 608.216 874.349 608.318C874.519 608.42 875.029 608.93 875.029 609.202C875.029 609.984 874.213 610.766 873.465 610.8C872.411 610.766 871.187 610.63 869.895 610.63C867.991 610.63 866.053 610.936 864.829 612.398C864.761 612.466 864.625 612.772 864.625 612.84V615.322C864.625 616.92 867.787 617.362 868.705 617.362C869.113 617.362 872.377 617.158 872.785 617.158C872.853 617.124 873.601 617.124 873.839 617.124C874.621 617.124 875.505 617.362 875.505 618.348C875.505 619.028 875.029 619.674 874.349 619.878C873.737 619.878 870.813 619.878 870.167 619.878C867.107 619.878 864.931 619.912 861.905 619.64ZM889.241 616.07C889.241 615.424 889.445 615.084 890.125 615.084C892.267 615.084 893.661 617.396 896.075 617.396C898.013 617.396 899.951 616.478 899.951 614.302C899.951 608.794 889.037 611.514 889.037 604.782C889.037 600.566 892.879 598.322 896.755 598.322C899.033 598.322 902.433 598.968 902.433 601.858C902.433 602.504 902.195 603.354 901.413 603.354C899.475 603.354 898.183 601.042 896.075 601.042C894.171 601.042 892.641 602.164 892.641 604.102C892.641 610.12 903.555 607.502 903.555 614.2C903.555 618.178 899.747 620.116 896.177 620.116C893.729 620.116 889.241 619.3 889.241 616.07Z" fill="black"/>
<path d="M368.717 618.178C368.717 617.022 369.227 616.206 370.417 616.206C371.879 616.206 372.355 617.022 372.355 618.416C372.355 619.538 371.879 620.32 370.655 620.32C369.397 620.32 368.717 619.368 368.717 618.178ZM916.124 618.178C916.124 617.022 916.634 616.206 917.824 616.206C919.286 616.206 919.762 617.022 919.762 618.416C919.762 619.538 919.286 620.32 918.062 620.32C916.804 620.32 916.124 619.368 916.124 618.178Z" fill="#F66630"/>
<path d="M644.23 618.178C644.23 617.022 644.74 616.206 645.93 616.206C647.392 616.206 647.868 617.022 647.868 618.416C647.868 619.538 647.392 620.32 646.168 620.32C644.91 620.32 644.23 619.368 644.23 618.178Z" fill="#FEB93C"/>
</svg>
