<svg width="221" height="136" viewBox="0 0 221 136" fill="none" xmlns="http://www.w3.org/2000/svg">
<path d="M125.236 0.160994L179.994 0.221007C189.705 0.214007 209.668 -1.38 217.244 4.097C218.837 6.689 219.957 12.656 219.957 15.725C219.956 52.328 220.58 89.068 219.644 125.643C219.516 130.634 214.795 134.619 209.86 135.007C197.411 135.986 184.751 135.603 172.229 135.594L98.0746 135.541L38.1006 135.617C29.1136 135.627 18.5426 136.022 9.63259 134.976C4.94659 134.427 2.83159 131.149 0.444589 127.482C-0.0954107 119.554 0.161598 108.459 0.150598 100.345L0.114587 52.73C0.109587 39.209 -0.356412 22.704 0.627588 9.117C0.897588 5.393 5.28359 2.58599 8.26159 0.619994C18.6096 -0.297006 38.0396 0.224005 48.9806 0.225005L125.236 0.160994Z" fill="#292929"/>
<path d="M10.8124 6.67993C20.1144 5.72693 41.0334 6.22192 51.1964 6.22892L127.321 6.37792L181.845 6.28793C187.485 6.28393 203.902 5.99993 209.089 6.69493C215.216 9.67593 213.946 14.2699 213.737 20.3509C213.912 23.3759 214.124 25.5829 213.756 28.6299C213.821 39.4849 214.602 120.266 213.328 123.208L213.072 122.818L212.681 123.25C207.609 133.148 194.316 129.628 184.698 129.376C182.924 123.915 176.709 99.0569 172.441 96.9919C168.324 94.9989 53.0084 95.1499 47.1744 97.0549C42.1364 102.383 37.9814 121.33 35.3504 129.45C29.8544 129.589 16.2894 130.195 11.5854 129.331C8.60835 128.454 7.75036 127.091 6.32536 124.557C5.59936 119.722 5.83536 104.685 5.87336 99.0879C5.97136 84.5069 5.59337 69.1149 6.08937 54.6009C6.01737 41.5549 5.35735 24.2199 6.83535 11.3379C7.11935 8.85892 8.76936 7.87293 10.8124 6.67993Z" fill="#6B8F8B"/>
<path d="M10.812 6.67993C13.053 6.76293 20.6359 6.89093 22.3289 7.41293C18.0609 8.20493 11.87 8.83692 8.95695 11.9309C5.29395 21.0659 10.395 93.6069 6.95096 100.139C5.43496 85.4409 7.48296 68.5629 6.08896 54.6009C6.01696 41.5549 5.35595 24.2199 6.83495 11.3379C7.11895 8.85892 8.76895 7.87293 10.812 6.67993Z" fill="#C3BFB9"/>
<path d="M212.68 123.25L212.124 122.204C212.606 110.218 211.054 33.8389 213.755 28.6299C213.82 39.4849 214.601 120.266 213.327 123.208L213.071 122.818L212.68 123.25Z" fill="#C3BFB9"/>
<path d="M209.089 6.69507C215.216 9.67607 213.946 14.2701 213.737 20.3511C212.132 18.0091 213.076 13.5411 210.219 10.2251C208.135 7.80607 201.948 7.68606 198.599 7.31906L209.089 6.69507Z" fill="#FAEFDD"/>
<path d="M6.32422 124.557L7.02222 120.466C9.41222 127.454 15.3142 127.981 21.5342 128.79L11.5842 129.331C8.60721 128.454 7.74922 127.091 6.32422 124.557Z" fill="#FAEFDD"/>
<path d="M60.079 41.5319C65.298 41.2769 75.077 44.5859 78.071 48.9269C77.126 58.4089 85.672 56.4649 78.175 65.2209C78.163 65.7969 78.144 66.3729 78.117 66.9479C77.746 74.1759 72.009 70.7609 66.266 75.8289C58.43 79.1499 45.897 67.4749 45.387 59.6109C45.088 55.0089 46.607 55.1579 49.005 51.7599L48.38 49.3379C52.438 42.7649 55.695 46.8549 60.079 41.5319Z" fill="#292929"/>
<path d="M153.142 41.558C157.787 41.138 168.394 44.991 170.598 49.26C169.041 57.27 175.548 53.349 173.367 61.948C170.51 64.792 169.707 64.924 170.576 68.7C166.51 75.252 163.292 70.887 159.264 75.39C156.928 78.887 151.325 74.366 149.206 72.98C145.366 72.878 144.35 73.015 142.054 69.761C141.538 62.839 138.133 62.6691 138.019 58.7401C139.569 54.9511 141.968 48.052 145.004 45.457C149.267 45.248 149.763 45.1561 152.673 42.0661L153.142 41.558Z" fill="#292929"/>
<path d="M57.9062 6.95308L143.165 6.92407C147.506 6.93707 173.076 6.91908 175.71 7.62108C149.053 9.10308 121.586 8.21708 94.8802 8.39308C85.8532 8.45308 71.6883 7.75408 63.2973 8.30208L57.9062 6.95308Z" fill="#FAEFDD"/>
<path d="M15.376 113.975C16.906 113.258 18.704 113.425 20.076 114.411C21.448 115.398 22.178 117.05 21.984 118.729C21.79 120.407 20.704 121.849 19.143 122.498C16.804 123.471 14.116 122.396 13.092 120.079C12.068 117.762 13.083 115.051 15.376 113.975Z" fill="#292929"/>
<path d="M199.605 114.011C201.037 113.149 202.822 113.123 204.278 113.943C205.735 114.761 206.639 116.3 206.647 117.971C206.655 119.643 205.765 121.189 204.315 122.021C202.106 123.29 199.287 122.544 197.995 120.348C196.704 118.151 197.422 115.325 199.605 114.011Z" fill="#292929"/>
<path d="M15.5702 13.6089C17.0952 12.9209 18.8742 13.1159 20.2152 14.1199C21.5552 15.1229 22.2432 16.7749 22.0122 18.4329C21.7812 20.0909 20.6672 21.4919 19.1032 22.0899C16.7812 22.9789 14.1742 21.8599 13.2182 19.5659C12.2612 17.2709 13.3042 14.6319 15.5702 13.6089Z" fill="#292929"/>
<path d="M200.047 13.616C202.287 12.489 205.016 13.367 206.179 15.587C207.343 17.808 206.51 20.552 204.309 21.751C202.852 22.545 201.08 22.492 199.675 21.612C198.268 20.732 197.446 19.162 197.523 17.505C197.6 15.848 198.565 14.361 200.047 13.616Z" fill="#292929"/>
<path d="M63.2961 8.30194C56.7151 8.75794 50.1041 8.50594 43.5781 7.54794C46.1431 6.61894 54.9111 6.74494 57.9051 6.95294L63.2961 8.30194Z" fill="#8DA4A3"/>
<path d="M49.57 100.242C55.952 99.7669 66.405 100.069 73.07 100.064L115.689 100.028C124.307 100.019 163.295 99.4629 169.689 100.686C173.63 104.606 178.179 123.342 180.005 129.668L170.654 129.776C127.7 128.978 82.976 130.799 40.085 129.518C41.803 123.838 46.943 103.853 49.57 100.242Z" fill="#6B8F8B"/>
<path d="M155.649 116.043C157.21 115.229 159.097 115.372 160.518 116.411C161.938 117.45 162.646 119.205 162.344 120.939C162.042 122.672 160.783 124.085 159.095 124.583C156.81 125.256 154.388 124.084 153.497 121.876C152.606 119.667 153.538 117.143 155.649 116.043Z" fill="#292929"/>
<path d="M80.1803 113.26C81.5883 112.389 83.3563 112.341 84.8103 113.135C86.2633 113.929 87.1783 115.443 87.2063 117.099C87.2333 118.755 86.3693 120.298 84.9423 121.14C82.7683 122.423 79.9683 121.716 78.6623 119.556C77.3573 117.396 78.0333 114.588 80.1803 113.26Z" fill="#292929"/>
<path d="M60.3972 116.113C62.5842 114.923 65.3222 115.692 66.5672 117.848C67.8142 120.005 67.1142 122.761 64.9912 124.062C63.5682 124.933 61.7842 124.965 60.3312 124.144C58.8792 123.322 57.9862 121.778 58.0002 120.109C58.0142 118.441 58.9312 116.911 60.3972 116.113Z" fill="#292929"/>
<path d="M135.756 113.27C137.202 112.378 139.024 112.368 140.48 113.243C141.935 114.119 142.78 115.734 142.669 117.429C142.558 119.124 141.51 120.615 139.953 121.294C137.769 122.245 135.222 121.347 134.118 119.236C133.015 117.126 133.729 114.521 135.756 113.27Z" fill="#292929"/>
</svg>
