<svg width="1882" height="422" viewBox="0 0 1882 422" fill="none" xmlns="http://www.w3.org/2000/svg">
<g clip-path="url(#clip0_5_623)">
<path d="M747.985 331C747.835 298.435 742.737 92.2037 750.403 75C755.075 91.1406 753.97 158.006 753.547 178.204C752.626 222.392 755.847 273.772 752.942 317.198C751.329 321.45 749.078 326.748 747.985 331Z" fill="#0F0E0F"/>
<path d="M125.389 144.637L180.148 144.697C189.859 144.69 209.822 143.096 217.397 148.573C218.99 151.165 220.111 157.132 220.111 160.201C220.11 196.804 220.734 233.544 219.798 270.119C219.67 275.11 214.949 279.095 210.013 279.483C197.565 280.462 184.904 280.079 172.383 280.07L98.2288 280.017L38.2549 280.093C29.2678 280.103 18.697 280.498 9.78698 279.452C5.10078 278.903 2.98605 275.625 0.599111 271.958C0.058232 264.03 0.31558 252.935 0.304975 244.821L0.268898 197.206C0.263242 183.685 -0.202666 167.18 0.781522 153.593C1.05161 149.869 5.43801 147.062 8.41603 145.096C18.7641 144.179 38.1941 144.7 49.1347 144.701L125.389 144.637Z" fill="#292929"/>
<path d="M10.9656 151.156C20.268 150.203 41.187 150.698 51.3498 150.705L127.474 150.854L181.999 150.764C187.639 150.76 204.056 150.476 209.243 151.171C215.37 154.152 214.1 158.746 213.891 164.827C214.065 167.852 214.277 170.06 213.91 173.106C213.975 183.961 214.755 264.742 213.481 267.684L213.225 267.294L212.835 267.726C207.763 277.624 194.47 274.104 184.851 273.852C183.078 268.391 176.863 243.533 172.595 241.468C168.478 239.475 53.162 239.626 47.3276 241.531C42.2893 246.859 38.1347 265.806 35.5039 273.926C30.0074 274.065 16.443 274.671 11.7391 273.807C8.76182 272.93 7.90348 271.567 6.47881 269.033C5.75269 264.198 5.98883 249.161 6.0263 243.564C6.12458 228.983 5.74704 213.591 6.24267 199.077C6.17056 186.031 5.51018 168.696 6.98859 155.814C7.27281 153.335 8.92302 152.349 10.9656 151.156Z" fill="#6B8F8B"/>
<path d="M10.9656 151.156C13.2069 151.239 20.7898 151.367 22.4831 151.889C18.2148 152.681 12.0233 153.313 9.11033 156.407C5.44791 165.542 10.5492 238.083 7.1045 244.615C5.58862 229.917 7.63619 213.039 6.24263 199.077C6.17051 186.031 5.51014 168.696 6.98854 155.814C7.27277 153.335 8.92298 152.349 10.9656 151.156Z" fill="#C3BFB9"/>
<path d="M212.835 267.726L212.278 266.68C212.761 254.694 211.209 178.315 213.91 173.106C213.975 183.961 214.755 264.742 213.481 267.684L213.225 267.294L212.835 267.726Z" fill="#C3BFB9"/>
<path d="M209.242 151.171C215.37 154.152 214.1 158.746 213.89 164.827C212.285 162.485 213.229 158.017 210.373 154.701C208.289 152.282 202.101 152.162 198.752 151.795L209.242 151.171Z" fill="#FAEFDD"/>
<path d="M6.47852 269.033L7.17636 264.942C9.56612 271.93 15.4684 272.457 21.6889 273.266L11.7388 273.807C8.76152 272.93 7.90318 271.567 6.47852 269.033Z" fill="#FAEFDD"/>
<path d="M22.9248 161.966L197.026 161.985C196.696 167.483 196.811 172.769 196.874 178.265C179.731 179.085 156.608 178.349 139.087 178.353L23.1963 178.338C23.2112 172.88 23.1207 167.422 22.9248 161.966Z" fill="#FAEFDD"/>
<path d="M60.2334 186.008C65.4527 185.753 75.2317 189.062 78.2253 193.403C77.2807 202.885 85.8266 200.941 78.3299 209.697C78.3179 210.273 78.2988 210.849 78.2719 211.424C77.9007 218.652 72.1632 215.237 66.4207 220.305C58.5847 223.626 46.0511 211.951 45.5413 204.087C45.2423 199.485 46.7617 199.634 49.1592 196.236L48.5349 193.814C52.5926 187.241 55.8498 191.33 60.2334 186.008Z" fill="#292929"/>
<path d="M153.296 186.034C157.941 185.614 168.547 189.467 170.752 193.736C169.194 201.746 175.702 197.825 173.52 206.424C170.663 209.268 169.861 209.4 170.73 213.176C166.664 219.728 163.445 215.362 159.417 219.866C157.081 223.363 151.479 218.842 149.36 217.456C145.52 217.354 144.504 217.491 142.207 214.237C141.692 207.315 138.286 207.145 138.172 203.216C139.722 199.427 142.122 192.528 145.157 189.933C149.421 189.724 149.916 189.632 152.826 186.542L153.296 186.034Z" fill="#292929"/>
<path d="M58.0596 151.429L143.318 151.4C147.66 151.413 173.23 151.395 175.864 152.097C149.207 153.579 121.74 152.693 95.0338 152.869C86.0071 152.929 71.8417 152.23 63.4507 152.778L58.0596 151.429Z" fill="#FAEFDD"/>
<path d="M15.5307 258.451C17.06 257.734 18.8587 257.901 20.2303 258.887C21.602 259.874 22.3323 261.526 22.1386 263.205C21.9448 264.883 20.8581 266.325 19.2977 266.974C16.9582 267.947 14.2708 266.872 13.2463 264.555C12.2225 262.238 13.237 259.527 15.5307 258.451Z" fill="#292929"/>
<path d="M199.758 258.487C201.191 257.625 202.975 257.599 204.432 258.419C205.888 259.237 206.793 260.776 206.801 262.447C206.808 264.119 205.918 265.665 204.469 266.497C202.259 267.766 199.44 267.02 198.149 264.824C196.858 262.627 197.576 259.801 199.758 258.487Z" fill="#292929"/>
<path d="M15.723 158.085C17.2488 157.397 19.0277 157.592 20.3682 158.596C21.708 159.599 22.396 161.251 22.1655 162.909C21.9343 164.567 20.82 165.968 19.2567 166.566C16.9348 167.455 14.3273 166.336 13.3714 164.042C12.4148 161.747 13.457 159.108 15.723 158.085Z" fill="#292929"/>
<path d="M200.2 158.092C202.44 156.965 205.17 157.843 206.333 160.063C207.497 162.284 206.664 165.028 204.462 166.227C203.006 167.021 201.234 166.968 199.828 166.088C198.422 165.208 197.6 163.638 197.677 161.981C197.754 160.324 198.718 158.837 200.2 158.092Z" fill="#292929"/>
<path d="M63.4508 152.778C56.8697 153.234 50.259 152.982 43.7324 152.024C46.2982 151.095 55.0654 151.221 58.0596 151.429L63.4508 152.778Z" fill="#8DA4A3"/>
<path d="M49.7236 244.718C56.1059 244.243 66.5587 244.545 73.2232 244.54L115.842 244.504C124.461 244.495 163.448 243.939 169.843 245.162C173.784 249.082 178.333 267.818 180.158 274.144L170.808 274.252C127.853 273.454 83.1294 275.275 40.2388 273.994C41.9561 268.314 47.0963 248.329 49.7236 244.718Z" fill="#6B8F8B"/>
<path d="M155.803 260.519C157.363 259.705 159.25 259.848 160.672 260.887C162.092 261.926 162.8 263.681 162.498 265.415C162.196 267.148 160.936 268.561 159.248 269.059C156.964 269.732 154.542 268.56 153.65 266.352C152.759 264.143 153.691 261.619 155.803 260.519Z" fill="#292929"/>
<path d="M80.3346 257.736C81.743 256.865 83.5106 256.817 84.9642 257.611C86.4179 258.405 87.3328 259.919 87.3603 261.575C87.3872 263.231 86.5232 264.774 85.0964 265.616C82.923 266.899 80.1225 266.192 78.8166 264.032C77.5114 261.872 78.188 259.064 80.3346 257.736Z" fill="#292929"/>
<path d="M60.5512 260.589C62.7388 259.399 65.4764 260.168 66.7222 262.324C67.9687 264.481 67.2687 267.237 65.1455 268.538C63.7223 269.409 61.9384 269.441 60.4862 268.62C59.0339 267.798 58.141 266.254 58.1544 264.585C58.1685 262.917 59.0856 261.387 60.5512 260.589Z" fill="#292929"/>
<path d="M135.91 257.746C137.355 256.854 139.178 256.844 140.634 257.719C142.089 258.595 142.934 260.21 142.823 261.905C142.712 263.6 141.664 265.091 140.106 265.77C137.923 266.721 135.376 265.823 134.272 263.712C133.168 261.602 133.883 258.997 135.91 257.746Z" fill="#292929"/>
<path d="M474.624 145.149C485.144 144.343 497.913 144.729 508.689 144.747L563.646 144.814C599.083 144.83 642.721 143.487 677.683 145.115C679.953 146.502 682.661 148.364 683.983 150.729C685.362 153.178 685.397 156.747 685.559 159.508C686.316 172.616 686.952 266.752 684.506 273.159C683.269 276.408 680.059 278.082 677.139 279.538C668.244 280.595 648.829 280.068 639.249 280.057L568.284 280.013L506.815 280.078C496.973 280.086 486.827 280.402 477.042 279.709C469.074 279.144 466.613 272.045 466.521 265.287C466.069 231.575 466.896 197.852 466.182 164.135C465.998 155.358 466.861 149.898 474.624 145.149ZM485.88 266.05C487.81 265.128 488.616 262.811 487.676 260.893C486.735 258.974 484.409 258.192 482.5 259.153C480.612 260.099 479.849 262.386 480.775 264.277C481.701 266.169 483.985 266.96 485.88 266.05ZM487.838 273.666C481.885 271.448 475.006 272.519 474.567 263.849C473.938 251.555 473.896 239.069 474.108 226.759C474.504 204.42 474.426 182.227 474.214 159.891L473.627 160.626L472.729 160.791C472.779 164.47 472.743 168.566 472.927 172.203C472.545 183.042 471.343 268.412 474.221 271.7C475.897 273.615 478.428 273.85 480.817 273.875C483.151 273.9 485.505 273.768 487.838 273.666Z" fill="#292929"/>
<path d="M497.638 150.771C505.627 150.206 518.764 150.857 527.269 150.83L595.095 150.722L635.502 150.721C638.669 150.72 650.943 150.475 653.1 150.791C657.391 150.717 670.917 150.294 674.608 151.068C676.312 152.232 678.822 153.678 678.857 156.038C679.465 192.396 679.133 228.849 679.027 265.225C679.012 271.11 677.902 273.637 671.483 273.808C665.904 274.204 662.008 274.351 656.387 274.287C653.086 274.426 649.777 274.496 646.468 274.494C638.33 272.736 604.937 274.492 595.067 274.134C575.609 273.428 553.854 274.119 534.29 274.086C523.883 274.069 514.628 273.226 503.888 273.415L503.11 273.761C501.138 275.156 490.27 274.512 487.838 273.666C481.885 271.448 475.006 272.519 474.567 263.849C473.938 251.555 473.896 239.069 474.108 226.759C474.504 204.42 474.426 182.227 474.214 159.891L473.627 160.626L472.729 160.791C472.644 160.046 472.609 159.296 472.616 158.547C472.63 148.212 490.878 150.596 497.638 150.771ZM485.88 266.05C487.81 265.128 488.616 262.811 487.676 260.893C486.735 258.974 484.409 258.192 482.5 259.153C480.612 260.099 479.849 262.386 480.775 264.277C481.701 266.169 483.985 266.96 485.88 266.05Z" fill="#363636"/>
<path d="M503.888 273.415C505.436 268.088 510.958 246.645 513.935 243.712C525.184 241.868 633.48 241.967 636.513 244.033C640.536 246.772 643.315 268.692 646.468 274.494C638.33 272.736 604.937 274.492 595.067 274.134C575.609 273.428 553.854 274.119 534.29 274.086C523.883 274.069 514.628 273.226 503.888 273.415Z" fill="#363636"/>
<path d="M526.117 259.814C528.181 259.37 530.26 260.541 530.946 262.541C531.632 264.54 530.72 266.738 528.818 267.662C527.368 268.366 525.636 268.171 524.378 267.162C523.119 266.153 522.554 264.51 522.928 262.939C523.296 261.369 524.54 260.152 526.117 259.814Z" fill="#F5F1ED"/>
<path d="M621.262 259.814C623.518 259.324 625.745 260.758 626.233 263.013C626.721 265.269 625.285 267.492 623.03 267.976C620.774 268.458 618.554 267.026 618.074 264.774C617.586 262.523 619.014 260.304 621.262 259.814Z" fill="#F5F1ED"/>
<path d="M599.945 257.772C601.769 256.466 604.301 256.889 605.601 258.716C606.895 260.543 606.457 263.076 604.626 264.364C602.809 265.642 600.299 265.209 599.012 263.395C597.718 261.583 598.142 259.07 599.945 257.772Z" fill="#F5F1ED"/>
<path d="M547.172 257.067C549.216 257.029 550.962 258.553 551.195 260.588C551.429 262.623 550.071 264.502 548.07 264.926C546.593 265.239 545.065 264.688 544.132 263.504C543.192 262.32 543.008 260.707 543.651 259.343C544.302 257.977 545.659 257.096 547.172 257.067Z" fill="#F5F1ED"/>
<path d="M503.11 273.761L500.798 273.229C501.42 268.335 508.278 245.197 511.319 241.383C513.511 240.596 518.149 239.883 520.199 239.976C536.376 240.708 629.64 238.154 638.606 241.266C641.455 244.386 648.766 269.513 648.561 273.143C647.408 274.109 647.811 273.92 646.468 274.494C643.314 268.692 640.536 246.772 636.513 244.033C633.48 241.967 525.184 241.868 513.935 243.712C510.958 246.645 505.436 268.088 503.888 273.415L503.11 273.761Z" fill="#F5F1ED"/>
<path d="M674.608 151.068C676.311 152.232 678.821 153.678 678.857 156.038C679.465 192.396 679.133 228.849 679.026 265.225C679.012 271.11 677.902 273.637 671.483 273.808C668.845 273.705 666.844 273.373 664.271 272.978C668.018 272.19 675.399 272.457 675.972 267.198C676.743 260.183 676.517 252.858 676.51 245.787L676.474 210.377C676.474 193.056 677.068 175.693 676.375 158.392C676.163 153.052 670.563 152.896 666.696 152.606L667.163 151.75C669.863 151.206 671.878 151.191 674.608 151.068Z" fill="#F5F1ED"/>
<path d="M472.729 160.791C472.644 160.046 472.609 159.296 472.616 158.547C472.63 148.212 490.878 150.596 497.638 150.771C488.545 155.594 479.729 147.677 474.214 159.891L473.627 160.626L472.729 160.791Z" fill="#7C7B78"/>
<path d="M653.1 150.791C657.392 150.717 670.917 150.294 674.608 151.068C671.879 151.191 669.864 151.206 667.163 151.749L666.696 152.606C663.076 152.408 655.878 152.543 653.1 150.791Z" fill="#7C7B78"/>
<path d="M656.387 274.287C658.841 272.467 661.414 272.807 664.271 272.978C666.844 273.373 668.845 273.705 671.483 273.808C665.904 274.204 662.008 274.351 656.387 274.287Z" fill="#7C7B78"/>
<path d="M499.2 162.31C551.867 162.507 604.654 161.832 657.307 162.395C657.413 166.732 658.403 180.41 656.26 183.438L653.955 183.678L493.24 183.761C493.325 176.943 491.854 169.403 494.018 163.533C495.99 161.948 496.287 162.438 499.2 162.31Z" fill="#FAEFDD"/>
<path d="M524.639 187.72C527.687 186.891 530.911 186.943 533.93 187.871C541.078 190.066 545.893 196.741 545.73 204.216C545.56 211.69 540.448 218.144 533.216 220.019C524.321 222.323 515.229 217.012 512.874 208.131C510.513 199.251 515.773 190.133 524.639 187.72Z" fill="#292929"/>
<path d="M526.633 191.741C530.875 191.535 539.14 195.882 540.505 200.142C538.865 204.589 538.433 204.817 540.116 208.627C539.402 210.757 539.494 210.678 537.832 212.16C537.041 212.315 536.256 212.492 535.478 212.691C532.975 213.341 532.607 214.171 531.434 216.275L528.266 216.161C526.11 214.834 523.621 213.675 521.394 212.451C515.738 209.343 518.368 207.452 518.884 202.276C518.248 201.206 518.05 200.823 517.576 199.677C520.39 192.777 523.324 198.469 526.633 191.741Z" fill="#FAEFDD"/>
<path d="M618.406 187.626C624.415 186.694 630.454 189.116 634.158 193.943C637.856 198.77 638.634 205.231 636.173 210.796C633.918 215.9 629.259 219.534 623.758 220.475C614.651 222.033 606.011 215.871 604.527 206.749C603.042 197.627 609.271 189.041 618.406 187.626Z" fill="#292929"/>
<path d="M618.971 192.515C622.803 191.088 623.836 193.148 626.43 195.633C628.12 195.863 628.304 195.845 629.966 196.471C632.652 199.777 632.624 209.739 629.612 212.292C624.974 212.541 625.497 212.316 623.199 216.17C619.141 216.375 611.053 212.319 609.653 208.402C611.972 201.22 608.486 200.83 612.042 196.053C615.443 195.32 616.497 195.259 618.971 192.515Z" fill="#FAEFDD"/>
<path d="M664.907 259.091C666.166 258.433 667.686 258.514 668.874 259.302C670.054 260.09 670.719 261.461 670.599 262.879C670.479 264.296 669.602 265.537 668.301 266.115C666.371 266.974 664.115 266.146 663.196 264.248C662.277 262.35 663.041 260.066 664.907 259.091Z" fill="#F5F1ED"/>
<path d="M482.5 259.153C484.409 258.192 486.735 258.974 487.676 260.893C488.616 262.811 487.81 265.128 485.88 266.05C483.985 266.96 481.701 266.169 480.775 264.277C479.849 262.386 480.612 260.099 482.5 259.153Z" fill="#FAEFDD" fill-opacity="0.972549"/>
<path d="M482.472 158.76C483.766 158.149 485.293 158.312 486.431 159.185C487.563 160.058 488.114 161.492 487.859 162.9C487.598 164.308 486.573 165.453 485.201 165.865C483.292 166.438 481.256 165.441 480.542 163.578C479.828 161.714 480.669 159.614 482.472 158.76Z" fill="#F5F1ED"/>
<path d="M665.176 158.788C667.078 157.977 669.277 158.841 670.118 160.729C670.959 162.617 670.132 164.83 668.258 165.703C667.021 166.28 665.565 166.144 664.455 165.347C663.345 164.55 662.751 163.215 662.899 161.856C663.048 160.497 663.917 159.324 665.176 158.788Z" fill="#F5F1ED"/>
<path d="M473.627 160.626L474.214 159.891C474.426 182.227 474.504 204.42 474.108 226.759C473.896 239.069 473.938 251.555 474.567 263.849C475.006 272.519 481.885 271.448 487.838 273.666C485.505 273.768 483.151 273.9 480.817 273.875C478.428 273.85 475.896 273.615 474.221 271.7C471.343 268.413 472.545 183.042 472.927 172.203C473.493 169.523 473.528 163.625 473.627 160.626Z" fill="#0F0E0F" fill-opacity="0.0392157"/>
<path d="M472.729 160.791L473.627 160.626C473.528 163.625 473.493 169.523 472.927 172.203C472.743 168.566 472.778 164.47 472.729 160.791Z" fill="#9C9388" fill-opacity="0.505882"/>
<path d="M315.231 144.648L397.19 144.652C412.144 144.669 430.321 144.253 445.042 145.109C449.263 147.702 450.125 148.985 452.854 152.884L452.911 153.967C454.707 191.765 452.388 231.665 452.77 269.62C452.911 283.437 426.765 280.163 417.552 280.152L370.832 280.112L289.24 280.131C275.069 280.144 260.803 280.419 246.662 279.739C238.79 279.396 234.642 274.426 234.568 266.721C234.286 235.952 234.474 205.398 234.438 174.604C234.496 168.833 233.8 152.868 237.78 148.422C242.477 143.175 266.396 144.641 272.249 144.659L315.231 144.648Z" fill="#292929"/>
<path d="M409.252 151.373C416.591 150.987 440.191 149.5 445.685 153.32C447.842 160.02 447.983 264.793 445.72 271.682C440.347 275.794 426.058 274.05 418.917 273.888C417.043 268.154 411.14 243.625 406.756 241.404C402.917 239.454 287.297 239.46 279.348 241.455C274.337 246.619 270.466 266.298 267.441 274.027C262.365 274.021 254.912 274.214 250.025 273.934C237.953 274.014 240.629 264.003 240.959 254.974C240.703 251.092 240.506 235.873 240.805 232.687C242.103 218.857 237.984 160.59 243.249 152.445C248.285 150.227 280.523 150.841 287.245 151.342C312.608 151.104 337.976 151.041 363.344 151.153C377.923 151.177 394.807 150.842 409.252 151.373Z" fill="#FEB93C"/>
<path d="M287.245 151.342C312.608 151.104 337.976 151.041 363.344 151.153C377.923 151.177 394.807 150.842 409.252 151.373C395.967 153.385 370.499 152.878 356.274 152.859C334.186 152.828 308.974 153.745 287.245 151.342Z" fill="#FAEFDD"/>
<path d="M240.959 254.974C245.725 267.911 235.825 270.122 255.395 273.437L250.025 273.934C237.953 274.014 240.629 264.003 240.959 254.974Z" fill="#FAEFDD"/>
<path d="M291.994 186.049C302.5 184.501 315.118 195.807 312.502 206.755C309.129 209.164 309.277 209.17 309.709 213.06C305.814 220.079 303.85 214.26 297.85 220.858C293.27 221.096 282.602 217.243 280.431 213.255C281.426 207.153 278.497 208.941 276.95 204.999C275.612 201.59 279.397 198.886 280.96 195.91L279.911 193.804C283.716 187.16 286.977 191.261 291.994 186.049Z" fill="#292929"/>
<path d="M388.437 186.015C396.964 185.056 406.629 191.625 408.022 200.25C408.941 205.902 406.728 216.321 399.813 217.258C396.207 217.747 396.016 218.449 394.164 221.087C383.544 221.292 372.423 211.984 373.363 200.552C376.184 197.624 376.976 197.575 376.085 193.789C380.122 187.227 383.926 191.089 388.437 186.015Z" fill="#292929"/>
<path d="M433.34 158.067C435.596 156.951 438.332 157.819 439.534 160.032C440.736 162.245 439.979 165.011 437.809 166.297C436.331 167.174 434.5 167.173 433.022 166.295C431.544 165.417 430.668 163.802 430.731 162.086C430.802 160.37 431.799 158.828 433.34 158.067Z" fill="#292929"/>
<path d="M250.028 158.06C252.366 157.1 255.044 158.175 256.07 160.486C257.096 162.796 256.097 165.503 253.817 166.594C252.283 167.328 250.472 167.171 249.087 166.183C247.703 165.195 246.965 163.533 247.161 161.844C247.356 160.155 248.454 158.705 250.028 158.06Z" fill="#292929"/>
<path d="M249.652 258.414C251.912 257.301 254.647 258.19 255.822 260.419C256.995 262.648 256.181 265.406 253.984 266.641C252.509 267.469 250.701 267.431 249.263 266.542C247.824 265.653 246.981 264.053 247.062 262.363C247.143 260.673 248.134 259.162 249.652 258.414Z" fill="#292929"/>
<path d="M433.369 258.402C434.896 257.667 436.706 257.823 438.084 258.81C439.463 259.797 440.198 261.457 440.001 263.142C439.795 264.827 438.692 266.269 437.123 266.904C434.797 267.843 432.138 266.765 431.127 264.47C430.116 262.174 431.106 259.488 433.369 258.402Z" fill="#292929"/>
<path d="M281.582 244.726C287.025 244.523 293.377 244.445 298.84 244.574C334.024 245.401 370.089 243.438 405.179 244.764C408.361 253.743 411.295 264.788 413.819 274.016L402.959 274.034C359.59 273.666 315.917 274.685 272.56 273.835C274.152 267.852 278.836 249.518 281.582 244.726Z" fill="#FEB93C"/>
<path d="M389.448 260.53C391.619 259.224 394.432 259.898 395.769 262.044C397.112 264.19 396.483 267.015 394.355 268.388C392.955 269.296 391.166 269.377 389.688 268.599C388.204 267.821 387.256 266.306 387.207 264.634C387.157 262.963 388.02 261.394 389.448 260.53Z" fill="#292929"/>
<path d="M291.965 260.545C294.122 259.304 296.875 259.995 298.191 262.108C299.507 264.22 298.914 266.996 296.849 268.386C295.447 269.33 293.642 269.433 292.141 268.654C290.641 267.877 289.684 266.342 289.648 264.652C289.611 262.963 290.5 261.387 291.965 260.545Z" fill="#292929"/>
<path d="M311.844 257.768C313.237 256.862 315.019 256.791 316.482 257.583C317.946 258.374 318.858 259.901 318.858 261.564C318.865 263.227 317.96 264.759 316.503 265.559C314.361 266.734 311.674 266.004 310.423 263.908C309.164 261.811 309.794 259.098 311.844 257.768Z" fill="#292929"/>
<path d="M369.686 257.731C371.843 256.498 374.593 257.242 375.83 259.395C377.075 261.547 376.339 264.298 374.197 265.55C372.034 266.809 369.262 266.072 368.011 263.905C366.759 261.74 367.516 258.97 369.686 257.731Z" fill="#292929"/>
<path d="M12.5958 0.317598C25.2834 -0.191465 41.5918 0.295675 54.6373 0.287897L142.144 0.309107L184.87 0.226392C193.318 0.20306 202.736 -0.15187 211.096 0.934837C215.261 1.47642 217.278 4.55979 219.509 7.76759C221.131 18.9804 220.008 45.5634 220.22 58.1592C220.09 78.8893 220.443 99.6619 219.993 120.385C219.815 128.583 215.697 131.227 208.559 132.846C166.479 133.442 123.17 132.94 80.9883 132.947L36.9113 133.03C0.309013 133.128 0.185991 136.975 0.173264 100.035L0.377598 52.5298C0.375476 39.8053 -0.272187 26.9777 0.133649 14.2893C0.407977 5.72356 4.69257 1.68075 12.5958 0.317598Z" fill="#292929"/>
<path d="M11.127 6.56421C52.0493 5.90738 94.2378 6.4221 135.29 6.42139L181.347 6.42493C189.499 6.42564 197.584 6.40159 205.736 6.58754C215.573 6.81167 214.024 14.3034 214.033 21.9082L214.015 88.5587C214.002 99.862 214.441 112.55 213.074 123.685C212.5 128.369 188.522 126.78 184.965 126.728L182.411 117.957C180.099 110.892 178.567 103.753 175.98 96.7574C174.154 91.8209 169.093 91.3811 164.325 91.3465C128.213 91.1231 92.0707 91.4589 55.9598 91.2602C53.6867 91.2475 48.7615 91.9842 47.4259 93.6055C43.1908 98.747 41.9231 107.303 39.8897 113.512C38.4184 118.004 37.1521 122.446 35.7783 126.765C27.8871 126.654 13.5598 128.593 7.80535 124.137C5.5273 117.884 5.33501 19.2237 6.812 10.407C8.25929 8.12958 8.73797 8.02847 11.127 6.56421Z" fill="#F66630"/>
<path d="M60.6767 36.3068C65.9476 36.012 75.1418 39.2043 78.2019 43.5723C77.3966 49.5693 79.6909 47.4023 81.4408 53.2311C80.755 58.0551 80.9296 55.7502 77.7211 60.1833C78.7018 68.0914 71.0375 65.0936 66.6547 70.0188C57.7899 71.7171 48.0102 62.7046 47.1017 54.0272C46.4159 47.4808 50.6574 50.4164 49.9581 43.8396C53.1447 37.431 55.8802 42.0366 60.6767 36.3068Z" fill="#292929"/>
<path d="M153.328 36.2559C163.486 35.9752 174.761 45.3851 172.564 56.4629C169.707 58.8399 169.032 58.9969 169.753 62.4755C167.311 68.5991 163.896 64.3456 158.876 70.2344C150.322 71.2116 140.477 63.6089 139.198 54.9633C138.453 49.9271 139.922 50.1046 142.596 46.3432L141.959 43.9279C145.49 37.3879 148.642 41.6364 153.328 36.2559Z" fill="#292929"/>
<path d="M199.872 110.701C202.173 109.414 205.082 110.241 206.361 112.546C207.64 114.852 206.803 117.758 204.493 119.029C202.195 120.294 199.306 119.462 198.033 117.168C196.76 114.874 197.582 111.982 199.872 110.701Z" fill="#292929"/>
<path d="M15.3073 110.697C16.843 109.851 18.7202 109.919 20.1901 110.876C21.66 111.833 22.483 113.521 22.3317 115.268C22.1797 117.015 21.0781 118.536 19.4654 119.225C17.1378 120.219 14.4398 119.214 13.3304 116.939C12.2211 114.664 13.0908 111.919 15.3073 110.697Z" fill="#292929"/>
<path d="M200.965 13.1614C202.613 12.7344 204.363 13.2321 205.538 14.4638C206.714 15.6947 207.131 17.4659 206.628 19.092C206.125 20.7182 204.78 21.9449 203.115 22.297C200.62 22.8244 198.16 21.2626 197.575 18.7802C196.991 16.2971 198.496 13.802 200.965 13.1614Z" fill="#292929"/>
<path d="M15.1284 13.8353C16.5608 12.9261 18.3744 12.8645 19.8655 13.6748C21.3566 14.4858 22.2906 16.0405 22.3069 17.7381C22.3224 19.435 21.4167 21.0074 19.9404 21.8452C17.7352 23.0974 14.9333 22.3621 13.6274 20.188C12.3215 18.0138 12.9875 15.1949 15.1284 13.8353Z" fill="#292929"/>
<path d="M50.451 96.1973C74.2539 95.2895 100.612 96.5734 124.668 96.0156C132.038 95.8445 164.219 95.5949 170.151 96.7644C174.164 101.228 178.351 120.309 180.031 126.747L171.23 126.785C128.072 126.694 84.0003 127.331 40.9619 126.658C42.7168 120.106 47.5323 100.874 50.451 96.1973Z" fill="#F66630"/>
<path d="M157.166 112.072C159.697 111.603 162.142 113.233 162.684 115.749C163.225 118.266 161.666 120.757 159.165 121.369C157.483 121.781 155.71 121.247 154.536 119.974C153.362 118.701 152.973 116.89 153.519 115.247C154.066 113.604 155.463 112.388 157.166 112.072Z" fill="#292929"/>
<path d="M61.9239 112.101C63.5946 111.727 65.3361 112.287 66.4758 113.565C67.6155 114.842 67.974 116.636 67.4126 118.253C66.8519 119.871 65.4591 121.057 63.7728 121.354C61.2473 121.8 58.8278 120.146 58.3258 117.631C57.8231 115.116 59.421 112.66 61.9239 112.101Z" fill="#292929"/>
<path d="M137.888 109.244C140.265 109.058 142.392 110.713 142.795 113.063C143.197 115.412 141.742 117.682 139.439 118.297C137.75 118.748 135.951 118.205 134.794 116.895C133.635 115.585 133.318 113.733 133.974 112.112C134.63 110.491 136.145 109.381 137.888 109.244Z" fill="#292929"/>
<path d="M80.4661 109.943C82.6211 108.659 85.4082 109.357 86.7056 111.503C88.003 113.65 87.3236 116.442 85.1848 117.753C83.0269 119.075 80.2051 118.388 78.8964 116.222C77.5877 114.056 78.2919 111.239 80.4661 109.943Z" fill="#292929"/>
<path d="M481.121 0.387539C504.425 0.445515 671.956 -1.12621 678.397 1.67575C680.801 2.72145 683.488 5.15718 684.449 7.62754C687.617 15.781 685.701 81.5286 685.673 95.3107C685.658 102.915 686.38 110.739 685.927 118.315C685.772 121.006 685.213 123.758 683.983 126.171C682.01 130.048 678.878 131.454 675.003 132.777C664.723 133.256 651.763 132.926 641.299 132.929L579.293 132.94L516.43 132.986C505.09 132.991 493.742 133.076 482.401 132.843C469.809 132.585 466.493 128.094 466.507 115.777C466.549 81.8234 465.97 47.8095 466.74 13.8742C466.967 3.69079 471.873 1.13416 481.121 0.387539Z" fill="#292929"/>
<path d="M477.848 6.66031C538.66 5.14019 600.624 7.79438 661.528 6.61435C665.706 6.53304 672.515 6.43264 676.368 7.66924C678.737 10.0625 679.486 13.9951 679.465 17.2969C679.203 50.2537 679.458 83.2226 679.295 116.178C679.281 118.747 678.765 122.078 677.818 124.447C672.975 128.391 656.352 126.805 649.331 126.598L646.567 118.169C644.792 111.695 641.646 96.7736 637.043 92.7244C629.641 90.447 518.934 90.3092 514.317 92.7421C510.181 94.9183 503.81 121.113 501.972 126.652C494.64 126.614 478.951 128.924 474.044 123.8C472.164 115.916 471.626 19.739 473.125 10.7915C474.659 8.33668 475.26 8.20941 477.848 6.66031Z" fill="#FAEFDD"/>
<path d="M526.082 36.2771C531.229 36.0572 540.413 39.4567 543.439 43.5214C542.442 51.6423 553.041 51.0357 542.852 60.5347C542.584 60.7835 543.963 62.3927 543.065 63.6293C539.331 68.7921 536.553 64.8985 532.19 70.0379C528.415 70.438 527.828 70.1305 524.251 68.5856L523.31 68.177C516.367 65.1891 511.446 58.0381 512.669 50.3513C518.043 45.2204 514.416 46.7765 515.759 43.158C517.223 39.229 522.151 41.8068 526.082 36.2771Z" fill="#292929"/>
<path d="M616.97 36.2382C626.848 35.8225 639.009 45.7245 636.385 56.5908C630.581 61.27 634.894 60.705 633.154 63.775C630.729 68.0377 626.996 64.7337 622.528 70.3928C618.349 70.349 608.041 66.7056 605.884 63.0192C606.747 56.6106 603.728 59.127 602.427 53.6581C603.176 49.044 603.19 50.562 606.323 46.3403L605.693 43.9915C608.62 37.7117 610.812 42.8037 616.97 36.2382Z" fill="#292929"/>
<path d="M482.097 110.682C484.367 109.484 487.181 110.332 488.411 112.586C489.641 114.84 488.835 117.665 486.594 118.928C485.123 119.762 483.313 119.736 481.857 118.861C480.407 117.986 479.545 116.397 479.587 114.704C479.637 113.01 480.598 111.473 482.097 110.682Z" fill="#292929"/>
<path d="M481.892 13.8919C483.327 12.9883 485.137 12.9381 486.615 13.7604C488.093 14.5826 489.012 16.1473 488.998 17.8399C488.991 19.5333 488.057 21.0859 486.566 21.8898C484.367 23.0762 481.623 22.3062 480.365 20.1491C479.106 17.9919 479.778 15.2246 481.892 13.8919Z" fill="#292929"/>
<path d="M666.76 13.0999C669.312 13.0144 671.447 15.016 671.532 17.5698C671.61 20.1229 669.609 22.2581 667.05 22.3359C664.504 22.413 662.376 20.4128 662.291 17.8653C662.213 15.3186 664.207 13.1862 666.76 13.0999Z" fill="#292929"/>
<path d="M664.518 110.692C665.968 109.875 667.742 109.898 669.163 110.754C670.592 111.609 671.447 113.163 671.405 114.824C671.369 116.485 670.443 117.997 668.98 118.784C666.745 119.983 663.967 119.162 662.744 116.943C661.52 114.724 662.312 111.936 664.518 110.692Z" fill="#292929"/>
<path d="M516.353 96.1336C521.118 95.8798 526.817 95.9293 531.646 96.0191C565.852 96.6504 600.985 94.9274 635.12 96.2326C638.386 104.608 641.787 117.712 644.389 126.637L635.021 126.813L506.85 126.783C508.597 120.731 514.02 100.609 516.353 96.1336Z" fill="#FAEFDD"/>
<path d="M621.58 112.062C623.906 111.816 626.056 113.333 626.6 115.608C627.145 117.882 625.921 120.21 623.737 121.047C622.047 121.696 620.138 121.307 618.83 120.049C617.529 118.791 617.077 116.893 617.663 115.18C618.25 113.468 619.777 112.252 621.58 112.062Z" fill="#292929"/>
<path d="M526.216 112.761C528.401 111.432 531.243 112.113 532.593 114.287C533.937 116.461 533.279 119.314 531.116 120.676C528.924 122.053 526.039 121.385 524.675 119.187C523.317 116.99 524.003 114.104 526.216 112.761Z" fill="#292929"/>
<path d="M545.928 109.93C547.349 109.1 549.117 109.115 550.531 109.967C551.945 110.819 552.779 112.374 552.708 114.022C552.638 115.669 551.676 117.149 550.198 117.88C548.014 118.959 545.369 118.114 544.217 115.969C543.065 113.825 543.821 111.154 545.928 109.93Z" fill="#292929"/>
<path d="M601.783 109.289C604.131 108.857 606.414 110.33 606.98 112.649C607.553 114.968 606.223 117.331 603.94 118.041C602.342 118.54 600.595 118.108 599.408 116.922C598.22 115.736 597.789 113.99 598.291 112.388C598.785 110.786 600.136 109.593 601.783 109.289Z" fill="#363636"/>
<path d="M248.502 0.350822L382.837 0.324661L421.172 0.23133C428.723 0.207998 436.96 -0.0903646 444.426 0.899479C448.499 1.43894 450.684 4.88996 452.854 8.05039C453.102 11.5566 453.095 15.0967 453.081 18.617C452.904 52.7765 453.625 86.9947 452.875 121.138C452.706 128.742 447.962 131.689 441.139 132.917L312.268 132.947L270.812 133.023C259.482 133.046 235.39 136.77 234.731 121.108C234.069 105.355 234.533 89.4403 234.542 73.6474L234.411 35.1531C234.39 28.0891 234.159 21.0089 234.618 13.9605C235.267 4.01254 239.278 1.38733 248.502 0.350822Z" fill="#292929"/>
<path d="M264.347 6.44258C271.122 6.38389 295.029 5.73767 300.726 6.53449L401.8 6.54297C414.434 6.62358 427.14 6.20007 439.753 6.52035C443.663 6.61933 445.749 8.11259 447 11.8606C447.643 30.8062 447 50.4878 447.064 69.5805L447.212 105.761C447.205 109.562 447.382 118.949 446.908 122.358C442.857 128.021 439.286 126.883 432.796 126.68C430.703 127.071 421.462 126.815 418.811 126.788C416.237 119.614 411.246 95.8693 406.706 92.7619C398.59 90.8275 285.943 90.1445 279.024 93.0327C275.015 97.5025 269.701 119.415 267.418 126.702C262.514 126.822 256.718 127.124 251.906 126.709C246.741 126.873 241.053 126.628 241.01 119.868C240.791 85.3367 240.642 50.7706 240.966 16.2406C241.26 14.42 240.852 9.99895 242.353 8.88467C247.326 5.19255 258.293 6.41712 264.347 6.44258Z" fill="#6B8F8B"/>
<path d="M300.726 6.53445L401.8 6.54292C414.434 6.62353 427.14 6.20002 439.753 6.5203C443.663 6.61929 445.749 8.11254 447 11.8605L446.307 15.5413C444.313 10.5843 442.447 8.63998 436.946 8.42787C424.234 7.9379 411.288 8.26667 398.59 8.45049C375.441 8.72836 352.286 8.79483 329.131 8.64989C317.67 8.55868 299.574 8.67675 288.453 7.3341C288.991 6.92048 298.397 6.80523 300.241 6.59454L300.726 6.53445Z" fill="#C3BFB9"/>
<path d="M251.906 126.709C246.741 126.873 241.053 126.628 241.01 119.868C240.791 85.3366 240.642 50.7705 240.966 16.2406C241.26 14.4199 240.852 9.99889 242.353 8.88461C247.326 5.19249 258.293 6.41706 264.347 6.44252C257.813 9.60507 249.626 6.06213 243.748 11.4101C242.928 14.6087 242.362 18.7279 242.351 22.0396C242.258 49.9009 242.75 77.7615 241.446 105.609C241.231 110.199 241.285 115.945 242.075 120.441C245.596 125.928 246.62 124.472 251.906 126.709Z" fill="#C3BFB9"/>
<path d="M446.555 69.4299L447.064 69.5805L447.212 105.761C447.205 109.562 447.382 118.949 446.908 122.358C446.675 120.106 446.456 117.85 446.258 115.593L445.494 115.839C445.035 114.604 444.922 78.1674 445.233 74.9058C445.501 76.0943 445.777 77.2737 445.954 78.4792L446.477 78.6071L446.555 69.4299Z" fill="#8DA4A3"/>
<path d="M445.233 74.9058C445.247 58.0169 444.384 43.4295 446.272 26.5753C446.569 40.858 446.668 55.1443 446.555 69.4298L446.477 78.6071L445.954 78.4791C445.777 77.2736 445.501 76.0943 445.233 74.9058Z" fill="#FAEFDD"/>
<path d="M445.494 115.839L446.258 115.593C446.456 117.85 446.675 120.106 446.908 122.358C442.857 128.021 439.286 126.883 432.796 126.68C441.068 123.536 444.321 126.573 445.494 115.839Z" fill="#FAEFDD"/>
<path d="M317.903 38.0822C334.321 38.0066 350.738 38.0299 367.148 38.1536C367.664 47.0926 367.459 58.8435 367.353 67.8928C351.183 67.5442 334.151 67.8716 317.917 67.9494L317.903 38.0822Z" fill="#292929"/>
<path d="M322.124 41.7673L363.111 41.7432C363.21 49.0737 363.238 56.4049 363.203 63.7361C349.536 64.0727 335.862 64.1031 322.195 63.8266C322.061 56.4742 322.039 49.1204 322.124 41.7673Z" fill="#6B8F8B"/>
<path d="M289.761 36.2765C294.423 36.0127 304.682 39.5083 306.893 43.8403C305.525 49.7772 308.825 48.4537 309.942 52.7835C311.356 55.3126 306.078 60.078 306.189 60.5898C307.842 68.2088 300.174 64.7585 295.606 70.004C286.619 70.9853 277.188 63.2709 275.877 53.994C275.187 49.1204 278.489 48.9705 278.575 47.5416C279.166 37.7336 284.563 42.673 289.761 36.2765Z" fill="#292929"/>
<path d="M389.533 36.8089C394.531 36.0113 401.185 39.2128 404.437 42.9586C407.647 46.5836 409.195 51.3829 408.715 56.1999C405.78 58.9248 405.285 58.9545 405.936 62.7272C401.984 68.9802 398.844 64.7401 394.503 69.9241C386.082 70.9302 377.146 63.0051 375.59 54.94C374.148 47.4766 379.804 50.0431 378.199 43.9004C381.925 36.8937 383.382 42.6178 389.533 36.8089Z" fill="#292929"/>
<path d="M434.458 13.1331C436.126 12.8248 437.83 13.4385 438.912 14.7388C440.001 16.0383 440.305 17.8242 439.711 19.4108C439.117 20.9981 437.71 22.1414 436.034 22.4023C433.496 22.7982 431.106 21.0808 430.675 18.5461C430.244 16.0114 431.926 13.5997 434.458 13.1331Z" fill="#292929"/>
<path d="M433.468 110.621C435.016 109.923 436.819 110.119 438.183 111.134C439.548 112.149 440.255 113.823 440.036 115.508C439.81 117.194 438.693 118.626 437.109 119.251C434.74 120.185 432.061 119.059 431.071 116.715C430.081 114.372 431.141 111.666 433.468 110.621Z" fill="#292929"/>
<path d="M249.556 110.728C251.793 109.594 254.527 110.445 255.724 112.65C256.921 114.854 256.146 117.61 253.977 118.869C252.518 119.716 250.714 119.703 249.268 118.835C247.821 117.968 246.96 116.382 247.02 114.696C247.08 113.011 248.052 111.49 249.556 110.728Z" fill="#292929"/>
<path d="M251.029 13.1565C253.408 12.7564 255.694 14.2546 256.278 16.5955C256.862 18.9365 255.547 21.3319 253.258 22.0962C251.611 22.6463 249.794 22.2256 248.555 21.0081C247.317 19.7906 246.866 17.9813 247.387 16.3248C247.909 14.6682 249.316 13.4443 251.029 13.1565Z" fill="#292929"/>
<path d="M294.909 95.8382C331.21 96.6654 368.484 95.1163 404.713 96.0128C407.194 101.517 412.144 120.627 413.607 126.741C406.431 126.964 399.551 126.903 392.368 126.829C353.976 127.28 310.586 127.551 272.377 126.716C275.185 116.346 277.849 106.569 281.138 96.3239C285.546 96.0361 290.454 95.9838 294.909 95.8382Z" fill="#6B8F8B"/>
<path d="M292.029 112.775C294.19 111.544 296.939 112.263 298.221 114.394C299.503 116.526 298.85 119.291 296.75 120.624C295.345 121.515 293.569 121.575 292.108 120.781C290.647 119.987 289.731 118.464 289.715 116.801C289.698 115.139 290.584 113.597 292.029 112.775Z" fill="#292929"/>
<path d="M389.688 112.754C391.138 111.962 392.905 112.015 394.305 112.893C395.705 113.771 396.525 115.337 396.447 116.988C396.37 118.641 395.408 120.122 393.93 120.863C391.696 121.982 388.981 121.106 387.822 118.894C386.662 116.681 387.489 113.949 389.688 112.754Z" fill="#292929"/>
<path d="M312.049 109.934C313.484 109.16 315.224 109.223 316.602 110.098C317.981 110.973 318.773 112.524 318.681 114.152C318.596 115.781 317.628 117.233 316.164 117.948C313.958 119.025 311.3 118.139 310.175 115.957C309.058 113.774 309.893 111.097 312.049 109.934Z" fill="#292929"/>
<path d="M369.948 109.893C372.154 108.808 374.819 109.719 375.901 111.927C376.983 114.135 376.071 116.802 373.858 117.88C371.652 118.957 368.993 118.045 367.912 115.84C366.837 113.636 367.742 110.974 369.948 109.893Z" fill="#292929"/>
<path d="M11.198 290.131C54.0194 289.039 100.319 290.062 143.441 290.006L184.059 289.918C192.96 289.897 203.479 289.472 212.271 290.919C215.265 291.412 217.964 295.635 219.56 298.058C220.03 301.555 220.087 305.463 220.081 309.006C220.032 341.848 220.394 374.714 219.933 407.549C219.821 415.527 217.135 418.262 210.002 420.733C199.517 421.295 186.021 420.969 175.405 420.969L114.304 420.94C80.7579 420.899 47.2185 421.205 13.6698 420.892C4.77115 421.15 0.216453 415.109 0.254633 406.516C0.408058 372.28 0.271597 337.939 0.409468 303.698C0.441992 295.734 3.94673 292.291 11.198 290.131Z" fill="#292929"/>
<path d="M10.8044 296.388C73.0133 294.451 136.898 297.518 199.315 296.237C202.709 296.167 207.882 296.33 211.058 297.326C215.88 302.409 213.975 328.642 213.961 336.752L214.113 399.129C214.106 402.276 214.054 411.351 211.613 412.948C206.399 416.36 191.115 414.909 185.076 414.732L182.622 407.247C180.955 401.569 177.668 384.034 172.717 381.365C168.82 379.264 68.4975 379.775 56.6038 380.433C53.5021 380.605 50.3084 380.821 47.4081 381.996C43.3342 386.981 38.0471 407.668 35.914 414.835C1.05025 415.179 6.15925 416.543 6.184 381.74L6.37418 335.865C6.43145 325.249 5.62261 314.138 6.34803 303.64C6.61528 299.769 7.87449 298.639 10.8044 296.388Z" fill="#FAEFDD"/>
<path d="M61.2453 324.754C69.753 324.342 79.9208 331.581 81.0103 340.086C81.6417 345.013 79.9901 344.859 77.577 348.299C79.0999 355.837 71.4258 352.88 66.5784 358.679C65.5723 358.7 63.9836 358.703 63.0348 358.461C57.4139 357.007 52.5827 353.414 49.5736 348.448C47.5437 345.035 46.5736 342.624 47.5479 338.747C49.3261 337.057 49.5142 336.89 50.7741 334.816L50.1788 332.378C53.2572 326.322 55.7771 331.249 61.2453 324.754Z" fill="#292929"/>
<path d="M153.845 324.74C161.217 324.472 170.267 331.289 172.014 338.491C173.696 345.426 171.654 343.744 168.898 348.607L169.537 350.637C168.19 354.296 162.295 354.612 158.507 357.933L157.73 358.624C154.606 358.628 147.6 355.571 145.055 353.44C135.227 345.209 141.551 339.669 142.225 332.204C142.572 328.363 148.92 328.662 151.216 326.744C152.087 326.016 152.92 325.396 153.845 324.74Z" fill="#292929"/>
<path d="M201.472 398.424C203.989 398.066 206.335 399.776 206.764 402.283C207.194 404.789 205.551 407.182 203.057 407.683C201.38 408.019 199.653 407.417 198.548 406.112C197.443 404.807 197.134 403.004 197.742 401.406C198.35 399.807 199.778 398.665 201.472 398.424Z" fill="#292929"/>
<path d="M17.0527 398.456C19.5528 398.15 21.8471 399.875 22.2473 402.362C22.6468 404.849 21.0086 407.206 18.5382 407.699C16.8562 408.034 15.1254 407.423 14.0267 406.107C12.9272 404.79 12.6359 402.978 13.2673 401.382C13.898 399.787 15.3502 398.665 17.0527 398.456Z" fill="#292929"/>
<path d="M199.225 303.739C201.358 302.266 204.281 302.81 205.741 304.951C207.201 307.093 206.638 310.014 204.488 311.459C202.356 312.892 199.468 312.335 198.022 310.214C196.575 308.092 197.113 305.2 199.225 303.739Z" fill="#292929"/>
<path d="M15.1657 303.747C17.3165 302.31 20.2266 302.902 21.6456 305.066C23.0639 307.229 22.4467 310.134 20.2712 311.533C18.1218 312.916 15.2604 312.308 13.8591 310.171C12.4578 308.034 13.041 305.167 15.1657 303.747Z" fill="#292929"/>
<path d="M50.7937 384.817L124.25 384.702C131.905 384.697 164.512 384.024 170.17 385.834C173.851 389.676 178.442 408.537 180.15 414.77L169.29 414.824L40.8267 414.827C42.6805 408.892 47.5237 388.339 50.7937 384.817Z" fill="#FAEFDD"/>
<path d="M157.739 400.579C160.241 400.384 162.451 402.198 162.748 404.691C163.045 407.182 161.324 409.465 158.846 409.865C157.15 410.138 155.44 409.46 154.392 408.099C153.345 406.737 153.127 404.911 153.825 403.342C154.523 401.773 156.026 400.711 157.739 400.579Z" fill="#292929"/>
<path d="M62.3319 400.583C64.6941 400.256 66.9191 401.773 67.4777 404.091C68.0362 406.409 66.7466 408.773 64.4947 409.558C62.8261 410.14 60.9723 409.723 59.713 408.483C58.4538 407.243 58.0091 405.396 58.5648 403.718C59.1205 402.041 60.5813 400.825 62.3319 400.583Z" fill="#292929"/>
<path d="M80.3937 398.464C81.7887 397.581 83.552 397.519 85.0064 398.301C86.4607 399.083 87.3806 400.589 87.4117 402.241C87.4428 403.892 86.5816 405.432 85.1577 406.269C83.0069 407.534 80.2381 406.84 78.9379 404.71C77.6377 402.579 78.2853 399.8 80.3937 398.464Z" fill="#292929"/>
<path d="M135.894 398.42C137.335 397.521 139.159 397.504 140.617 398.375C142.075 399.247 142.924 400.861 142.816 402.555C142.708 404.251 141.661 405.743 140.104 406.423C137.926 407.372 135.386 406.479 134.28 404.378C133.174 402.276 133.879 399.676 135.894 398.42Z" fill="#292929"/>
<path d="M476.123 290.153C482.437 289.684 493.184 289.979 499.724 289.977L545.058 289.987C561.61 289.994 670.373 288.495 677.393 290.942C680.144 291.898 682.88 293.824 684.018 296.595C685.171 299.401 685.51 302.737 685.687 305.742C686.91 325.832 685.835 346.647 685.722 366.806C685.645 379.742 686.62 393.109 685.963 405.971C685.821 408.652 685.319 411.399 684.245 413.87C682.526 417.812 679.514 419.306 675.746 420.749C658.509 421.724 479.036 421.668 474.433 420.098C472.149 419.317 469.272 416.924 468.218 414.728C466.882 411.943 466.62 408.185 466.465 405.131C465.524 386.825 466.387 368.057 466.437 349.703C466.479 335.08 465.666 320.086 466.246 305.507C466.345 302.968 466.783 300.355 467.681 297.971C469.314 293.622 472.093 291.885 476.123 290.153ZM487.308 296.313C483.349 296.08 478.527 295.242 475.585 297.976C472.863 300.504 472.036 303.91 472.121 307.481C472.326 315.921 472.8 324.177 472.878 332.636C472.849 336.751 472.482 348.161 472.863 351.699C472.503 363.848 472.354 379.952 472.842 392.08C474.348 379.861 474.285 370.225 474.207 357.826C474.341 351.818 474.171 345.148 474.143 339.086C474.292 331.329 474.2 320.76 474.058 313.117C473.677 293.082 482.069 300.867 487.308 296.313Z" fill="#292929"/>
<path d="M487.308 296.313L613.831 296.207C624.663 296.203 669.899 295.454 676.828 297.476C680.646 302.624 679.748 326.871 679.246 334.035C680.412 358.401 678.949 384.115 679.246 408.613C679.302 412.823 676.333 414.092 672.826 415.119C669.637 414.631 654.068 414.718 649.954 414.662C648.122 408.612 641.752 384.332 637.991 381.759C626.862 378.866 591.037 380.557 577.744 380.328C567.259 380.149 521.012 379.24 513.532 381.915C509.869 385.957 503.881 407.987 501.59 414.848C498.345 414.904 495.092 414.991 491.847 415.109C470.049 415.758 472.291 411.477 472.842 392.08C474.348 379.861 474.285 370.225 474.207 357.826C474.341 351.818 474.171 345.148 474.143 339.086C474.292 331.329 474.2 320.76 474.058 313.117C473.677 293.082 482.069 300.867 487.308 296.313Z" fill="#F66630"/>
<path d="M672.826 415.119L671.596 414.136C673.123 412.88 676.679 410.428 677.238 408.645C680.455 398.388 674.721 339.35 679.246 334.035C680.412 358.401 678.949 384.115 679.246 408.613C679.302 412.823 676.333 414.092 672.826 415.119Z" fill="#F78D6A"/>
<path d="M526.647 324.707C535.139 324.122 544.875 330.657 546.593 339.162C548.325 347.733 542.619 344.125 544.097 350.731C541.792 356.025 537.189 352.794 532.77 358.331C522.808 359.049 511.686 349.165 513.185 338.597C517.223 335.259 516.021 331.107 520.157 328.228C524.569 328.179 524.279 328.208 526.647 324.707Z" fill="#292929"/>
<path d="M617.027 324.844C621.312 324.31 627.201 326.524 630.425 329.184C633.72 331.952 635.785 335.908 636.166 340.192C636.506 344.088 634.512 351.96 630.941 353.777C626.756 355.907 626.353 353.528 622.782 358.235C612.658 358.992 602.095 349.408 603.325 338.862C606.118 336.061 606.966 335.985 606.146 332.28C609.936 325.387 611.781 331.335 617.027 324.844Z" fill="#292929"/>
<path d="M665.961 398.478C668.449 397.886 670.966 399.363 671.666 401.828C672.366 404.293 670.995 406.869 668.563 407.671C666.894 408.22 665.056 407.811 663.783 406.605C662.503 405.398 661.994 403.588 662.447 401.892C662.899 400.195 664.25 398.885 665.961 398.478Z" fill="#292929"/>
<path d="M665.282 303.016C667.643 302.126 670.288 303.255 671.277 305.577C672.267 307.899 671.249 310.588 668.973 311.675C667.41 312.42 665.565 312.25 664.165 311.23C662.765 310.21 662.044 308.506 662.277 306.791C662.503 305.076 663.663 303.627 665.282 303.016Z" fill="#292929"/>
<path d="M481.553 399.171C483.738 397.798 486.615 398.438 488.008 400.607C489.401 402.775 488.793 405.662 486.636 407.075C484.452 408.507 481.517 407.883 480.103 405.686C478.696 403.489 479.347 400.562 481.553 399.171Z" fill="#292929"/>
<path d="M483.667 303.015C486.156 302.686 488.453 304.395 488.856 306.871C489.252 309.347 487.612 311.694 485.152 312.167C483.49 312.485 481.793 311.877 480.711 310.578C479.63 309.28 479.34 307.496 479.955 305.923C480.57 304.349 481.991 303.235 483.667 303.015Z" fill="#292929"/>
<path d="M516.657 384.845C529.398 384.745 629.697 383.353 635.177 386.068C639.016 390.684 643.187 408.041 645.252 414.901L633.805 414.88C591.751 414.172 549.074 415.292 506.857 414.658C508.512 408.505 513.44 388.687 516.657 384.845Z" fill="#F66630"/>
<path d="M527.927 400.571C530.444 400.17 532.827 401.859 533.279 404.372C533.732 406.886 532.091 409.3 529.589 409.805C527.927 410.14 526.209 409.549 525.099 408.259C523.996 406.969 523.671 405.183 524.258 403.588C524.844 401.993 526.244 400.839 527.927 400.571Z" fill="#292929"/>
<path d="M621.877 400.511C624.437 400.211 626.756 402.031 627.074 404.585C627.392 407.139 625.589 409.47 623.037 409.805C620.456 410.142 618.102 408.317 617.777 405.739C617.458 403.161 619.297 400.815 621.877 400.511Z" fill="#292929"/>
<path d="M547.695 397.764C549.336 397.527 550.969 398.196 551.973 399.511C552.977 400.827 553.189 402.582 552.525 404.098C551.867 405.615 550.432 406.653 548.784 406.811C546.324 407.047 544.125 405.275 543.828 402.818C543.531 400.362 545.249 398.118 547.695 397.764Z" fill="#292929"/>
<path d="M602.505 397.738C604.88 397.53 607.015 399.193 607.397 401.551C607.779 403.908 606.273 406.159 603.947 406.709C602.285 407.102 600.546 406.534 599.436 405.237C598.326 403.941 598.036 402.133 598.679 400.553C599.33 398.974 600.801 397.888 602.505 397.738Z" fill="#292929"/>
<path d="M472.878 332.636C472.8 324.177 472.326 315.921 472.121 307.481C472.036 303.91 472.863 300.504 475.586 297.976C478.527 295.242 483.349 296.08 487.308 296.313C482.069 300.867 473.677 293.082 474.058 313.117C474.2 320.76 474.292 331.329 474.143 339.086C473.875 336.831 473.38 334.844 472.878 332.636Z" fill="#F78D6A" fill-opacity="0.941176"/>
<path d="M472.863 351.699C473.464 353.913 473.966 355.505 474.207 357.826C474.285 370.225 474.348 379.861 472.842 392.08C472.354 379.952 472.503 363.848 472.863 351.699Z" fill="#F5CABA" fill-opacity="0.980392"/>
<path d="M472.877 332.636C473.379 334.844 473.874 336.83 474.143 339.086C474.171 345.148 474.341 351.818 474.207 357.826C473.966 355.505 473.464 353.913 472.863 351.699C472.481 348.161 472.849 336.751 472.877 332.636Z" fill="#F4BDAD" fill-opacity="0.854902"/>
<path d="M245.125 290.077C258.536 289.483 276.025 289.988 289.666 289.986L375.986 289.971L419.546 289.975C427.331 289.977 436.706 289.642 444.398 290.683C448.153 291.192 450.91 295.471 452.897 298.458C453.434 309.697 454.544 408.002 451.815 414.363C450.267 417.969 446.795 419.395 443.401 420.745C379.168 422.339 313.986 420.065 249.661 421.017C244.965 421.087 235.891 418.775 235.456 413.128C232.697 377.298 235.603 340.622 234.309 304.587C234.039 296.945 238.369 292.478 245.125 290.077Z" fill="#292929"/>
<path d="M412.645 296.313C417.934 295.635 424.418 295.814 429.727 296.34C437.384 296.086 444.052 293.984 447.057 302.153C447.325 307.407 447.523 319.646 447.283 324.972V381.506C447.262 387.518 447.474 404.747 446.816 410.196C443.267 416.372 438.325 415.05 431.841 414.902C428.914 415.197 422.113 414.915 418.896 414.873C415.516 405.804 413.741 396.11 410.242 387.078C409.485 385.107 408.488 382.389 406.367 381.617C399.516 379.114 300 379.764 287.795 380.463C284.75 380.637 281.522 380.891 278.691 382.099C274.953 386.362 269.801 407.594 267.275 414.769C244.545 415.985 238.12 415.544 240.955 389.645L240.819 360.288L240.773 321.986C240.769 315.419 240.611 308.672 241.083 302.138C241.636 294.501 252.704 296.168 258.081 296.347C262.815 295.821 290.515 295.723 294.648 296.318C333.203 296.176 374.183 295.606 412.645 296.313Z" fill="#6B8F8B"/>
<path d="M294.648 296.318C333.203 296.176 374.183 295.606 412.645 296.313C407.484 299.693 304.741 298.085 294.578 297.303L294.648 296.318Z" fill="#C3BFB9"/>
<path d="M240.955 389.645L240.819 360.288L240.773 321.986C240.769 315.419 240.611 308.672 241.083 302.138C241.636 294.501 252.704 296.168 258.081 296.347C254.038 298.811 244.184 297.281 243.432 301.96C241.096 316.515 242.421 338.508 242.409 352.872C242.482 365.146 241.998 377.416 240.955 389.645Z" fill="#FAEFDD"/>
<path d="M445.381 401.513C445.827 387.791 443.903 333.644 447.283 324.972V381.506C447.262 387.518 447.474 404.746 446.816 410.196C446.526 407.175 446.534 404.203 446.194 400.931L445.381 401.513Z" fill="#8DA4A3"/>
<path d="M445.381 401.513L446.194 400.931C446.533 404.204 446.526 407.175 446.816 410.196C443.267 416.372 438.325 415.05 431.841 414.902C439.916 410.279 444.978 416.896 445.381 401.513Z" fill="#FAEFDD"/>
<path d="M429.727 296.34C437.384 296.086 444.052 293.984 447.057 302.153L446.357 303.049L445.791 302.466C437.582 294.08 437.038 300.476 429.727 296.34Z" fill="#FAEFDD"/>
<path d="M290.883 324.645C295.856 324.383 304.813 327.725 307.757 331.764C307.39 342.651 315.895 336.41 307.467 348.314L307.962 350.736C305.298 356.535 302.064 351.982 296.971 358.316C295.363 358.4 293.534 358.6 292.048 357.981C290.318 357.264 288.607 356.504 286.916 355.7C277.848 351.279 273.315 340.97 280.296 334.478C280.531 334.258 279.154 332.421 279.968 331.426C284.295 326.14 286.08 330.151 290.883 324.645Z" fill="#292929"/>
<path d="M387.298 324.643C392.375 324.378 400.852 327.743 403.914 331.81C403.836 333.937 403.85 334.074 404.232 336.171C407.307 339.893 407.597 339.674 406.812 344.221C403.666 346.612 403.362 346.755 403.907 350.461C401.474 356.654 398.222 351.662 393.011 358.143C383.374 358.567 371.171 349.385 372.847 338.848C375.731 336.097 376.46 336.126 375.972 332.333C379.288 325.806 382.017 330.776 387.298 324.643Z" fill="#292929"/>
<path d="M249.5 399.155C251.738 397.975 254.51 398.809 255.724 401.029C256.939 403.249 256.146 406.033 253.945 407.281C252.491 408.106 250.705 408.082 249.273 407.22C247.841 406.359 246.984 404.792 247.031 403.122C247.078 401.451 248.021 399.935 249.5 399.155Z" fill="#292929"/>
<path d="M434.132 303.012C436.508 302.349 438.989 303.667 439.767 306.01C440.545 308.353 439.35 310.894 437.052 311.787C435.461 312.405 433.651 312.096 432.357 310.983C431.064 309.87 430.484 308.134 430.859 306.466C431.226 304.799 432.485 303.471 434.132 303.012Z" fill="#292929"/>
<path d="M433.128 399.173C435.327 397.911 438.134 398.666 439.4 400.861C440.665 403.056 439.923 405.863 437.731 407.136C435.525 408.413 432.711 407.662 431.438 405.459C430.166 403.256 430.922 400.439 433.128 399.173Z" fill="#292929"/>
<path d="M250.827 303.048C253.204 302.539 255.564 303.974 256.207 306.319C256.849 308.663 255.55 311.102 253.245 311.875C251.634 312.416 249.856 312.021 248.625 310.849C247.395 309.678 246.913 307.921 247.375 306.285C247.837 304.649 249.165 303.403 250.827 303.048Z" fill="#292929"/>
<path d="M282.026 384.767C298.363 384.762 395.67 383.087 404.14 385.913C407.59 389.999 412.221 408.709 413.989 414.901L402.818 415.044L271.989 414.943C273.688 408.923 279.042 388.255 282.026 384.767Z" fill="#6B8F8B"/>
<path d="M291.879 401.263C294.027 399.915 296.858 400.533 298.248 402.654C299.638 404.773 299.076 407.616 296.984 409.048C295.593 410 293.797 410.126 292.287 409.378C290.776 408.629 289.789 407.123 289.705 405.439C289.62 403.757 290.452 402.159 291.879 401.263Z" fill="#292929"/>
<path d="M389.193 401.271C391.35 399.933 394.178 400.574 395.549 402.71C396.914 404.847 396.313 407.686 394.199 409.084C392.799 410.007 391.017 410.106 389.526 409.344C388.041 408.582 387.072 407.078 387.001 405.405C386.938 403.734 387.772 402.154 389.193 401.271Z" fill="#292929"/>
<path d="M311.978 398.474C313.428 397.6 315.252 397.606 316.694 398.49C318.144 399.374 318.978 400.989 318.865 402.681C318.752 404.374 317.712 405.863 316.157 406.546C313.958 407.513 311.384 406.605 310.281 404.471C309.171 402.337 309.914 399.712 311.978 398.474Z" fill="#292929"/>
<path d="M369.771 398.443C371.913 397.287 374.593 398.058 375.795 400.178C377.004 402.299 376.29 404.993 374.204 406.245C372.804 407.082 371.065 407.096 369.651 406.283C368.244 405.47 367.381 403.957 367.41 402.329C367.431 400.702 368.336 399.214 369.771 398.443Z" fill="#292929"/>
<path d="M818.801 122.465C826.178 122.515 843.37 121.005 849.559 123.329C854.05 125.016 880.185 180.375 884.381 188.984C891.729 174.528 899.001 160.031 906.194 145.497C909.422 139.034 914.369 128.349 918.05 122.457C923.806 122.519 943.457 122.07 947.86 123.162C949.451 124.915 949.565 126.102 947.805 128.064C941.911 134.633 942.537 145.416 942.53 154.348L942.593 190.082C942.614 196.113 942.463 202.569 942.869 208.566C943.1 211.974 948.213 221.738 948.099 224.668C945.848 226.05 916.347 227.322 913.872 223.466C914.411 220.628 916.498 218.409 918.296 216.008C919.091 206.405 918.947 196.78 918.836 187.157C918.943 177.237 919.151 167.384 918.643 157.471C908.401 174.861 894.436 205.226 885.142 224.127C881.526 224.205 877.732 224.15 874.099 224.154C867.722 209.425 859.255 194.8 852.567 180.128C849.353 173.076 845.4 165.041 841.546 158.369C842.505 175.839 841.139 193.636 842.068 211.152C842.392 217.257 847.901 221.033 845.794 224.969C842.205 225.857 821.341 226.512 818.625 225.111C816.409 219.8 823.286 218.552 823.588 214.092C825.317 188.515 824.779 161.8 824.176 136.149C824.047 130.655 816.236 129.951 818.801 122.465Z" fill="#292929"/>
<path d="M1427.69 122.525C1436.83 122.263 1447.62 122.477 1456.74 122.619C1460.01 127.989 1465.39 139.796 1468.33 145.761C1475.54 160.111 1482.54 174.558 1489.36 189.097C1497.78 169.322 1512.02 143.112 1521.61 122.617C1526.36 122.556 1531.15 122.283 1535.88 122.254C1540.67 122.224 1549.32 120.602 1551.22 125.948C1550.72 128.747 1548.92 130.109 1546.88 132.244C1543.04 154.332 1547.11 186.91 1545.76 209.787C1545.5 214.099 1550.59 219.752 1550.52 224.577L1549.4 225.556C1546.56 226.024 1520.45 226.135 1518.79 225.409C1516.02 221.056 1520.42 220.021 1521.25 216.737C1522.99 209.908 1522.31 197.858 1522.23 190.638C1522.14 179.702 1522.19 168.766 1522.37 157.831C1511.11 179.369 1500.92 202.358 1489.78 224.152C1486.49 224.223 1482.99 224.163 1479.67 224.164C1469.18 203.114 1458.7 180.726 1448.64 159.412C1449.24 176.886 1448.22 195.147 1448.96 212.651C1449.07 215.418 1453.05 219.953 1453.41 224.192C1451.12 226.562 1430.45 226.507 1427.4 224.996C1425.48 220.133 1431.16 218.591 1431.5 214.868C1433.86 189.63 1432.32 162.929 1432.29 137.491C1432.28 131.882 1425.34 129.384 1427.69 122.525Z" fill="#3E666A"/>
<path d="M1275.01 156.576C1327.25 152.795 1311.1 251.728 1256.3 220.786C1256.22 229.128 1256.08 236.136 1256.89 244.455C1258.78 246.846 1260.12 248.184 1261.08 251.089C1260.54 253.38 1261.12 252.448 1259.22 253.939C1254.49 253.886 1231.3 254.795 1229.13 252.542C1229.24 248.169 1233.25 243.948 1233.43 240.224C1234.27 222.849 1233.72 205.357 1233.85 187.961C1233.9 182.015 1233.99 175.432 1233.03 169.572L1232.85 168.555C1231.02 166.65 1229.79 165.77 1229.19 163.227C1231.16 157.095 1249.45 156.83 1254.94 157.538C1256.27 159.788 1256.02 162.667 1256.12 165.406C1263.35 159.471 1265.86 157.717 1275.01 156.576ZM1256.64 205.7C1259.05 209.501 1261.42 212.646 1266.13 213.84C1268.57 214.434 1271.12 214.354 1273.51 213.61C1287.91 204.043 1287.94 167.894 1265.57 169.805C1252.76 177.072 1256.2 192.689 1256.64 205.7Z" fill="#292929"/>
<path d="M1590.01 156.029C1609.58 153.022 1627.91 166.396 1631.01 185.954C1634.11 205.511 1620.83 223.898 1601.28 227.093C1581.61 230.31 1563.07 216.913 1559.94 197.223C1556.82 177.532 1570.31 159.056 1590.01 156.029ZM1598.1 215.301C1600.85 213.689 1601.98 213.069 1603.75 210.209C1609.51 200.849 1609.9 170.108 1596 167.224C1595.03 167.017 1594.05 166.907 1593.06 166.896C1588.23 169.669 1586.26 172.437 1585.06 177.885C1582.65 188.764 1581.51 215.759 1598.1 215.301Z" fill="#3E666A"/>
<path d="M1731.96 156.61C1767.55 154.713 1768.76 171.374 1767.5 201.92C1767.1 211.598 1766.59 211.521 1774.68 215.581C1776.19 219.762 1772.14 224.682 1768.23 225.641C1758.39 228.058 1749.75 227.52 1746.1 216.672C1734.55 227.844 1718.58 231.917 1706.06 219.669C1705.81 219.296 1705.58 218.917 1705.35 218.531C1702.87 214.271 1701.49 207.19 1702.96 202.529C1708.45 185.202 1737.17 186.223 1744.43 182.224C1747.5 175.899 1742.09 165.649 1733.57 166.046C1726.12 169.05 1730.31 182.439 1719.89 184.098C1709.05 185.826 1701 174.544 1708.89 166.18C1715.18 159.5 1723.12 157.326 1731.96 156.61ZM1731.48 213.186C1735.65 213.006 1738.55 212.849 1741.73 209.483C1745.01 205.997 1747.76 197.373 1744.61 193.336C1743.83 193.304 1742.43 193.198 1741.73 193.232C1735.53 194.465 1730.28 195.89 1726.56 201.471C1723.32 206.35 1727.03 211.051 1731.48 213.186Z" fill="#3E666A"/>
<path d="M1179.51 156.638C1215.22 152.986 1215.72 176.198 1214.13 203.281C1213.28 217.691 1218.89 211.443 1222.34 215.876C1223.86 226.558 1205.52 229.103 1198.54 224.72C1194.36 222.09 1194.37 220.682 1193.07 216.321C1181.52 227.04 1166.08 231.937 1153.21 220.235C1140.27 201.512 1157.5 188.515 1174.95 185.906C1180.41 185.089 1186.27 183.953 1191.71 182.971C1191.75 177.477 1192.28 171.381 1187.07 168.018C1184.25 166.197 1183.3 165.329 1179.88 165.831C1174.12 168.872 1174.91 175.855 1171.3 180.515C1162.93 191.313 1145.31 177.038 1154.73 166.653C1161.31 159.383 1170.13 157.484 1179.51 156.638ZM1177.07 213.027C1181.21 213.113 1184.56 213.336 1187.79 210.148C1190.94 207.032 1192.64 202.743 1192.49 198.316C1192.43 196.048 1192.34 195.453 1191.42 193.468C1189.86 192.923 1189.88 193.038 1188.21 193.227C1182.21 194.353 1170.1 197.711 1171.58 206.877C1171.98 209.315 1174.9 211.832 1177.07 213.027Z" fill="#292929"/>
<path d="M1347.32 156.53C1363.82 155.541 1384.73 164.044 1382.91 186.355C1381.92 198.485 1347.43 189.616 1339.91 194.171C1338.97 194.738 1339.18 195.511 1339.02 196.631C1346.57 218.094 1360.98 213.915 1376.02 205.243C1377.33 204.485 1379.91 206.413 1381.05 207.154C1383.31 226.224 1342.45 232.696 1328.52 220.201C1304.07 198.258 1313.95 161.327 1347.32 156.53ZM1338.44 183.159L1351.4 183.201C1353.75 183.204 1358.22 183.53 1360.07 182.526C1364.25 176.16 1356.85 167.704 1350.12 166.301C1341.02 168.999 1340.27 174.898 1338.44 183.159Z" fill="#292929"/>
<path d="M1007.51 157.307C1013.97 157.507 1034.56 157.032 1039.12 158.507C1040.22 162.295 1036.32 164.711 1041.03 169.963C1042.22 171.282 1045.45 176.255 1046.69 178.006C1048.41 175.907 1050.09 173.79 1051.76 171.656C1058.56 162.835 1051.08 162.732 1054.89 157.967C1057.44 157.369 1077.01 157.181 1079.86 158.17L1080.48 159.455C1079.87 165.839 1075.33 164.199 1071.87 167.925C1065.81 174.442 1059.99 181.361 1054.17 188.107C1064.22 201.35 1071.46 210.239 1081.92 222.715L1081.41 224.664C1078.89 226.177 1078.31 225.688 1075.11 225.751C1069.75 225.554 1050.64 226.679 1047.69 224.645C1047.08 222.146 1048.09 220.073 1048.89 217.514C1045.67 212.703 1042.16 207.917 1038.78 203.202C1035.12 207.936 1027.5 215.876 1029.25 222.443C1029.58 223.664 1029.78 224.057 1029.27 225.22C1025.04 226.254 1012.2 225.486 1007.14 225.655C1005.23 225.718 1004.4 224.74 1003.47 223.489C1005.22 220.805 1012.29 213.963 1014.91 211.16C1020.39 205.214 1025.73 199.147 1030.94 192.961C1024.66 184.363 1018.14 175.028 1011.3 166.851C1008.53 163.543 1005.05 165.099 1004.5 159.788C1005.71 157.77 1005.14 158.442 1007.51 157.307Z" fill="#292929"/>
<path d="M1663.12 156.57C1672.87 155.985 1685.03 156.853 1690.9 165.975C1694.14 171.294 1693.66 177.139 1687.67 179.763C1678.93 183.589 1675.58 178.682 1672.37 171.519C1670.95 168.354 1670.2 166.696 1666.67 165.649C1662.46 166.301 1659.69 168.587 1659.45 172.931C1662.05 183.038 1693.67 186.666 1694.29 202.704C1694.91 219.056 1685.01 225.488 1670.03 226.506C1669.29 226.563 1668.54 226.602 1667.79 226.623C1659.44 226.898 1647.65 226.248 1641.26 220.038C1634.59 213.151 1637.42 200.809 1648.56 201.177C1658.35 201.5 1658.39 226.774 1671.03 214.008C1674.22 209.942 1670.61 205.851 1667.11 203.568C1657.99 197.632 1641.41 193.644 1639.54 181.003C1638.24 172.228 1642.84 163.975 1650.52 159.913C1655.24 157.417 1657.85 157.217 1663.12 156.57Z" fill="#3E666A"/>
<path d="M1852.21 156.587C1862.72 156.101 1873.21 157.111 1879.15 167.343C1882.76 173.76 1881.28 180.369 1874.65 183.038C1859.41 189.169 1860.56 179.461 1857.59 168.815C1856.73 165.752 1851.25 166.844 1849.1 168.792C1840.07 176.895 1840.78 197.484 1848.27 206.475C1856.26 216.047 1865.99 212.812 1873.79 205.643C1875.29 203.906 1876.95 204.058 1878.86 204.664C1879.68 205.652 1880.42 206.179 1880.5 207.436C1880.41 219.333 1871.17 224.112 1860.99 226.132C1819.19 234.422 1805.32 180.226 1838.14 160.417C1842.56 157.746 1846.74 157.152 1852.21 156.587Z" fill="#3E666A"/>
<path d="M1110.3 135.881C1113.63 135.678 1117.64 135.828 1121.03 135.873C1121.55 141.687 1121.36 151.184 1121.42 157.29C1127.75 157.466 1134.08 157.603 1140.42 157.7C1140.48 160.934 1141.13 163.9 1139.53 166.512C1135.77 169.809 1127.43 168.357 1121.41 168.316C1121.32 177.862 1121.19 187.415 1121.18 196.965C1121.17 201.579 1120.7 209.123 1124.98 212.088C1130.42 215.864 1136.6 207.728 1141.35 211.174C1143.28 216.275 1140.96 218.465 1137.55 221.991C1128.86 227.768 1111.26 229.399 1104.45 221.417C1095.77 211.246 1098.84 181.744 1098.95 168.312C1094.42 168.449 1090.93 168.799 1087 166.289C1085.04 159.292 1100.05 155.822 1103.43 151.681C1106.29 148.17 1108.47 140.406 1110.3 135.881Z" fill="#292929"/>
<path d="M984.631 158.529C987.398 158.598 986.859 158.158 988.637 159.545C990.547 164.818 989.672 207.852 989.965 217.056C992.093 219.884 993.21 220.681 992.527 224.125C988.696 227.564 974.57 225.732 966.654 226.441C963.625 225.975 962.408 226.034 961.813 222.865C962.597 220.046 963.708 219.139 965.623 216.93C966.578 205.791 967.553 182.738 965.522 172.071C962.964 169.493 961.288 168.751 962.492 165.01C966.053 161.597 978.428 160.072 984.631 158.529Z" fill="#F66630"/>
<path d="M1805.01 157.907C1806.8 157.711 1806.75 157.58 1808.32 158.388C1810.2 163.166 1809 207.001 1809.56 216.764C1811.87 219.653 1813.97 220.998 1812.13 224.559C1808.22 226.782 1793.07 225.823 1786.4 226.258C1783.8 225.823 1783.4 225.78 1782.41 223.565C1782.8 220.757 1784.54 218.912 1786.25 216.543C1787.43 205.818 1786.56 188.022 1786.77 176.853C1786.85 172.368 1781.7 168.379 1782.17 164.494C1784.6 161.992 1800.11 159.128 1805.01 157.907Z" fill="#3E666A"/>
<path d="M975.6 130.258C992.63 129.751 996.941 147.602 980.165 153.726C973.406 153.91 966.656 152.372 964.605 144.844C963.76 141.801 964.294 138.541 966.066 135.926C968.527 132.287 971.617 131.164 975.6 130.258Z" fill="#F66630"/>
<path d="M1792.99 126.777C1799.31 126.217 1805.41 126.446 1809.08 132.67C1810.66 135.318 1810.99 138.531 1809.96 141.442C1808.33 146.202 1805.66 147.6 1801.6 149.764C1795.63 150.52 1789.92 150.217 1786.21 144.623C1784.52 142.081 1784 138.934 1784.79 135.986C1786.07 131.096 1789.01 129.08 1792.99 126.777Z" fill="#3E666A"/>
<path d="M850.986 291.496C851.034 290.392 851.034 285.208 850.986 284.104C850.89 281.416 850.794 277.672 847.29 277.672C844.266 277.672 844.362 281.608 841.674 281.608C838.842 281.608 838.074 278.008 835.05 278.008C832.506 278.008 832.17 279.448 831.306 281.56V290.2C831.306 291.592 830.154 292.792 828.858 292.792C827.946 292.792 827.562 292.648 826.986 291.496C826.938 289.048 826.698 277.624 826.65 275.176C826.65 274.888 826.65 271.432 826.65 270.184C826.65 269.464 826.65 265.96 826.65 265.24C827.226 264.136 827.61 263.896 828.522 263.896C830.97 263.896 831.69 266.344 833.082 267.784C833.802 268.6 837.402 272.152 838.17 272.92C839.034 273.496 840.186 273.88 841.242 273.88C847.674 273.88 846.906 263.944 852.906 263.944C854.01 263.944 854.778 264.136 855.162 265.24C854.922 273.448 855.834 281.272 855.834 289.384C855.834 289.768 855.786 291.448 855.786 291.784C855.306 293.128 854.49 293.176 853.434 293.176C852.234 293.176 851.322 292.696 850.986 291.496ZM870.653 289.864C870.605 289.288 870.605 286.456 870.605 285.88C870.605 278.968 871.997 272.152 871.613 265.24C871.901 264.184 872.573 263.896 873.581 263.896C876.797 263.896 876.125 268.408 876.125 270.376C876.125 274.552 875.741 278.68 875.741 282.856C875.741 285.64 876.077 288.424 876.077 291.208C876.077 292.168 875.165 293.128 874.253 293.128C872.141 293.128 870.989 291.88 870.653 289.864ZM890.749 291.832C890.749 291.112 891.325 290.392 891.709 289.864C894.349 287.224 900.061 282.856 900.061 278.056C900.061 271.672 891.709 268.456 891.709 264.424C891.709 263.176 893.197 263.272 894.109 263.272C899.485 263.272 899.245 270.376 904.333 270.376C908.941 270.376 909.277 264.232 913.885 264.232C914.797 264.232 916.381 264.376 916.381 265.672C916.381 270.424 908.029 272.92 908.029 278.872C908.029 283.576 914.029 287.992 916.669 290.536C917.197 291.016 917.341 291.256 917.341 291.784C917.341 293.128 916.141 293.08 915.085 293.08C909.373 293.08 908.701 285.688 903.373 285.688C897.997 285.688 899.005 293.128 893.437 293.128C892.669 293.128 890.749 293.128 890.749 291.832ZM938.252 290.2C938.252 289.672 938.204 287.224 938.204 286.696C938.204 282.952 938.588 279.208 938.588 275.464C938.588 274.984 938.588 272.776 938.54 272.296C937.82 265.672 929.9 268.6 929.9 265.816C929.9 264.904 930.668 264.184 931.532 263.944C931.82 263.944 933.308 263.944 933.596 263.944C939.02 263.944 944.3 264.424 949.772 264.28C949.916 264.424 950.588 265.096 950.732 265.24C950.732 265.24 950.732 265.336 950.732 265.384C950.732 267.88 944.78 267.976 943.34 270.376C941.372 273.688 942.044 278.536 942.044 282.232C942.044 285.112 942.428 287.992 942.428 290.92C942.428 291.88 941.9 292.792 940.844 292.792C939.26 292.792 938.588 291.592 938.252 290.2ZM958.69 291.976C958.69 291.88 958.738 291.544 958.738 291.496C961.522 285.496 964.978 263.896 971.842 263.896C972.898 263.896 973.762 263.992 974.386 264.904C976.45 267.976 976.93 272.392 978.562 275.8C979.57 277.864 984.274 287.512 985.282 289.576C985.666 290.2 985.618 290.776 985.618 291.496C985.618 292.792 985.09 293.128 983.794 293.128C979.81 293.128 980.482 286.312 971.362 286.312C963.682 286.312 963.97 293.128 960.37 293.128C959.554 293.128 958.69 292.888 958.69 291.976ZM968.002 278.824C968.002 281.224 969.01 283.192 971.602 283.192C973.138 283.192 974.962 282.712 975.346 280.936C975.394 280.648 975.394 279.4 975.394 279.16C975.394 276.472 974.194 272.248 971.41 272.248C969.01 272.248 968.002 276.664 968.002 278.824ZM999.879 289.576C999.543 282.088 999.543 278.728 999.543 271.96C999.543 271 999.543 266.536 999.543 265.576C999.783 264.664 1000.84 263.656 1001.8 263.656H1013.66C1017.59 263.656 1021 266.728 1021 270.664C1021 282.184 1004.1 276.856 1003.72 291.784C1003.53 292.456 1003.05 293.128 1002.33 293.128C1000.41 293.128 1000.02 291.064 999.879 289.576ZM1004.01 272.92C1004.01 275.32 1005.59 277.72 1008.18 277.72C1011.59 277.72 1014.95 275.272 1014.95 271.768C1014.95 268.6 1012.46 267.448 1009.62 267.448C1006.31 267.448 1004.01 269.416 1004.01 272.92ZM1036.37 293.08C1035.51 292.84 1034.84 292.072 1034.74 291.16C1034.74 290.296 1034.74 286.264 1034.74 285.4C1034.74 283.96 1034.74 279.928 1034.74 279.64C1034.79 277.816 1035.27 269.32 1035.41 267.496C1035.56 266.056 1036.13 264.04 1037.96 263.944C1043.19 263.944 1048.42 263.992 1053.65 264.28C1054.37 264.52 1054.95 265.096 1054.95 265.912C1054.95 266.344 1053.84 267.64 1053.32 267.64H1044.34C1042.18 268.504 1039.88 269.128 1039.88 271.96C1039.88 278.248 1050.34 276.952 1053.94 277.096C1054.18 277.24 1054.9 277.96 1054.9 278.344C1054.9 279.448 1053.75 280.552 1052.69 280.6C1051.2 280.552 1049.48 280.36 1047.65 280.36C1044.96 280.36 1042.23 280.792 1040.5 282.856C1040.4 282.952 1040.21 283.384 1040.21 283.48V286.984C1040.21 289.24 1044.68 289.864 1045.97 289.864C1046.55 289.864 1051.16 289.576 1051.73 289.576C1051.83 289.528 1052.88 289.528 1053.22 289.528C1054.32 289.528 1055.57 289.864 1055.57 291.256C1055.57 292.216 1054.9 293.128 1053.94 293.416C1053.08 293.416 1048.95 293.416 1048.04 293.416C1043.72 293.416 1040.64 293.464 1036.37 293.08ZM1094.84 291.496C1094.88 290.392 1094.88 285.208 1094.84 284.104C1094.74 281.416 1094.64 277.672 1091.14 277.672C1088.12 277.672 1088.21 281.608 1085.52 281.608C1082.69 281.608 1081.92 278.008 1078.9 278.008C1076.36 278.008 1076.02 279.448 1075.16 281.56V290.2C1075.16 291.592 1074 292.792 1072.71 292.792C1071.8 292.792 1071.41 292.648 1070.84 291.496C1070.79 289.048 1070.55 277.624 1070.5 275.176C1070.5 274.888 1070.5 271.432 1070.5 270.184C1070.5 269.464 1070.5 265.96 1070.5 265.24C1071.08 264.136 1071.46 263.896 1072.37 263.896C1074.82 263.896 1075.54 266.344 1076.93 267.784C1077.65 268.6 1081.25 272.152 1082.02 272.92C1082.88 273.496 1084.04 273.88 1085.09 273.88C1091.52 273.88 1090.76 263.944 1096.76 263.944C1097.86 263.944 1098.63 264.136 1099.01 265.24C1098.77 273.448 1099.68 281.272 1099.68 289.384C1099.68 289.768 1099.64 291.448 1099.64 291.784C1099.16 293.128 1098.34 293.176 1097.28 293.176C1096.08 293.176 1095.17 292.696 1094.84 291.496ZM1113.5 278.68C1113.5 270.232 1119.88 263.272 1128.38 263.272C1137.06 263.272 1143.98 269.128 1143.98 278.056C1143.98 286.168 1138.6 293.752 1130.01 293.752C1121.08 293.752 1113.5 287.896 1113.5 278.68ZM1118.01 278.824C1118.01 285.16 1123.24 289.576 1129.38 289.576C1135.72 289.576 1139.18 284.872 1139.18 278.824C1139.18 272.152 1134.18 267.448 1127.46 267.448C1121.03 267.448 1118.01 272.968 1118.01 278.824ZM1157.81 288.04C1157.81 287.128 1158.1 286.648 1159.06 286.648C1162.08 286.648 1164.05 289.912 1167.46 289.912C1170.19 289.912 1172.93 288.616 1172.93 285.544C1172.93 277.768 1157.52 281.608 1157.52 272.104C1157.52 266.152 1162.95 262.984 1168.42 262.984C1171.63 262.984 1176.43 263.896 1176.43 267.976C1176.43 268.888 1176.1 270.088 1174.99 270.088C1172.26 270.088 1170.43 266.824 1167.46 266.824C1164.77 266.824 1162.61 268.408 1162.61 271.144C1162.61 279.64 1178.02 275.944 1178.02 285.4C1178.02 291.016 1172.64 293.752 1167.6 293.752C1164.15 293.752 1157.81 292.6 1157.81 288.04ZM1191.25 291.976C1191.25 291.88 1191.3 291.544 1191.3 291.496C1194.08 285.496 1197.54 263.896 1204.4 263.896C1205.46 263.896 1206.32 263.992 1206.95 264.904C1209.01 267.976 1209.49 272.392 1211.12 275.8C1212.13 277.864 1216.83 287.512 1217.84 289.576C1218.23 290.2 1218.18 290.776 1218.18 291.496C1218.18 292.792 1217.65 293.128 1216.35 293.128C1212.37 293.128 1213.04 286.312 1203.92 286.312C1196.24 286.312 1196.53 293.128 1192.93 293.128C1192.11 293.128 1191.25 292.888 1191.25 291.976ZM1200.56 278.824C1200.56 281.224 1201.57 283.192 1204.16 283.192C1205.7 283.192 1207.52 282.712 1207.91 280.936C1207.95 280.648 1207.95 279.4 1207.95 279.16C1207.95 276.472 1206.75 272.248 1203.97 272.248C1201.57 272.248 1200.56 276.664 1200.56 278.824ZM1231.82 289.864C1231.77 289.288 1231.77 286.456 1231.77 285.88C1231.77 278.968 1233.16 272.152 1232.78 265.24C1233.06 264.184 1233.74 263.896 1234.74 263.896C1237.96 263.896 1237.29 268.408 1237.29 270.376C1237.29 274.552 1236.9 278.68 1236.9 282.856C1236.9 285.64 1237.24 288.424 1237.24 291.208C1237.24 292.168 1236.33 293.128 1235.42 293.128C1233.3 293.128 1232.15 291.88 1231.82 289.864ZM1251.24 278.824C1251.24 269.992 1258.97 263.32 1267.61 263.32C1271.74 263.32 1277.21 265.528 1277.21 270.376C1277.21 271.72 1276.82 272.632 1275.34 272.632C1271.64 272.632 1269.96 268.072 1265.64 268.072C1259.78 268.072 1255.7 272.824 1255.7 278.536C1255.7 284.824 1260.36 289.912 1266.79 289.912C1272.79 289.912 1273.85 284.104 1278.12 284.104C1278.94 284.104 1279.75 284.152 1279.75 285.256C1279.75 290.68 1270.49 293.752 1266.17 293.752C1257.91 293.752 1251.24 287.08 1251.24 278.824ZM1292.38 291.016C1292.38 289.384 1293.1 288.232 1294.78 288.232C1296.85 288.232 1297.52 289.384 1297.52 291.352C1297.52 292.936 1296.85 294.04 1295.12 294.04C1293.34 294.04 1292.38 292.696 1292.38 291.016ZM1309.96 278.824C1309.96 269.992 1317.69 263.32 1326.33 263.32C1330.46 263.32 1335.93 265.528 1335.93 270.376C1335.93 271.72 1335.55 272.632 1334.06 272.632C1330.36 272.632 1328.68 268.072 1324.36 268.072C1318.51 268.072 1314.43 272.824 1314.43 278.536C1314.43 284.824 1319.08 289.912 1325.51 289.912C1331.51 289.912 1332.57 284.104 1336.84 284.104C1337.66 284.104 1338.47 284.152 1338.47 285.256C1338.47 290.68 1329.21 293.752 1324.89 293.752C1316.63 293.752 1309.96 287.08 1309.96 278.824ZM1351.39 278.68C1351.39 270.232 1357.78 263.272 1366.27 263.272C1374.96 263.272 1381.87 269.128 1381.87 278.056C1381.87 286.168 1376.5 293.752 1367.91 293.752C1358.98 293.752 1351.39 287.896 1351.39 278.68ZM1355.91 278.824C1355.91 285.16 1361.14 289.576 1367.28 289.576C1373.62 289.576 1377.07 284.872 1377.07 278.824C1377.07 272.152 1372.08 267.448 1365.36 267.448C1358.93 267.448 1355.91 272.968 1355.91 278.824ZM1420.38 291.496C1420.43 290.392 1420.43 285.208 1420.38 284.104C1420.28 281.416 1420.19 277.672 1416.68 277.672C1413.66 277.672 1413.76 281.608 1411.07 281.608C1408.24 281.608 1407.47 278.008 1404.44 278.008C1401.9 278.008 1401.56 279.448 1400.7 281.56V290.2C1400.7 291.592 1399.55 292.792 1398.25 292.792C1397.34 292.792 1396.96 292.648 1396.38 291.496C1396.33 289.048 1396.09 277.624 1396.04 275.176C1396.04 274.888 1396.04 271.432 1396.04 270.184C1396.04 269.464 1396.04 265.96 1396.04 265.24C1396.62 264.136 1397 263.896 1397.92 263.896C1400.36 263.896 1401.08 266.344 1402.48 267.784C1403.2 268.6 1406.8 272.152 1407.56 272.92C1408.43 273.496 1409.58 273.88 1410.64 273.88C1417.07 273.88 1416.3 263.944 1422.3 263.944C1423.4 263.944 1424.17 264.136 1424.56 265.24C1424.32 273.448 1425.23 281.272 1425.23 289.384C1425.23 289.768 1425.18 291.448 1425.18 291.784C1424.7 293.128 1423.88 293.176 1422.83 293.176C1421.63 293.176 1420.72 292.696 1420.38 291.496Z" fill="#3E666A"/>
</g>
<defs>
<clipPath id="clip0_5_623">
<rect width="1882" height="422" fill="white"/>
</clipPath>
</defs>
</svg>
